{
DisplayStrings = (
"\U00B5/ygrave/endash/quotedblbase/quotesinglbase/dcaron \U00A2\U00AB/ellipsis/ij/lcaron/ycircumflex \U00BBvyF/ydieresis \U00FD/tcaron/acutecomb",
"\U00B5-/trademark/endash/quotedblbase/quotesinglbase/dcaron \U00AD\U00AB/ellipsis/IJ/Eng/lcaron <\U00BB/perthousand/gravecomb/tcaron/acutecomb",
",*.# !\012O\U00D2\U00D3\U00D4\U00D5\U00D6o\U00F6/endash/quotedblbase/quotesinglbase/dcaron/florin \U00A1\U00AB/ellipsis/bullet 98/ij 54761032/lcaron ?{\U00BB\U00BF\U00F3/gravecomb/hbar \U00F4\U00F5\U00F2/tcaron/acutecomb/dcroat",
"/lcaron/lacute/scaron/ccaron/tcaron/zcaron y\U00FD\U00E1\U00ED\U00E9\U00FA\U00E4/ncaron \U00F4/racute/dcaron",
S/Scedilla,
f
);
copyright = "\U00A9 2015 Microsoft Corporation (www.microsoft.com), with Reserved Font Name Selawik. Selawik is a trademark of Microsoft Corporation in the United States and/or other countries.";
customParameters = (
{
name = openTypeNameLicense;
value = "This Font Software is licensed under the SIL Open Font License, Version 1.1.";
},
{
name = openTypeNameLicenseURL;
value = "http://opensource.org/licenses/OFL-1.1";
},
{
name = openTypeOS2Type;
value = (
    3
);
},
{
name = openTypeOS2VendorID;
value = "MS  ";
},
{
name = trademark;
value = "Selawik is a trademark of the Microsoft group of companies.";
}
);
date = "2015-04-03 21:53:23 +0000";
designer = "Aaron Bell";
designerURL = "http://www.microsoft.com/typography";
familyName = "Selawik";
featurePrefixes = (
{
automatic = 1;
code = "languagesystem DFLT dflt;\012languagesystem latn dflt;\012languagesystem latn CAT;\012languagesystem latn ROM;\012languagesystem latn MOL;\012languagesystem latn KAZ;\012languagesystem latn TAT;\012languagesystem latn TRK;\012languagesystem latn CRT;\012languagesystem latn AZE;\012";
name = Languagesystems;
}
);
features = (
{
automatic = 1;
code = "feature ccmp;\012feature locl;\012feature sups;\012feature frac;\012";
name = aalt;
},
{
automatic = 1;

glyphs = (
{
glyphname = A;
lastChange = "2015-04-08 15:43:09 +0000";
layers = (
{
anchors = (
{
name = bottom;
position = "{661, 0}";
},
{
name = ogonek;
position = "{1189, 10}";
},
{
name = top;
position = "{661, 1384}";
}
);
layerId = "90678D68-BBCC-4545-9AE9-72D37A9CD052";
name = Regular;
paths = (
{
closed = 1;
nodes = (
"211 0 LINE",
"631 1164 LINE",
"636 1176 OFFCURVE",
"652 1240 OFFCURVE",
"655 1260 CURVE",
"659 1260 LINE",
"663 1238 OFFCURVE",
"679 1174 OFFCURVE",
"682 1164 CURVE",
"1114 0 LINE",
"1300 0 LINE",
"748 1434 LINE",
"574 1434 LINE",
"24 0 LINE"
);
},
{
closed = 1;
nodes = (
"1063 312 LINE",
"1063 463 LINE",
"241 463 LINE",
"241 312 LINE"
);
}
);
width = 1321;
},
{
anchors = (
{
name = bottom;
position = "{644, 0}";
},
{
name = ogonek;
position = "{1159, 10}";
},
{
name = top;
position = "{644, 1384}";
}
);
background = {
paths = (
{
closed = 1;
nodes = (
"1118 0 LINE",
"954 446 LINE",
"332 446 LINE",
"168 0 LINE",
"59 0 LINE",
"600 1434 LINE",
"694 1434 LINE",
"1229 0 LINE"
);
},
{
closed = 1;
nodes = (
"678 1200 LINE SMOOTH",
"671 1220 OFFCURVE",
"665 1240 OFFCURVE",
"660 1259 CURVE SMOOTH",
"655 1276 OFFCURVE",
"650 1292 OFFCURVE",
"645 1309 CURVE",
"641 1309 LINE",
"630 1265 OFFCURVE",
"619 1229 OFFCURVE",
"608 1202 CURVE",
"367 537 LINE",
"920 537 LINE"
);
}
);
};
layerId = "4CDE908C-C807-45B0-BC73-FFDEB9F34183";
name = Light;
paths = (
{
closed = 1;
nodes = (
"169 0 LINE",
"618 1220 LINE",
"623 1232 OFFCURVE",
"639 1296 OFFCURVE",
"642 1316 CURVE",
"646 1316 LINE",
"650 1294 OFFCURVE",
"666 1230 OFFCURVE",
"669 1220 CURVE",
"1114 0 LINE",
"1229 0 LINE",
"692 1434 LINE",
"599 1434 LINE",
"59 0 LINE"
);
},
{
closed = 1;
nodes = (
"1063 341 LINE",
"1063 433 LINE",
"241 433 LINE",
"241 341 LINE"
);
}
);
width = 1288;
},
{
anchors = (
{
name = bottom;
position = "{720, 0}";
},
{
name = ogonek;
position = "{1296, 10}";
},
{
name = top;
position = "{720, 1384}";
}
);
background = {
paths = (
{
closed = 1;
nodes = (
"1425 0 LINE",
"1073 0 LINE",
"971 319 LINE",
"461 319 LINE",
"360 0 LINE",
"10 0 LINE",
"532 1434 LINE",
"915 1434 LINE"
);
},
{
closed = 1;
nodes = (
"897 567 LINE",
"743 1049 LINE SMOOTH",
"732 1085 OFFCURVE",
"724 1128 OFFCURVE",
"719 1178 CURVE",
"711 1178 LINE",
"708 1136 OFFCURVE",
"699 1094 OFFCURVE",
"686 1053 CURVE SMOOTH",
"530 567 LINE"
);
}
);
};
layerId = "7FD739B0-27A2-4428-8CD0-260441CCC696";
name = Bold;
paths = (
{
closed = 1;
nodes = (
"348 0 LINE",
"688 1073 LINE",
"693 1085 OFFCURVE",
"709 1149 OFFCURVE",
"712 1169 CURVE",
"716 1169 LINE",
"720 1147 OFFCURVE",
"736 1083 OFFCURVE",
"739 1073 CURVE",
"1080 0 LINE",
"1425 0 LINE",
"914 1434 LINE",
"532 1434 LINE",
"10 0 LINE"
);
},
{
closed = 1;
nodes = (
"1168 260 LINE",
"1168 496 LINE",
"346 496 LINE",
"346 260 LINE"
);
}
);
width = 1440;
}
);
unicode = 0041;
},
{
glyphname = Aogonek;
lastChange = "2015-04-03 21:12:10 +0000";
layers = (
{
anchors = (
{
name = _ogonek;
position = "{1159, 10}";
}
);
components = (
{
name = A;
}
);
layerId = "4CDE908C-C807-45B0-BC73-FFDEB9F34183";
name = Light;
paths = (
{
closed = 1;
nodes = (
"1152 -399 OFFCURVE",
"1183 -396 OFFCURVE",
"1215 -391 CURVE",
"1205 -307 LINE",
"1176 -311 OFFCURVE",
"1154 -314 OFFCURVE",
"1145 -314 CURVE SMOOTH",
"1062 -314 OFFCURVE",
"1015 -276 OFFCURVE",
"1015 -211 CURVE SMOOTH",
"1015 -118 OFFCURVE",
"1107 -58 OFFCURVE",
"1229 0 CURVE",
"1107 0 LINE",
"1023 -30 OFFCURVE",
"925 -108 OFFCURVE",
"925 -226 CURVE SMOOTH",
"925 -336 OFFCURVE",
"1000 -399 OFFCURVE",
"1131 -399 CURVE SMOOTH"
);
}
);
width = 1288;
},
{
anchors = (
{
name = _ogonek;
position = "{1189, 10}";
}
);
components = (
{
name = A;
}
);
layerId = "90678D68-BBCC-4545-9AE9-72D37A9CD052";
name = Regular;
paths = (
{
closed = 1;
nodes = (
"1201 -400 OFFCURVE",
"1239 -396 OFFCURVE",
"1252 -387 CURVE",
"1236 -270 LINE",
"1221 -275 OFFCURVE",
"1199 -277 OFFCURVE",
"1166 -277 CURVE SMOOTH",
"1100 -277 OFFCURVE",
"1068 -249 OFFCURVE",
"1068 -193 CURVE SMOOTH",
"1068 -146 OFFCURVE",
"1144 -32 OFFCURVE",
"1300 0 CURVE",
"1114 0 LINE",
"1044 -26 OFFCURVE",
"932 -136 OFFCURVE",
"932 -240 CURVE SMOOTH",
"932 -347 OFFCURVE",
"1001 -400 OFFCURVE",
"1140 -400 CURVE SMOOTH"
);
}
);
width = 1321;
},
{
anchors = (
{
name = _ogonek;
position = "{1296, 10}";
}
);
components = (
{
name = A;
}
);
layerId = "7FD739B0-27A2-4428-8CD0-260441CCC696";
name = Bold;
paths = (
{
closed = 1;
nodes = (
"1241 -419 OFFCURVE",
"1320 -412 OFFCURVE",
"1382 -400 CURVE",
"1352 -212 LINE",
"1331 -220 OFFCURVE",
"1308 -224 OFFCURVE",
"1290 -224 CURVE SMOOTH",
"1231 -224 OFFCURVE",
"1197 -196 OFFCURVE",
"1197 -148 CURVE SMOOTH",
"1197 -97 OFFCURVE",
"1280 -44 OFFCURVE",
"1425 0 CURVE",
"1080 0 LINE",
"1009 -58 OFFCURVE",
"969 -144 OFFCURVE",
"969 -235 CURVE SMOOTH",
"969 -352 OFFCURVE",
"1041 -419 OFFCURVE",
"1166 -419 CURVE SMOOTH"
);
}
);
width = 1440;
}
);
unicode = 0104;
},
{
glyphname = AE;
lastChange = "2015-04-02 22:00:39 +0000";
layers = (
{
background = {
paths = (
{
closed = 1;
nodes = (
"846 0 LINE",
"846 446 LINE",
"344 446 LINE",
"125 0 LINE",
"16 0 LINE",
"713 1434 LINE",
"1516 1434 LINE",
"1516 1337 LINE",
"944 1337 LINE",
"944 766 LINE",
"1475 766 LINE",
"1475 676 LINE",
"944 676 LINE",
"944 90 LINE",
"1548 90 LINE",
"1548 0 LINE"
);
},
{
closed = 1;
nodes = (
"846 1337 LINE",
"768 1337 LINE",
"385 537 LINE",
"846 537 LINE"
);
}
);
};
components = (
{
disableAlignment = 1;
name = E;
transform = "{1, 0, 0, 1, 661, 0}";
}
);
layerId = "4CDE908C-C807-45B0-BC73-FFDEB9F34183";
name = Light;
paths = (
{
closed = 1;
nodes = (
"126 0 LINE",
"847 1343 LINE",
"923 1343 LINE",
"939 1434 LINE",
"781 1434 LINE",
"16 0 LINE"
);
},
{
closed = 1;
nodes = (
"910 341 LINE",
"910 433 LINE",
"278 433 LINE",
"278 341 LINE"
);
}
);
width = 1706;
},
{
background = {
paths = (
{
closed = 1;
nodes = (
"1667 0 LINE",
"908 0 LINE",
"908 402 LINE",
"398 402 LINE",
"205 0 LINE",
"10 0 LINE",
"710 1434 LINE",
"1634 1434 LINE",
"1634 1282 LINE",
"1075 1282 LINE",
"1075 805 LINE",
"1594 805 LINE",
"1594 654 LINE",
"1075 654 LINE",
"1075 152 LINE",
"1667 152 LINE"
);
},
{
closed = 1;
nodes = (
"908 553 LINE",
"908 1282 LINE",
"813 1282 LINE",
"467 553 LINE"
);
}
);
};
components = (
{
name = E;
transform = "{1, 0, 0, 1, 719, 0}";
}
);
layerId = "90678D68-BBCC-4545-9AE9-72D37A9CD052";
name = Regular;
paths = (
{
closed = 1;
nodes = (
"211 0 LINE",
"908 1283 LINE",
"1047 1283 LINE",
"1001 1434 LINE",
"821 1434 LINE",
"24 0 LINE"
);
},
{
closed = 1;
nodes = (
"1063 312 LINE",
"1063 463 LINE",
"341 463 LINE",
"341 312 LINE"
);
}
);
width = 1762;
},
{
background = {
paths = (
{
closed = 1;
nodes = (
"1849 0 LINE",
"991 0 LINE",
"991 319 LINE",
"520 319 LINE",
"373 0 LINE",
"-2 0 LINE",
"723 1434 LINE",
"1817 1434 LINE",
"1817 1171 LINE",
"1313 1171 LINE",
"1313 852 LINE",
"1782 852 LINE",
"1782 590 LINE",
"1313 590 LINE",
"1313 262 LINE",
"1849 262 LINE"
);
},
{
closed = 1;
nodes = (
"991 567 LINE",
"991 1171 LINE",
"913 1171 LINE",
"631 567 LINE"
);
}
);
};
components = (
{
name = E;
transform = "{1, 0, 0, 1, 825, 0}";
}
);
guideLines = (
{
position = "{1345, 1172}";
}
);
layerId = "7FD739B0-27A2-4428-8CD0-260441CCC696";
name = Bold;
paths = (
{
closed = 1;
nodes = (
"336 0 LINE",
"989 1181 LINE",
"1231 1181 LINE",
"1151 1434 LINE",
"829 1434 LINE",
"-2 0 LINE"
);
},
{
closed = 1;
nodes = (
"1168 290 LINE",
"1168 526 LINE",
"346 526 LINE",
"346 290 LINE"
);
}
);
width = 1915;
}
);
unicode = 00C6;
},
{
glyphname = B;
lastChange = "2015-04-02 21:59:38 +0000";
layers = (
{
anchors = (
{
name = bottom;
position = "{587, 0}";
},
{
name = top;
position = "{587, 1434}";
}
);
layerId = "90678D68-BBCC-4545-9AE9-72D37A9CD052";
name = Regular;
paths = (
{
closed = 1;
nodes = (
"867 0 OFFCURVE",
"1071 158 OFFCURVE",
"1071 412 CURVE SMOOTH",
"1071 605 OFFCURVE",
"949 741 OFFCURVE",
"752 763 CURVE",
"752 767 LINE",
"896 818 OFFCURVE",
"980 943 OFFCURVE",
"980 1107 CURVE SMOOTH",
"980 1316 OFFCURVE",
"816 1435 OFFCURVE",
"596 1435 CURVE SMOOTH",
"188 1435 LINE",
"188 1 LINE",
"606 0 LINE SMOOTH"
);
},
{
closed = 1;
nodes = (
"358 669 LINE",
"550 669 LINE SMOOTH",
"757 669 OFFCURVE",
"897 602 OFFCURVE",
"897 415 CURVE SMOOTH",
"897 240 OFFCURVE",
"772 153 OFFCURVE",
"586 153 CURVE SMOOTH",
"358 153 LINE"
);
},
{
closed = 1;
nodes = (
"357 1283 LINE",
"549 1283 LINE SMOOTH",
"705 1283 OFFCURVE",
"805 1228 OFFCURVE",
"805 1074 CURVE SMOOTH",
"805 904 OFFCURVE",
"694 820 OFFCURVE",
"529 820 CURVE SMOOTH",
"357 820 LINE"
);
}
);
width = 1174;
},
{
anchors = (
{
name = bottom;
position = "{557, 0}";
},
{
name = top;
position = "{557, 1434}";
}
);
background = {
paths = (
{
closed = 1;
nodes = (
"184 0 LINE",
"184 1434 LINE",
"561 1434 LINE SMOOTH",
"786 1434 OFFCURVE",
"930 1302 OFFCURVE",
"930 1102 CURVE SMOOTH",
"930 935 OFFCURVE",
"837 807 OFFCURVE",
"678 756 CURVE",
"678 752 LINE",
"877 733 OFFCURVE",
"999 601 OFFCURVE",
"999 410 CURVE SMOOTH",
"999 169 OFFCURVE",
"830 0 OFFCURVE",
"569 0 CURVE SMOOTH"
);
},
{
closed = 1;
nodes = (
"283 1343 LINE",
"283 788 LINE",
"483 788 LINE SMOOTH",
"691 788 OFFCURVE",
"827 902 OFFCURVE",
"827 1085 CURVE SMOOTH",
"827 1257 OFFCURVE",
"725 1343 OFFCURVE",
"522 1343 CURVE SMOOTH"
);
},
{
closed = 1;
nodes = (
"283 698 LINE",
"283 90 LINE",
"549 90 LINE SMOOTH",
"774 90 OFFCURVE",
"897 202 OFFCURVE",
"897 401 CURVE SMOOTH",
"897 599 OFFCURVE",
"763 698 OFFCURVE",
"494 698 CURVE SMOOTH"
);
}
);
};
layerId = "4CDE908C-C807-45B0-BC73-FFDEB9F34183";
name = Light;
paths = (
{
closed = 1;
nodes = (
"827 -1 OFFCURVE",
"999 158 OFFCURVE",
"999 412 CURVE SMOOTH",
"999 605 OFFCURVE",
"905 741 OFFCURVE",
"752 763 CURVE",
"752 767 LINE",
"864 818 OFFCURVE",
"930 943 OFFCURVE",
"930 1107 CURVE SMOOTH",
"930 1316 OFFCURVE",
"787 1435 OFFCURVE",
"596 1435 CURVE SMOOTH",
"184 1435 LINE",
"184 1 LINE",
"606 0 LINE SMOOTH"
);
},
{
closed = 1;
nodes = (
"284 699 LINE",
"550 699 LINE SMOOTH",
"757 699 OFFCURVE",
"897 624 OFFCURVE",
"897 415 CURVE SMOOTH",
"897 198 OFFCURVE",
"772 90 OFFCURVE",
"586 90 CURVE SMOOTH",
"284 90 LINE"
);
},
{
closed = 1;
nodes = (
"283 1343 LINE",
"549 1343 LINE SMOOTH",
"718 1343 OFFCURVE",
"827 1272 OFFCURVE",
"827 1074 CURVE SMOOTH",
"827 883 OFFCURVE",
"707 788 OFFCURVE",
"529 788 CURVE SMOOTH",
"283 788 LINE"
);
}
);
width = 1114;
},
{
anchors = (
{
name = bottom;
position = "{657, 0}";
},
{
name = top;
position = "{657, 1434}";
}
);
background = {
paths = (
{
closed = 1;
nodes = (
"164 0 LINE",
"164 1434 LINE",
"686 1434 LINE SMOOTH",
"1006 1434 OFFCURVE",
"1184 1311 OFFCURVE",
"1184 1098 CURVE SMOOTH",
"1184 943 OFFCURVE",
"1068 819 OFFCURVE",
"905 774 CURVE",
"905 770 LINE",
"1109 745 OFFCURVE",
"1241 608 OFFCURVE",
"1241 428 CURVE SMOOTH",
"1241 165 OFFCURVE",
"1040 0 OFFCURVE",
"715 0 CURVE SMOOTH"
);
},
{
closed = 1;
nodes = (
"487 1196 LINE",
"487 856 LINE",
"629 856 LINE SMOOTH",
"762 856 OFFCURVE",
"844 925 OFFCURVE",
"844 1038 CURVE SMOOTH",
"844 1143 OFFCURVE",
"765 1196 OFFCURVE",
"608 1196 CURVE SMOOTH"
);
},
{
closed = 1;
nodes = (
"487 616 LINE",
"487 238 LINE",
"662 238 LINE SMOOTH",
"811 238 OFFCURVE",
"901 312 OFFCURVE",
"901 432 CURVE SMOOTH",
"901 547 OFFCURVE",
"813 616 OFFCURVE",
"664 616 CURVE SMOOTH"
);
}
);
};
layerId = "7FD739B0-27A2-4428-8CD0-260441CCC696";
name = Bold;
paths = (
{
closed = 1;
nodes = (
"1019 0 OFFCURVE",
"1241 158 OFFCURVE",
"1241 412 CURVE SMOOTH",
"1241 605 OFFCURVE",
"1104 741 OFFCURVE",
"882 763 CURVE",
"882 767 LINE",
"1070 818 OFFCURVE",
"1180 943 OFFCURVE",
"1180 1107 CURVE SMOOTH",
"1180 1316 OFFCURVE",
"986 1435 OFFCURVE",
"726 1435 CURVE SMOOTH",
"164 1435 LINE",
"164 1 LINE",
"736 0 LINE SMOOTH"
);
},
{
closed = 1;
nodes = (
"478 627 LINE",
"640 627 LINE SMOOTH",
"813 627 OFFCURVE",
"912 556 OFFCURVE",
"912 432 CURVE SMOOTH",
"912 303 OFFCURVE",
"826 229 OFFCURVE",
"676 229 CURVE SMOOTH",
"478 229 LINE"
);
},
{
closed = 1;
nodes = (
"477 1206 LINE",
"639 1206 LINE SMOOTH",
"773 1206 OFFCURVE",
"850 1140 OFFCURVE",
"850 1026 CURVE SMOOTH",
"850 913 OFFCURVE",
"765 847 OFFCURVE",
"619 847 CURVE SMOOTH",
"477 847 LINE"
);
}
);
width = 1313;
}
);
unicode = 0042;
},
{
glyphname = C;
lastChange = "2015-04-03 19:32:16 +0000";
layers = (
{
anchors = (
{
name = bottom;
position = "{634, 0}";
},
{
name = top;
position = "{714, 1354}";
}
);
background = {
paths = (
{
closed = 1;
nodes = (
"822 1468 CURVE",
"503 1470 OFFCURVE",
"325 1255 OFFCURVE",
"325 930 CURVE SMOOTH",
"325 599 OFFCURVE",
"503 397 OFFCURVE",
"808 397 CURVE SMOOTH",
"918 397 OFFCURVE",
"1041 424 OFFCURVE",
"1150 465 CURVE",
"1099 607 LINE",
"1005 572 OFFCURVE",
"940 548 OFFCURVE",
"841 548 CURVE SMOOTH",
"620 548 OFFCURVE",
"496 669 OFFCURVE",
"496 935 CURVE",
"496 1177 OFFCURVE",
"587 1311 OFFCURVE",
"823 1311 CURVE SMOOTH",
"931 1311 OFFCURVE",
"1017 1283 OFFCURVE",
"1077 1256 CURVE",
"1117 1412 LINE",
"1046 1446 OFFCURVE",
"934 1470 OFFCURVE"
);
},
{
closed = 0;
nodes = (
"748 -23 LINE SMOOTH",
"858 -23 OFFCURVE",
"981 4 OFFCURVE",
"1090 45 CURVE",
"1039 187 LINE",
"945 152 OFFCURVE",
"880 128 OFFCURVE",
"781 128 CURVE SMOOTH"
);
}
);
};
layerId = "90678D68-BBCC-4545-9AE9-72D37A9CD052";
name = Regular;
paths = (
{
closed = 1;
nodes = (
"886 -20 OFFCURVE",
"1063 20 OFFCURVE",
"1180 65 CURVE",
"1124 218 LINE",
"1016 181 OFFCURVE",
"882 142 OFFCURVE",
"752 142 CURVE SMOOTH",
"451 142 OFFCURVE",
"279 358 OFFCURVE",
"279 721 CURVE SMOOTH",
"279 1084 OFFCURVE",
"478 1309 OFFCURVE",
"823 1292 CURVE SMOOTH",
"883 1289 OFFCURVE",
"1042 1275 OFFCURVE",
"1100 1256 CURVE",
"1149 1416 LINE",
"1060 1439 OFFCURVE",
"952 1460 OFFCURVE",
"825 1460 CURVE SMOOTH",
"360 1460 OFFCURVE",
"93 1188 OFFCURVE",
"93 713 CURVE SMOOTH",
"93 247 OFFCURVE",
"325 -20 OFFCURVE",
"729 -20 CURVE SMOOTH"
);
}
);
width = 1268;
},
{
anchors = (
{
name = bottom;
position = "{716, 0}";
},
{
name = top;
position = "{716, 1384}";
}
);
background = {
paths = (
{
closed = 1;
nodes = (
"1137 47 LINE",
"1021 -1 OFFCURVE",
"900 -25 OFFCURVE",
"774 -25 CURVE SMOOTH",
"382 -25 OFFCURVE",
"109 264 OFFCURVE",
"109 688 CURVE SMOOTH",
"109 1153 OFFCURVE",
"408 1458 OFFCURVE",
"821 1458 CURVE SMOOTH",
"931 1458 OFFCURVE",
"1036 1440 OFFCURVE",
"1137 1405 CURVE",
"1137 1300 LINE",
"1036 1345 OFFCURVE",
"930 1368 OFFCURVE",
"819 1368 CURVE SMOOTH",
"459 1368 OFFCURVE",
"211 1103 OFFCURVE",
"211 698 CURVE SMOOTH",
"211 307 OFFCURVE",
"451 66 OFFCURVE",
"782 66 CURVE SMOOTH",
"914 66 OFFCURVE",
"1032 92 OFFCURVE",
"1137 143 CURVE"
);
}
);
};
layerId = "4CDE908C-C807-45B0-BC73-FFDEB9F34183";
name = Light;
paths = (
{
closed = 1;
nodes = (
"886 -20 OFFCURVE",
"1063 20 OFFCURVE",
"1180 65 CURVE",
"1148 149 LINE",
"998 97 OFFCURVE",
"854 67 OFFCURVE",
"752 67 CURVE SMOOTH",
"406 67 OFFCURVE",
"209 311 OFFCURVE",
"209 721 CURVE SMOOTH",
"209 1132 OFFCURVE",
"433 1367 OFFCURVE",
"823 1367 CURVE SMOOTH",
"943 1367 OFFCURVE",
"1042 1352 OFFCURVE",
"1123 1321 CURVE",
"1149 1416 LINE",
"1060 1439 OFFCURVE",
"952 1460 OFFCURVE",
"825 1460 CURVE SMOOTH",
"370 1460 OFFCURVE",
"109 1188 OFFCURVE",
"109 713 CURVE SMOOTH",
"109 247 OFFCURVE",
"335 -20 OFFCURVE",
"729 -20 CURVE SMOOTH"
);
}
);
width = 1272;
},
{
anchors = (
{
name = bottom;
position = "{639, 0}";
},
{
name = top;
position = "{719, 1384}";
}
);
background = {
paths = (
{
closed = 1;
nodes = (
"1192 51 LINE",
"1087 0 OFFCURVE",
"951 -25 OFFCURVE",
"782 -25 CURVE SMOOTH",
"342 -25 OFFCURVE",
"74 255 OFFCURVE",
"74 686 CURVE SMOOTH",
"74 1145 OFFCURVE",
"386 1458 OFFCURVE",
"838 1458 CURVE SMOOTH",
"978 1458 OFFCURVE",
"1096 1440 OFFCURVE",
"1192 1405 CURVE",
"1192 1094 LINE",
"1096 1151 OFFCURVE",
"987 1180 OFFCURVE",
"864 1180 CURVE SMOOTH",
"595 1180 OFFCURVE",
"414 998 OFFCURVE",
"414 709 CURVE SMOOTH",
"414 432 OFFCURVE",
"582 254 OFFCURVE",
"846 254 CURVE SMOOTH",
"972 254 OFFCURVE",
"1087 285 OFFCURVE",
"1192 346 CURVE"
);
}
);
};
layerId = "7FD739B0-27A2-4428-8CD0-260441CCC696";
name = Bold;
paths = (
{
closed = 1;
nodes = (
"900 -20 OFFCURVE",
"1051 1 OFFCURVE",
"1191 55 CURVE",
"1125 343 LINE",
"994 301 OFFCURVE",
"870 277 OFFCURVE",
"783 277 CURVE SMOOTH",
"538 277 OFFCURVE",
"398 438 OFFCURVE",
"398 721 CURVE SMOOTH",
"398 1005 OFFCURVE",
"564 1167 OFFCURVE",
"854 1167 CURVE SMOOTH",
"948 1167 OFFCURVE",
"1038 1154 OFFCURVE",
"1101 1131 CURVE",
"1180 1416 LINE",
"1070 1444 OFFCURVE",
"952 1460 OFFCURVE",
"856 1460 CURVE SMOOTH",
"359 1460 OFFCURVE",
"74 1188 OFFCURVE",
"74 713 CURVE SMOOTH",
"74 247 OFFCURVE",
"324 -20 OFFCURVE",
"760 -20 CURVE SMOOTH"
);
}
);
width = 1278;
}
);
unicode = 0043;
},
{
glyphname = D;
lastChange = "2015-04-03 19:32:43 +0000";
layers = (
{
anchors = (
{
name = bottom;
position = "{718, 0}";
},
{
name = center;
position = "{718, 717}";
},
{
name = top;
position = "{668, 1354}";
}
);
layerId = "90678D68-BBCC-4545-9AE9-72D37A9CD052";
name = Regular;
paths = (
{
closed = 1;
nodes = (
"568 0 LINE SMOOTH",
"1031 0 OFFCURVE",
"1341 280 OFFCURVE",
"1341 734 CURVE SMOOTH",
"1341 1212 OFFCURVE",
"1079 1432 OFFCURVE",
"583 1432 CURVE SMOOTH",
"187 1432 LINE",
"187 -2 LINE"
);
},
{
closed = 1;
nodes = (
"356 1278 LINE",
"579 1280 LINE SMOOTH",
"961 1280 OFFCURVE",
"1166 1104 OFFCURVE",
"1166 728 CURVE SMOOTH",
"1166 358 OFFCURVE",
"948 148 OFFCURVE",
"570 148 CURVE SMOOTH",
"356 148 LINE"
);
}
);
width = 1436;
},
{
anchors = (
{
name = bottom;
position = "{690, 0}";
},
{
name = center;
position = "{690, 717}";
},
{
name = top;
position = "{640, 1384}";
}
);
background = {
paths = (
{
closed = 1;
nodes = (
"184 0 LINE",
"184 1434 LINE",
"543 1434 LINE SMOOTH",
"1019 1434 OFFCURVE",
"1272 1192 OFFCURVE",
"1272 737 CURVE SMOOTH",
"1272 300 OFFCURVE",
"990 0 OFFCURVE",
"522 0 CURVE SMOOTH"
);
},
{
closed = 1;
nodes = (
"283 1343 LINE",
"283 90 LINE",
"508 90 LINE SMOOTH",
"933 90 OFFCURVE",
"1169 317 OFFCURVE",
"1169 733 CURVE SMOOTH",
"1169 1140 OFFCURVE",
"955 1343 OFFCURVE",
"528 1343 CURVE SMOOTH"
);
}
);
};
layerId = "4CDE908C-C807-45B0-BC73-FFDEB9F34183";
name = Light;
paths = (
{
closed = 1;
nodes = (
"568 0 LINE SMOOTH",
"989 2 OFFCURVE",
"1271 280 OFFCURVE",
"1271 734 CURVE SMOOTH",
"1271 1212 OFFCURVE",
"1033 1432 OFFCURVE",
"583 1432 CURVE SMOOTH",
"184 1432 LINE",
"184 -2 LINE"
);
},
{
closed = 1;
nodes = (
"283 1342 LINE",
"579 1344 LINE SMOOTH",
"961 1344 OFFCURVE",
"1166 1148 OFFCURVE",
"1166 728 CURVE SMOOTH",
"1166 321 OFFCURVE",
"948 90 OFFCURVE",
"570 90 CURVE SMOOTH",
"283 90 LINE"
);
}
);
width = 1380;
},
{
anchors = (
{
name = bottom;
position = "{755, 0}";
},
{
name = center;
position = "{755, 717}";
},
{
name = top;
position = "{725, 1384}";
}
);
background = {
paths = (
{
closed = 1;
nodes = (
"164 0 LINE",
"164 1434 LINE",
"672 1434 LINE SMOOTH",
"1181 1434 OFFCURVE",
"1436 1201 OFFCURVE",
"1436 735 CURVE SMOOTH",
"1436 288 OFFCURVE",
"1135 0 OFFCURVE",
"672 0 CURVE SMOOTH"
);
},
{
closed = 1;
nodes = (
"487 1171 LINE",
"487 262 LINE",
"647 262 LINE SMOOTH",
"927 262 OFFCURVE",
"1096 442 OFFCURVE",
"1096 731 CURVE SMOOTH",
"1096 1004 OFFCURVE",
"930 1171 OFFCURVE",
"645 1171 CURVE SMOOTH"
);
}
);
};
layerId = "7FD739B0-27A2-4428-8CD0-260441CCC696";
name = Bold;
paths = (
{
closed = 1;
nodes = (
"700 0 LINE SMOOTH",
"1140 2 OFFCURVE",
"1435 280 OFFCURVE",
"1435 734 CURVE SMOOTH",
"1435 1212 OFFCURVE",
"1186 1434 OFFCURVE",
"715 1434 CURVE SMOOTH",
"164 1434 LINE",
"164 -2 LINE"
);
},
{
closed = 1;
nodes = (
"478 1171 LINE",
"711 1173 LINE SMOOTH",
"974 1175 OFFCURVE",
"1115 1031 OFFCURVE",
"1115 728 CURVE SMOOTH",
"1115 432 OFFCURVE",
"964 263 OFFCURVE",
"702 263 CURVE SMOOTH",
"478 263 LINE"
);
}
);
width = 1510;
}
);
unicode = 0044;
},
{
glyphname = Eth;
lastChange = "2015-04-03 20:07:30 +0000";
layers = (
{
components = (
{
name = D;
},
{
name = strokeshortoverlaycomb;
}
);
layerId = "4CDE908C-C807-45B0-BC73-FFDEB9F34183";
name = Light;
width = 1380;
},
{
background = {
paths = (
{
closed = 1;
nodes = (
"188 0 LINE",
"188 641 LINE",
"28 641 LINE",
"28 796 LINE",
"188 796 LINE",
"188 1434 LINE",
"584 1434 LINE SMOOTH",
"1089 1434 OFFCURVE",
"1342 1201 OFFCURVE",
"1342 735 CURVE SMOOTH",
"1342 290 OFFCURVE",
"1039 0 OFFCURVE",
"568 0 CURVE SMOOTH"
);
},
{
closed = 1;
nodes = (
"356 1282 LINE",
"356 796 LINE",
"692 796 LINE",
"692 641 LINE",
"356 641 LINE",
"356 152 LINE",
"570 152 LINE SMOOTH",
"946 152 OFFCURVE",
"1166 362 OFFCURVE",
"1166 731 CURVE SMOOTH",
"1166 1098 OFFCURVE",
"971 1282 OFFCURVE",
"580 1282 CURVE SMOOTH"
);
}
);
};
components = (
{
name = D;
},
{
name = strokeshortoverlaycomb;
}
);
layerId = "90678D68-BBCC-4545-9AE9-72D37A9CD052";
name = Regular;
width = 1436;
},
{
components = (
{
name = D;
},
{
name = strokeshortoverlaycomb;
}
);
layerId = "7FD739B0-27A2-4428-8CD0-260441CCC696";
name = Bold;
width = 1510;
}
);
unicode = 00D0;
},
{
glyphname = E;
lastChange = "2015-04-03 21:09:50 +0000";
layers = (
{
anchors = (
{
name = bottom;
position = "{508, 0}";
},
{
name = ogonek;
position = "{819, 10}";
},
{
name = top;
position = "{548, 1354}";
}
);
layerId = "90678D68-BBCC-4545-9AE9-72D37A9CD052";
name = Regular;
paths = (
{
closed = 1;
nodes = (
"948 0 LINE",
"948 152 LINE",
"356 152 LINE",
"356 654 LINE",
"854 654 LINE",
"854 805 LINE",
"356 805 LINE",
"356 1282 LINE",
"916 1282 LINE",
"916 1434 LINE",
"188 1434 LINE",
"188 0 LINE"
);
}
);
width = 1036;
},
{
anchors = (
{
name = bottom;
position = "{512, 0}";
},
{
name = ogonek;
position = "{845, 10}";
},
{
name = top;
position = "{522, 1384}";
}
);
background = {
paths = (
{
closed = 1;
nodes = (
"184 0 LINE",
"184 1434 LINE",
"854 1434 LINE",
"854 1343 LINE",
"283 1343 LINE",
"283 768 LINE",
"813 768 LINE",
"813 678 LINE",
"283 678 LINE",
"283 90 LINE",
"887 90 LINE",
"887 0 LINE"
);
}
);
};
layerId = "4CDE908C-C807-45B0-BC73-FFDEB9F34183";
name = Light;
paths = (
{
closed = 1;
nodes = (
"887 0 LINE",
"887 90 LINE",
"283 90 LINE",
"283 678 LINE",
"793 678 LINE",
"793 768 LINE",
"283 768 LINE",
"283 1343 LINE",
"855 1343 LINE",
"855 1434 LINE",
"184 1434 LINE",
"184 0 LINE"
);
}
);
width = 1024;
},
{
anchors = (
{
name = bottom;
position = "{545, 0}";
},
{
name = ogonek;
position = "{935, 10}";
},
{
name = top;
position = "{575, 1384}";
}
);
background = {
paths = (
{
closed = 1;
nodes = (
"1024 0 LINE",
"164 0 LINE",
"164 1434 LINE",
"991 1434 LINE",
"991 1171 LINE",
"487 1171 LINE",
"487 852 LINE",
"956 852 LINE",
"956 590 LINE",
"487 590 LINE",
"487 262 LINE",
"1024 262 LINE"
);
}
);
};
layerId = "7FD739B0-27A2-4428-8CD0-260441CCC696";
name = Bold;
paths = (
{
closed = 1;
nodes = (
"1024 0 LINE",
"1024 252 LINE",
"478 252 LINE",
"478 597 LINE",
"930 597 LINE",
"930 853 LINE",
"478 853 LINE",
"478 1181 LINE",
"992 1181 LINE",
"992 1434 LINE",
"164 1434 LINE",
"164 0 LINE"
);
}
);
width = 1090;
}
);
unicode = 0045;
},
{
glyphname = F;
lastChange = "2015-04-09 21:46:34 +0000";
layers = (
{
anchors = (
{
name = bottom;
position = "{500, 0}";
},
{
name = top;
position = "{500, 1434}";
}
);
layerId = "90678D68-BBCC-4545-9AE9-72D37A9CD052";
name = Regular;
paths = (
{
closed = 1;
nodes = (
"356 0 LINE",
"356 635 LINE",
"854 635 LINE",
"854 786 LINE",
"356 786 LINE",
"356 1282 LINE",
"916 1282 LINE",
"916 1434 LINE",
"188 1434 LINE",
"188 0 LINE"
);
}
);
width = 1000;
},
{
anchors = (
{
name = bottom;
position = "{476, 0}";
},
{
name = top;
position = "{476, 1434}";
}
);
background = {
paths = (
{
closed = 1;
nodes = (
"283 1343 LINE",
"283 758 LINE",
"813 758 LINE",
"813 668 LINE",
"283 668 LINE",
"283 0 LINE",
"184 0 LINE",
"184 1434 LINE",
"854 1434 LINE",
"854 1343 LINE"
);
}
);
};
layerId = "4CDE908C-C807-45B0-BC73-FFDEB9F34183";
name = Light;
paths = (
{
closed = 1;
nodes = (
"283 0 LINE",
"283 668 LINE",
"792 668 LINE",
"792 758 LINE",
"283 758 LINE",
"283 1343 LINE",
"854 1343 LINE",
"854 1434 LINE",
"184 1434 LINE",
"184 0 LINE"
);
}
);
width = 952;
},
{
anchors = (
{
name = bottom;
position = "{533, 0}";
},
{
name = top;
position = "{533, 1434}";
}
);
background = {
paths = (
{
closed = 1;
nodes = (
"993 1171 LINE",
"487 1171 LINE",
"487 819 LINE",
"952 819 LINE",
"952 557 LINE",
"487 557 LINE",
"487 0 LINE",
"164 0 LINE",
"164 1434 LINE",
"993 1434 LINE"
);
}
);
};
layerId = "7FD739B0-27A2-4428-8CD0-260441CCC696";
name = Bold;
paths = (
{
closed = 1;
nodes = (
"477 0 LINE",
"477 562 LINE",
"931 562 LINE",
"931 820 LINE",
"477 820 LINE",
"477 1181 LINE",
"993 1181 LINE",
"993 1434 LINE",
"164 1434 LINE",
"164 0 LINE"
);
}
);
width = 1065;
}
);
unicode = 0046;
},
{
color = 5;
glyphname = G;
lastChange = "2015-04-03 19:33:27 +0000";
layers = (
{
anchors = (
{
name = bottom;
position = "{703, 0}";
},
{
name = top;
position = "{783, 1354}";
}
);
background = {
paths = (
{
closed = 1;
nodes = (
"1144 233 LINE",
"1030 188 OFFCURVE",
"899 137 OFFCURVE",
"752 137 CURVE SMOOTH",
"448 137 OFFCURVE",
"274 348 OFFCURVE",
"274 701 CURVE SMOOTH",
"274 1080 OFFCURVE",
"475 1311 OFFCURVE",
"823 1297 CURVE SMOOTH",
"896 1294 OFFCURVE",
"1050 1277 OFFCURVE",
"1110 1261 CURVE",
"1159 1416 LINE",
"1068 1437 OFFCURVE",
"956 1460 OFFCURVE",
"825 1460 CURVE SMOOTH",
"360 1460 OFFCURVE",
"93 1181 OFFCURVE",
"93 693 CURVE SMOOTH",
"93 240 OFFCURVE",
"325 -20 OFFCURVE",
"729 -20 CURVE SMOOTH",
"930 -20 OFFCURVE",
"1081 35 OFFCURVE",
"1200 85 CURVE"
);
}
);
};
layerId = "90678D68-BBCC-4545-9AE9-72D37A9CD052";
name = Regular;
paths = (
{
closed = 1;
nodes = (
"950 -22 OFFCURVE",
"1125 22 OFFCURVE",
"1261 100 CURVE",
"1260 738 LINE",
"728 738 LINE",
"728 586 LINE",
"1092 586 LINE",
"1092 194 LINE",
"1013 151 OFFCURVE",
"907 127 OFFCURVE",
"800 127 CURVE SMOOTH",
"463 127 OFFCURVE",
"270 340 OFFCURVE",
"270 711 CURVE SMOOTH",
"270 1087 OFFCURVE",
"470 1302 OFFCURVE",
"820 1302 CURVE SMOOTH",
"956 1302 OFFCURVE",
"1116 1276 OFFCURVE",
"1177 1265 CURVE",
"1232 1413 LINE",
"1129 1434 OFFCURVE",
"973 1459 OFFCURVE",
"838 1459 CURVE SMOOTH",
"366 1459 OFFCURVE",
"95 1183 OFFCURVE",
"95 700 CURVE SMOOTH",
"95 241 OFFCURVE",
"345 -22 OFFCURVE",
"781 -22 CURVE SMOOTH"
);
}
);
width = 1405;
},
{
anchors = (
{
name = bottom;
position = "{684, 0}";
},
{
name = top;
position = "{754, 1384}";
}
);
background = {
paths = (
{
closed = 1;
nodes = (
"1221 100 LINE",
"1073 17 OFFCURVE",
"921 -25 OFFCURVE",
"764 -25 CURVE SMOOTH",
"373 -25 OFFCURVE",
"109 265 OFFCURVE",
"109 696 CURVE SMOOTH",
"109 1131 OFFCURVE",
"390 1458 OFFCURVE",
"825 1458 CURVE SMOOTH",
"951 1458 OFFCURVE",
"1073 1433 OFFCURVE",
"1192 1382 CURVE",
"1192 1274 LINE",
"1062 1337 OFFCURVE",
"935 1368 OFFCURVE",
"811 1368 CURVE SMOOTH",
"450 1368 OFFCURVE",
"211 1094 OFFCURVE",
"211 711 CURVE SMOOTH",
"211 308 OFFCURVE",
"433 66 OFFCURVE",
"782 66 CURVE SMOOTH",
"911 66 OFFCURVE",
"1025 94 OFFCURVE",
"1122 150 CURVE",
"1122 623 LINE",
"784 623 LINE",
"784 713 LINE",
"1221 713 LINE"
);
}
);
};
layerId = "4CDE908C-C807-45B0-BC73-FFDEB9F34183";
name = Light;
paths = (
{
closed = 1;
nodes = (
"936 -22 OFFCURVE",
"1097 22 OFFCURVE",
"1222 100 CURVE",
"1221 713 LINE",
"768 713 LINE",
"768 623 LINE",
"1124 623 LINE",
"1124 154 LINE",
"1036 97 OFFCURVE",
"919 65 OFFCURVE",
"800 65 CURVE SMOOTH",
"425 65 OFFCURVE",
"210 301 OFFCURVE",
"210 711 CURVE SMOOTH",
"210 1129 OFFCURVE",
"432 1367 OFFCURVE",
"820 1367 CURVE SMOOTH",
"925 1367 OFFCURVE",
"1066 1350 OFFCURVE",
"1207 1320 CURVE",
"1232 1413 LINE",
"1129 1434 OFFCURVE",
"973 1459 OFFCURVE",
"838 1459 CURVE SMOOTH",
"375 1459 OFFCURVE",
"109 1183 OFFCURVE",
"109 700 CURVE SMOOTH",
"109 241 OFFCURVE",
"354 -22 OFFCURVE",
"781 -22 CURVE SMOOTH"
);
}
);
width = 1368;
},
{
anchors = (
{
name = bottom;
position = "{728, 0}";
},
{
name = top;
position = "{798, 1384}";
}
);
background = {
paths = (
{
closed = 1;
nodes = (
"1341 96 LINE",
"1201 15 OFFCURVE",
"1027 -25 OFFCURVE",
"819 -25 CURVE SMOOTH",
"358 -25 OFFCURVE",
"74 246 OFFCURVE",
"74 694 CURVE SMOOTH",
"74 1145 OFFCURVE",
"389 1458 OFFCURVE",
"872 1458 CURVE SMOOTH",
"1024 1458 OFFCURVE",
"1158 1437 OFFCURVE",
"1274 1395 CURVE",
"1274 1092 LINE",
"1163 1156 OFFCURVE",
"1028 1188 OFFCURVE",
"868 1188 CURVE SMOOTH",
"600 1188 OFFCURVE",
"414 1000 OFFCURVE",
"414 709 CURVE SMOOTH",
"414 414 OFFCURVE",
"577 246 OFFCURVE",
"834 246 CURVE SMOOTH",
"911 246 OFFCURVE",
"973 257 OFFCURVE",
"1018 279 CURVE",
"1018 559 LINE",
"731 559 LINE",
"731 817 LINE",
"1341 817 LINE"
);
}
);
};
layerId = "7FD739B0-27A2-4428-8CD0-260441CCC696";
name = Bold;
paths = (
{
closed = 1;
nodes = (
"977 -22 OFFCURVE",
"1181 22 OFFCURVE",
"1340 100 CURVE",
"1339 819 LINE",
"787 819 LINE",
"787 569 LINE",
"1030 569 LINE",
"1030 304 LINE",
"982 266 OFFCURVE",
"909 247 OFFCURVE",
"829 247 CURVE SMOOTH",
"567 247 OFFCURVE",
"414 423 OFFCURVE",
"414 711 CURVE SMOOTH",
"414 1007 OFFCURVE",
"591 1177 OFFCURVE",
"899 1177 CURVE SMOOTH",
"1024 1177 OFFCURVE",
"1170 1151 OFFCURVE",
"1226 1140 CURVE",
"1311 1413 LINE",
"1198 1434 OFFCURVE",
"1026 1459 OFFCURVE",
"877 1459 CURVE SMOOTH",
"427 1459 OFFCURVE",
"74 1183 OFFCURVE",
"74 700 CURVE SMOOTH",
"74 241 OFFCURVE",
"388 -22 OFFCURVE",
"780 -22 CURVE SMOOTH"
);
}
);
width = 1456;
}
);
unicode = 0047;
},
{
glyphname = H;
lastChange = "2015-04-03 19:34:12 +0000";
layers = (
{
anchors = (
{
name = bottom;
position = "{727, 0}";
},
{
name = center;
position = "{727, 717}";
},
{
name = top;
position = "{727, 1354}";
}
);
layerId = "90678D68-BBCC-4545-9AE9-72D37A9CD052";
name = Regular;
paths = (
{
closed = 1;
nodes = (
"356 0 LINE",
"356 634 LINE",
"1098 634 LINE",
"1098 0 LINE",
"1266 0 LINE",
"1266 1434 LINE",
"1098 1434 LINE",
"1098 785 LINE",
"356 785 LINE",
"356 1434 LINE",
"188 1434 LINE",
"188 0 LINE"
);
}
);
width = 1454;
},
{
anchors = (
{
name = bottom;
position = "{693, 0}";
},
{
name = center;
position = "{693, 717}";
},
{
name = top;
position = "{693, 1384}";
}
);
background = {
paths = (
{
closed = 1;
nodes = (
"1104 0 LINE",
"1104 688 LINE",
"283 688 LINE",
"283 0 LINE",
"184 0 LINE",
"184 1434 LINE",
"283 1434 LINE",
"283 778 LINE",
"1104 778 LINE",
"1104 1434 LINE",
"1202 1434 LINE",
"1202 0 LINE"
);
}
);
};
layerId = "4CDE908C-C807-45B0-BC73-FFDEB9F34183";
name = Light;
paths = (
{
closed = 1;
nodes = (
"283 0 LINE",
"283 674 LINE",
"1104 674 LINE",
"1104 0 LINE",
"1202 0 LINE",
"1202 1434 LINE",
"1104 1434 LINE",
"1104 763 LINE",
"283 763 LINE",
"283 1434 LINE",
"184 1434 LINE",
"184 0 LINE"
);
}
);
width = 1386;
},
{
anchors = (
{
name = bottom;
position = "{785, 0}";
},
{
name = center;
position = "{785, 717}";
},
{
name = top;
position = "{785, 1384}";
}
);
background = {
paths = (
{
closed = 1;
nodes = (
"1405 0 LINE",
"1081 0 LINE",
"1081 584 LINE",
"487 584 LINE",
"487 0 LINE",
"164 0 LINE",
"164 1434 LINE",
"487 1434 LINE",
"487 862 LINE",
"1081 862 LINE",
"1081 1434 LINE",
"1405 1434 LINE"
);
}
);
};
layerId = "7FD739B0-27A2-4428-8CD0-260441CCC696";
name = Bold;
paths = (
{
closed = 1;
nodes = (
"475 0 LINE",
"475 584 LINE",
"1089 584 LINE",
"1089 0 LINE",
"1405 0 LINE",
"1405 1434 LINE",
"1089 1434 LINE",
"1089 852 LINE",
"475 852 LINE",
"475 1434 LINE",
"163 1434 LINE",
"163 0 LINE"
);
}
);
width = 1569;
}
);
unicode = 0048;
},
{
glyphname = I;
lastChange = "2015-04-09 22:03:22 +0000";
layers = (
{
anchors = (
{
name = bottom;
position = "{273, 0}";
},
{
name = ogonek;
position = "{286, 10}";
},
{
name = top;
position = "{273, 1354}";
}
);
layerId = "90678D68-BBCC-4545-9AE9-72D37A9CD052";
name = Regular;
paths = (
{
closed = 1;
nodes = (
"356 0 LINE",
"356 1434 LINE",
"188 1434 LINE",
"188 0 LINE"
);
}
);
width = 545;
},
{
anchors = (
{
name = bottom;
position = "{234, 0}";
},
{
name = ogonek;
position = "{238, 10}";
},
{
name = top;
position = "{235, 1374}";
}
);
background = {
paths = (
{
closed = 1;
nodes = (
"184 0 LINE",
"184 1434 LINE",
"283 1434 LINE",
"283 0 LINE"
);
}
);
};
layerId = "4CDE908C-C807-45B0-BC73-FFDEB9F34183";
name = Light;
paths = (
{
closed = 1;
nodes = (
"283 0 LINE",
"283 1434 LINE",
"188 1434 LINE",
"188 0 LINE"
);
}
);
width = 467;
},
{
anchors = (
{
name = bottom;
position = "{325, 0}";
},
{
name = ogonek;
position = "{398, 10}";
},
{
name = top;
position = "{325, 1384}";
}
);
background = {
paths = (
{
closed = 1;
nodes = (
"487 0 LINE",
"487 1434 LINE",
"164 1434 LINE",
"164 0 LINE"
);
}
);
};
layerId = "7FD739B0-27A2-4428-8CD0-260441CCC696";
name = Bold;
paths = (
{
closed = 1;
nodes = (
"481 0 LINE",
"481 1434 LINE",
"169 1434 LINE",
"169 0 LINE"
);
}
);
width = 649;
}
);
unicode = 0049;
},
{
glyphname = IJ;
lastChange = "2015-04-09 21:56:22 +0000";
layers = (
{
background = {
paths = (
{
closed = 1;
nodes = (
"974 494 LINE SMOOTH",
"974 148 OFFCURVE",
"854 -25 OFFCURVE",
"614 -25 CURVE SMOOTH",
"577 -25 OFFCURVE",
"540 -20 OFFCURVE",
"505 -10 CURVE",
"505 86 LINE",
"544 73 OFFCURVE",
"581 66 OFFCURVE",
"616 66 CURVE SMOOTH",
"800 66 OFFCURVE",
"876 201 OFFCURVE",
"876 496 CURVE SMOOTH",
"876 1434 LINE",
"974 1434 LINE"
);
},
{
closed = 1;
nodes = (
"184 0 LINE",
"184 1434 LINE",
"283 1434 LINE",
"283 0 LINE"
);
}
);
};
components = (
{
name = I;
},
{
disableAlignment = 1;
name = J;
transform = "{1, 0, 0, 1, 487, 0}";
}
);
layerId = "4CDE908C-C807-45B0-BC73-FFDEB9F34183";
name = Light;
width = 1151;
},
{
components = (
{
name = I;
},
{
name = J;
transform = "{1, 0, 0, 1, 545, 0}";
}
);
layerId = "90678D68-BBCC-4545-9AE9-72D37A9CD052";
name = Regular;
width = 1276;
},
{
components = (
{
name = I;
},
{
name = J;
transform = "{1, 0, 0, 1, 649, 0}";
}
);
layerId = "7FD739B0-27A2-4428-8CD0-260441CCC696";
name = Bold;
width = 1561;
}
);
unicode = 0132;
},
{
glyphname = J;
lastChange = "2015-04-02 21:55:51 +0000";
layers = (
{
anchors = (
{
name = bottom;
position = "{366, 0}";
},
{
name = top;
position = "{366, 1434}";
}
);
background = {
paths = (
{
closed = 1;
nodes = (
"391 1024 LINE",
"391 1024 OFFCURVE",
"391 -37 OFFCURVE",
"391 -37 CURVE",
"391 -272 OFFCURVE",
"244 -310 OFFCURVE",
"39 -332 CURVE",
"90 -482 LINE",
"352 -469 OFFCURVE",
"555 -358 OFFCURVE",
"555 -50 CURVE SMOOTH",
"555 1024 LINE"
);
}
);
};
layerId = "90678D68-BBCC-4545-9AE9-72D37A9CD052";
name = Regular;
paths = (
{
closed = 1;
nodes = (
"352 -469 OFFCURVE",
"555 -358 OFFCURVE",
"555 -20 CURVE SMOOTH",
"555 1434 LINE",
"391 1434 LINE",
"391 1434 OFFCURVE",
"391 -29 OFFCURVE",
"391 -29 CURVE",
"391 -274 OFFCURVE",
"257 -310 OFFCURVE",
"69 -332 CURVE",
"90 -482 LINE"
);
}
);
width = 731;
},
{
anchors = (
{
name = bottom;
position = "{332, 0}";
},
{
name = top;
position = "{332, 1434}";
}
);
background = {
paths = (
{
closed = 1;
nodes = (
"487 494 LINE SMOOTH",
"487 148 OFFCURVE",
"367 -25 OFFCURVE",
"127 -25 CURVE SMOOTH",
"90 -25 OFFCURVE",
"53 -20 OFFCURVE",
"18 -10 CURVE",
"18 86 LINE",
"57 73 OFFCURVE",
"94 66 OFFCURVE",
"129 66 CURVE SMOOTH",
"313 66 OFFCURVE",
"389 201 OFFCURVE",
"389 496 CURVE SMOOTH",
"389 1434 LINE",
"487 1434 LINE"
);
}
);
};
layerId = "4CDE908C-C807-45B0-BC73-FFDEB9F34183";
name = Light;
paths = (
{
closed = 1;
nodes = (
"314 -469 OFFCURVE",
"487 -358 OFFCURVE",
"487 -20 CURVE SMOOTH",
"487 1434 LINE",
"392 1434 LINE",
"392 1434 OFFCURVE",
"392 -9 OFFCURVE",
"392 -9 CURVE",
"391 -311 OFFCURVE",
"261 -355 OFFCURVE",
"79 -382 CURVE",
"90 -482 LINE"
);
}
);
width = 664;
},
{
anchors = (
{
name = bottom;
position = "{456, 0}";
},
{
name = top;
position = "{456, 1434}";
}
);
background = {
paths = (
{
closed = 1;
nodes = (
"762 569 LINE SMOOTH",
"762 185 OFFCURVE",
"579 -25 OFFCURVE",
"242 -25 CURVE SMOOTH",
"167 -25 OFFCURVE",
"97 -12 OFFCURVE",
"33 14 CURVE",
"33 317 LINE",
"88 275 OFFCURVE",
"150 254 OFFCURVE",
"219 254 CURVE SMOOTH",
"366 254 OFFCURVE",
"440 363 OFFCURVE",
"440 582 CURVE SMOOTH",
"440 1434 LINE",
"762 1434 LINE"
);
}
);
};
layerId = "7FD739B0-27A2-4428-8CD0-260441CCC696";
name = Bold;
paths = (
{
closed = 1;
nodes = (
"469 -469 OFFCURVE",
"762 -358 OFFCURVE",
"762 -20 CURVE SMOOTH",
"762 1434 LINE",
"453 1434 LINE",
"453 1434 OFFCURVE",
"453 111 OFFCURVE",
"453 111 CURVE",
"453 -134 OFFCURVE",
"289 -170 OFFCURVE",
"49 -192 CURVE",
"90 -482 LINE"
);
}
);
width = 912;
}
);
unicode = 004A;
},
{
color = 5;
glyphname = K;
lastChange = "2015-04-02 21:55:39 +0000";
layers = (
{
anchors = (
{
name = bottom;
position = "{594, 0}";
},
{
name = top;
position = "{594, 1434}";
}
);
background = {
paths = (
{
closed = 1;
nodes = (
"989 1480 LINE",
"1169 1454 LINE",
"524 732 LINE",
"524 963 LINE"
);
}
);
};
layerId = "90678D68-BBCC-4545-9AE9-72D37A9CD052";
name = Regular;
paths = (
{
closed = 1;
nodes = (
"1169 1459.34 LINE",
"984 1484 LINE",
"459 847 LINE",
"414 793 OFFCURVE",
"370 738 OFFCURVE",
"325 684 CURVE",
"338 443 LINE"
);
},
{
closed = 1;
nodes = (
"356 0 LINE",
"356 1434 LINE SMOOTH",
"188 1434 LINE",
"188 0 LINE"
);
},
{
closed = 1;
nodes = (
"1179 0 LINE",
"701 925 LINE",
"568 789 LINE",
"978 0 LINE"
);
}
);
width = 1188;
},
{
anchors = (
{
name = bottom;
position = "{540, 0}";
},
{
name = top;
position = "{540, 1434}";
}
);
background = {
paths = (
{
closed = 1;
nodes = (
"922 0 LINE",
"311 686 LINE SMOOTH",
"300 699 OFFCURVE",
"292 710 OFFCURVE",
"287 719 CURVE",
"283 719 LINE",
"283 0 LINE",
"184 0 LINE",
"184 1434 LINE",
"283 1434 LINE",
"283 758 LINE",
"287 758 LINE",
"295 772 OFFCURVE",
"304 784 OFFCURVE",
"313 793 CURVE",
"893 1434 LINE",
"1022 1434 LINE",
"393 739 LINE",
"1061 0 LINE"
);
}
);
};
layerId = "4CDE908C-C807-45B0-BC73-FFDEB9F34183";
name = Light;
paths = (
{
closed = 1;
nodes = (
"1036 1459 LINE",
"921 1474 LINE",
"369 795 LINE",
"333 751 OFFCURVE",
"298 708 OFFCURVE",
"262 664 CURVE",
"205 443 LINE"
);
},
{
closed = 1;
nodes = (
"283 0 LINE",
"283 1434 LINE SMOOTH",
"185 1434 LINE",
"185 0 LINE"
);
},
{
closed = 1;
nodes = (
"1057 0 LINE",
"549 905 LINE",
"459 841 LINE",
"936 0 LINE"
);
}
);
width = 1079;
},
{
anchors = (
{
name = bottom;
position = "{665, 0}";
},
{
name = top;
position = "{665, 1434}";
}
);
background = {
paths = (
{
closed = 1;
nodes = (
"1356 0 LINE",
"948 0 LINE",
"530 623 LINE SMOOTH",
"522 635 OFFCURVE",
"509 661 OFFCURVE",
"492 702 CURVE",
"487 702 LINE",
"487 0 LINE",
"164 0 LINE",
"164 1434 LINE",
"487 1434 LINE",
"487 756 LINE",
"492 756 LINE",
"500 775 OFFCURVE",
"513 801 OFFCURVE",
"532 836 CURVE",
"928 1434 LINE",
"1313 1434 LINE",
"813 750 LINE"
);
}
);
};
layerId = "7FD739B0-27A2-4428-8CD0-260441CCC696";
name = Bold;
paths = (
{
closed = 1;
nodes = (
"1321 1459 LINE",
"976 1484 LINE",
"559 966 LINE SMOOTH",
"513 909 OFFCURVE",
"487 865 OFFCURVE",
"460 786 CURVE",
"461 419 LINE"
);
},
{
closed = 1;
nodes = (
"478 0 LINE",
"478 1434 LINE SMOOTH",
"164 1434 LINE",
"164 0 LINE"
);
},
{
closed = 1;
nodes = (
"1341 0 LINE",
"853 925 LINE",
"600 759 LINE",
"970 0 LINE"
);
}
);
width = 1329;
}
);
unicode = 004B;
},
{
glyphname = L;
lastChange = "2015-04-03 21:16:47 +0000";
layers = (
{
anchors = (
{
name = bottom;
position = "{482, 0}";
},
{
name = center;
position = "{482, 717}";
},
{
name = top;
position = "{272, 1344}";
},
{
name = topright;
position = "{944, 1434}";
}
);
layerId = "90678D68-BBCC-4545-9AE9-72D37A9CD052";
name = Regular;
paths = (
{
closed = 1;
nodes = (
"932 0 LINE",
"932 152 LINE",
"356 152 LINE",
"356 1434 LINE",
"188 1434 LINE",
"188 0 LINE"
);
}
);
width = 964;
},
{
anchors = (
{
name = bottom;
position = "{469, 0}";
},
{
name = center;
position = "{469, 717}";
},
{
name = top;
position = "{229, 1364}";
},
{
name = topright;
position = "{918, 1434}";
}
);
background = {
paths = (
{
closed = 1;
nodes = (
"184 0 LINE",
"184 1434 LINE",
"283 1434 LINE",
"283 90 LINE",
"858 90 LINE",
"858 0 LINE"
);
}
);
};
layerId = "4CDE908C-C807-45B0-BC73-FFDEB9F34183";
name = Light;
paths = (
{
closed = 1;
nodes = (
"858 0 LINE",
"858 90 LINE",
"283 90 LINE",
"283 1434 LINE",
"184 1434 LINE",
"184 0 LINE"
);
}
);
width = 938;
},
{
anchors = (
{
name = bottom;
position = "{524, 0}";
},
{
name = center;
position = "{534, 717}";
},
{
name = top;
position = "{324, 1384}";
},
{
name = topright;
position = "{1027, 1434}";
}
);
background = {
paths = (
{
closed = 1;
nodes = (
"1018 0 LINE",
"1018 262 LINE",
"487 262 LINE",
"487 1434 LINE",
"164 1434 LINE",
"164 0 LINE"
);
}
);
};
layerId = "7FD739B0-27A2-4428-8CD0-260441CCC696";
name = Bold;
paths = (
{
closed = 1;
nodes = (
"1018 0 LINE",
"1018 292 LINE",
"478 292 LINE",
"478 1434 LINE",
"164 1434 LINE",
"164 0 LINE"
);
}
);
width = 1047;
}
);
unicode = 004C;
},
{
glyphname = Ldot;
lastChange = "2015-04-03 21:17:37 +0000";
layers = (
{
background = {
paths = (
{
closed = 1;
nodes = (
"184 0 LINE",
"184 1434 LINE",
"283 1434 LINE",
"283 90 LINE",
"858 90 LINE",
"858 0 LINE"
);
},
{
closed = 1;
nodes = (
"610 625 OFFCURVE",
"575 662 OFFCURVE",
"575 707 CURVE SMOOTH",
"575 752 OFFCURVE",
"610 786 OFFCURVE",
"655 786 CURVE SMOOTH",
"700 786 OFFCURVE",
"737 752 OFFCURVE",
"737 707 CURVE SMOOTH",
"737 662 OFFCURVE",
"700 625 OFFCURVE",
"655 625 CURVE SMOOTH"
);
}
);
};
components = (
{
name = L;
},
{
name = periodcentered;
transform = "{1, 0, 0, 1, 432, 0}";
}
);
layerId = "4CDE908C-C807-45B0-BC73-FFDEB9F34183";
name = Light;
width = 938;
},
{
background = {
paths = (
{
closed = 1;
nodes = (
"932 0 LINE",
"188 0 LINE",
"188 1434 LINE",
"356 1434 LINE",
"356 152 LINE",
"932 152 LINE"
);
},
{
closed = 1;
nodes = (
"683 666 OFFCURVE",
"637 709 OFFCURVE",
"637 765 CURVE SMOOTH",
"637 818 OFFCURVE",
"681 861 OFFCURVE",
"736 861 CURVE SMOOTH",
"791 861 OFFCURVE",
"834 820 OFFCURVE",
"834 765 CURVE SMOOTH",
"834 710 OFFCURVE",
"791 666 OFFCURVE",
"736 666 CURVE SMOOTH"
);
}
);
};
components = (
{
name = L;
},
{
name = periodcentered;
transform = "{1, 0, 0, 1, 498, 131}";
}
);
layerId = "90678D68-BBCC-4545-9AE9-72D37A9CD052";
name = Regular;
width = 964;
},
{
background = {
paths = (
{
closed = 1;
nodes = (
"1018 0 LINE",
"164 0 LINE",
"164 1434 LINE",
"487 1434 LINE",
"487 262 LINE",
"1018 262 LINE"
);
},
{
closed = 1;
nodes = (
"738 651 OFFCURVE",
"673 712 OFFCURVE",
"673 788 CURVE SMOOTH",
"673 868 OFFCURVE",
"739 923 OFFCURVE",
"827 923 CURVE SMOOTH",
"916 923 OFFCURVE",
"979 867 OFFCURVE",
"979 788 CURVE SMOOTH",
"979 709 OFFCURVE",
"916 651 OFFCURVE",
"827 651 CURVE SMOOTH"
);
}
);
};
components = (
{
name = L;
},
{
name = periodcentered;
transform = "{1, 0, 0, 1, 547, 246}";
}
);
layerId = "7FD739B0-27A2-4428-8CD0-260441CCC696";
name = Bold;
width = 1047;
}
);
unicode = 013F;
},
{
glyphname = Lslash;
lastChange = "2015-03-22 23:51:12 +0000";
layers = (
{
components = (
{
name = L;
}
);
layerId = "4CDE908C-C807-45B0-BC73-FFDEB9F34183";
name = Light;
paths = (
{
closed = 1;
nodes = (
"649 852 LINE",
"649 948 LINE",
"70 596 LINE",
"70 500 LINE"
);
}
);
width = 938;
},
{
components = (
{
name = L;
}
);
layerId = "90678D68-BBCC-4545-9AE9-72D37A9CD052";
name = Regular;
paths = (
{
closed = 1;
nodes = (
"684 852 LINE",
"684 1006 LINE",
"33 602 LINE",
"33 450 LINE"
);
}
);
width = 964;
},
{
components = (
{
name = L;
}
);
layerId = "7FD739B0-27A2-4428-8CD0-260441CCC696";
name = Bold;
paths = (
{
closed = 1;
nodes = (
"770 772 LINE",
"770 1034 LINE",
"2 645 LINE",
"2 381 LINE"
);
}
);
width = 1047;
}
);
unicode = 0141;
},
{
glyphname = M;
lastChange = "2015-04-02 21:55:02 +0000";
layers = (
{
anchors = (
{
name = bottom;
position = "{920, 0}";
},
{
name = top;
position = "{920, 1434}";
}
);
background = {
paths = (
{
closed = 1;
nodes = (
"1650 0 LINE",
"1483 0 LINE",
"1483 962 LINE SMOOTH",
"1483 1038 OFFCURVE",
"1488 1131 OFFCURVE",
"1497 1241 CURVE",
"1493 1241 LINE",
"1477 1176 OFFCURVE",
"1463 1130 OFFCURVE",
"1450 1102 CURVE SMOOTH",
"960 0 LINE",
"878 0 LINE",
"389 1094 LINE SMOOTH",
"375 1126 OFFCURVE",
"361 1175 OFFCURVE",
"346 1241 CURVE",
"342 1241 LINE",
"347 1184 OFFCURVE",
"350 1090 OFFCURVE",
"350 960 CURVE SMOOTH",
"350 0 LINE",
"188 0 LINE",
"188 1434 LINE",
"410 1434 LINE",
"850 434 LINE SMOOTH",
"884 357 OFFCURVE",
"906 300 OFFCURVE",
"916 262 CURVE",
"922 262 LINE",
"951 341 OFFCURVE",
"974 399 OFFCURVE",
"991 438 CURVE SMOOTH",
"1440 1434 LINE",
"1650 1434 LINE"
);
}
);
};
layerId = "90678D68-BBCC-4545-9AE9-72D37A9CD052";
name = Regular;
paths = (
{
closed = 1;
nodes = (
"347 0 LINE",
"347 902 LINE SMOOTH",
"347 981 OFFCURVE",
"347 1151 OFFCURVE",
"342 1214 CURVE",
"346 1214 LINE",
"356 1170 OFFCURVE",
"368 1135 OFFCURVE",
"388 1096 CURVE SMOOTH",
"877 0 LINE",
"959 0 LINE",
"1449 1104 LINE SMOOTH",
"1467 1148 OFFCURVE",
"1480 1181 OFFCURVE",
"1493 1233 CURVE",
"1497 1233 LINE",
"1488 1139 OFFCURVE",
"1486 1014 OFFCURVE",
"1486 923 CURVE SMOOTH",
"1486 0 LINE",
"1650 0 LINE",
"1650 1434 LINE",
"1440 1434 LINE",
"991 443 LINE SMOOTH",
"971 399 OFFCURVE",
"941 311 OFFCURVE",
"922 259 CURVE",
"916 259 LINE",
"905 303 OFFCURVE",
"868 399 OFFCURVE",
"850 441 CURVE SMOOTH",
"410 1434 LINE",
"188 1434 LINE",
"188 0 LINE"
);
}
);
width = 1839;
},
{
anchors = (
{
name = bottom;
position = "{853, 0}";
},
{
name = top;
position = "{853, 1434}";
}
);
background = {
paths = (
{
closed = 1;
nodes = (
"1427 0 LINE",
"1427 1018 LINE SMOOTH",
"1427 1043 OFFCURVE",
"1431 1113 OFFCURVE",
"1438 1229 CURVE",
"1434 1229 LINE",
"1413 1175 OFFCURVE",
"1396 1133 OFFCURVE",
"1382 1104 CURVE SMOOTH",
"872 0 LINE",
"840 0 LINE",
"328 1098 LINE SMOOTH",
"311 1133 OFFCURVE",
"296 1178 OFFCURVE",
"281 1233 CURVE",
"276 1233 LINE",
"281 1169 OFFCURVE",
"283 1105 OFFCURVE",
"283 1042 CURVE SMOOTH",
"283 0 LINE",
"184 0 LINE",
"184 1434 LINE",
"276 1434 LINE",
"811 279 LINE SMOOTH",
"814 272 OFFCURVE",
"818 263 OFFCURVE",
"822 252 CURVE SMOOTH",
"826 241 OFFCURVE",
"830 229 OFFCURVE",
"835 218 CURVE",
"842 201 OFFCURVE",
"849 181 OFFCURVE",
"856 160 CURVE",
"862 160 LINE",
"873 192 LINE SMOOTH",
"874 195 OFFCURVE",
"885 226 OFFCURVE",
"907 287 CURVE",
"1434 1434 LINE",
"1522 1434 LINE",
"1522 0 LINE"
);
}
);
};
layerId = "4CDE908C-C807-45B0-BC73-FFDEB9F34183";
name = Light;
paths = (
{
closed = 1;
nodes = (
"283 0 LINE",
"283 962 LINE SMOOTH",
"283 1044 OFFCURVE",
"283 1175 OFFCURVE",
"278 1234 CURVE",
"282 1234 LINE",
"287 1207 OFFCURVE",
"295 1175 OFFCURVE",
"304 1151 CURVE SMOOTH",
"840 0 LINE",
"872 0 LINE",
"1390 1119 LINE SMOOTH",
"1401 1143 OFFCURVE",
"1422 1190 OFFCURVE",
"1434 1229 CURVE",
"1438 1229 LINE",
"1429 1122 OFFCURVE",
"1427 1055 OFFCURVE",
"1427 983 CURVE SMOOTH",
"1427 0 LINE",
"1522 0 LINE",
"1522 1434 LINE",
"1434 1434 LINE",
"898 268 LINE SMOOTH",
"885 239 OFFCURVE",
"870 186 OFFCURVE",
"862 160 CURVE",
"856 160 LINE",
"848 179 OFFCURVE",
"835 228 OFFCURVE",
"815 268 CURVE SMOOTH",
"275 1434 LINE",
"184 1434 LINE",
"184 0 LINE"
);
}
);
width = 1706;
},
{
anchors = (
{
name = bottom;
position = "{980, 0}";
},
{
name = top;
position = "{980, 1434}";
}
);
background = {
paths = (
{
closed = 1;
nodes = (
"1798 0 LINE",
"1479 0 LINE",
"1479 858 LINE SMOOTH",
"1479 951 OFFCURVE",
"1483 1053 OFFCURVE",
"1491 1165 CURVE",
"1483 1165 LINE",
"1466 1077 OFFCURVE",
"1451 1014 OFFCURVE",
"1438 975 CURVE SMOOTH",
"1102 0 LINE",
"838 0 LINE",
"496 965 LINE SMOOTH",
"487 991 OFFCURVE",
"472 1058 OFFCURVE",
"451 1165 CURVE",
"442 1165 LINE",
"451 1024 OFFCURVE",
"455 900 OFFCURVE",
"455 793 CURVE SMOOTH",
"455 0 LINE",
"164 0 LINE",
"164 1434 LINE",
"637 1434 LINE",
"930 584 LINE SMOOTH",
"953 516 OFFCURVE",
"970 448 OFFCURVE",
"981 379 CURVE",
"987 379 LINE",
"1005 458 OFFCURVE",
"1024 527 OFFCURVE",
"1044 586 CURVE SMOOTH",
"1337 1434 LINE",
"1798 1434 LINE"
);
}
);
};
guideLines = (
{
position = "{982, 1015}";
}
);
layerId = "7FD739B0-27A2-4428-8CD0-260441CCC696";
name = Bold;
paths = (
{
closed = 1;
nodes = (
"445 0 LINE",
"445 832 LINE SMOOTH",
"445 932 OFFCURVE",
"445 1111 OFFCURVE",
"440 1164 CURVE",
"444 1164 LINE",
"454 1099 OFFCURVE",
"464 1047 OFFCURVE",
"473 1023 CURVE SMOOTH",
"837 0 LINE",
"1102 0 LINE",
"1459 1024 LINE SMOOTH",
"1476 1074 OFFCURVE",
"1483 1113 OFFCURVE",
"1493 1173 CURVE",
"1497 1173 LINE",
"1496 1050 OFFCURVE",
"1496 933 OFFCURVE",
"1496 833 CURVE SMOOTH",
"1496 0 LINE",
"1799 0 LINE",
"1799 1434 LINE",
"1317 1434 LINE",
"1051 663 LINE",
"1029 576 OFFCURVE",
"1007 488 OFFCURVE",
"985 401 CURVE",
"979 401 LINE",
"956 488 OFFCURVE",
"933 574 OFFCURVE",
"910 661 CURVE",
"657 1434 LINE",
"165 1434 LINE",
"165 0 LINE"
);
}
);
width = 1960;
}
);
unicode = 004D;
},
{
glyphname = N;
lastChange = "2015-04-03 19:24:12 +0000";
layers = (
{
anchors = (
{
name = bottom;
position = "{766, 0}";
},
{
name = top;
position = "{766, 1354}";
}
);
layerId = "90678D68-BBCC-4545-9AE9-72D37A9CD052";
name = Regular;
paths = (
{
closed = 1;
nodes = (
"354 0 LINE",
"354 1037 LINE SMOOTH",
"354 1101 OFFCURVE",
"352 1224 OFFCURVE",
"346 1255 CURVE",
"352 1255 LINE",
"363 1226 OFFCURVE",
"387 1171 OFFCURVE",
"404 1145 CURVE SMOOTH",
"1139 0 LINE",
"1345 0 LINE",
"1344 1434 LINE",
"1178 1434 LINE",
"1178 424 LINE SMOOTH",
"1178 351 OFFCURVE",
"1182 246 OFFCURVE",
"1189 194 CURVE",
"1185 194 LINE",
"1178 210 OFFCURVE",
"1142 281 OFFCURVE",
"1124 310 CURVE SMOOTH",
"406 1435 LINE",
"188 1435 LINE",
"188 0 LINE"
);
}
);
width = 1532;
},
{
anchors = (
{
name = bottom;
position = "{726, 0}";
},
{
name = top;
position = "{726, 1374}";
}
);
background = {
paths = (
{
closed = 1;
nodes = (
"1198 0 LINE",
"344 1159 LINE SMOOTH",
"327 1182 OFFCURVE",
"311 1206 OFFCURVE",
"298 1229 CURVE",
"285 1249 LINE",
"281 1249 LINE",
"282 1232 OFFCURVE",
"283 1211 OFFCURVE",
"283 1186 CURVE SMOOTH",
"283 0 LINE",
"184 0 LINE",
"184 1434 LINE",
"260 1434 LINE",
"1108 285 LINE SMOOTH",
"1127 260 OFFCURVE",
"1147 229 OFFCURVE",
"1169 193 CURVE",
"1174 193 LINE",
"1171 240 OFFCURVE",
"1169 280 OFFCURVE",
"1169 313 CURVE SMOOTH",
"1169 1434 LINE",
"1268 1434 LINE",
"1268 0 LINE"
);
}
);
};
layerId = "4CDE908C-C807-45B0-BC73-FFDEB9F34183";
name = Light;
paths = (
{
closed = 1;
nodes = (
"284 0 LINE",
"284 1057 LINE SMOOTH",
"284 1121 OFFCURVE",
"282 1244 OFFCURVE",
"276 1275 CURVE",
"282 1275 LINE",
"293 1246 OFFCURVE",
"315 1191 OFFCURVE",
"334 1165 CURVE SMOOTH",
"1190 0 LINE",
"1268 0 LINE",
"1267 1434 LINE",
"1169 1434 LINE",
"1169 394 LINE SMOOTH",
"1169 321 OFFCURVE",
"1173 216 OFFCURVE",
"1180 164 CURVE",
"1176 164 LINE",
"1169 180 OFFCURVE",
"1136 251 OFFCURVE",
"1115 280 CURVE SMOOTH",
"258 1435 LINE",
"184 1435 LINE",
"184 0 LINE"
);
}
);
width = 1452;
},
{
anchors = (
{
name = bottom;
position = "{809, 0}";
},
{
name = top;
position = "{809, 1384}";
}
);
background = {
paths = (
{
closed = 1;
nodes = (
"1454 0 LINE",
"1128 0 LINE",
"537 901 LINE SMOOTH",
"502 954 OFFCURVE",
"478 993 OFFCURVE",
"465 1020 CURVE",
"461 1020 LINE",
"466 969 OFFCURVE",
"469 892 OFFCURVE",
"469 788 CURVE SMOOTH",
"469 0 LINE",
"164 0 LINE",
"164 1434 LINE",
"512 1434 LINE",
"1081 561 LINE SMOOTH",
"1107 522 OFFCURVE",
"1131 483 OFFCURVE",
"1153 444 CURVE",
"1157 444 LINE",
"1152 477 OFFCURVE",
"1149 543 OFFCURVE",
"1149 641 CURVE SMOOTH",
"1149 1434 LINE",
"1454 1434 LINE"
);
}
);
};
layerId = "7FD739B0-27A2-4428-8CD0-260441CCC696";
name = Bold;
paths = (
{
closed = 1;
nodes = (
"459 0 LINE",
"459 787 LINE SMOOTH",
"459 851 OFFCURVE",
"457 974 OFFCURVE",
"451 1005 CURVE",
"457 1005 LINE",
"468 976 OFFCURVE",
"493 919 OFFCURVE",
"509 895 CURVE SMOOTH",
"1110 0 LINE",
"1454 0 LINE",
"1453 1434 LINE",
"1159 1434 LINE",
"1159 684 LINE SMOOTH",
"1159 611 OFFCURVE",
"1163 506 OFFCURVE",
"1170 454 CURVE",
"1166 454 LINE",
"1159 470 OFFCURVE",
"1124 543 OFFCURVE",
"1105 570 CURVE SMOOTH",
"521 1435 LINE",
"164 1435 LINE",
"164 0 LINE"
);
}
);
width = 1618;
}
);
unicode = 004E;
},
{
glyphname = Eng;
lastChange = "2015-04-09 21:56:32 +0000";
layers = (
{
layerId = "4CDE908C-C807-45B0-BC73-FFDEB9F34183";
name = Light;
paths = (
{
closed = 1;
nodes = (
"284 0 LINE",
"284 1057 LINE SMOOTH",
"284 1121 OFFCURVE",
"282 1244 OFFCURVE",
"276 1275 CURVE",
"282 1275 LINE",
"293 1246 OFFCURVE",
"315 1191 OFFCURVE",
"334 1165 CURVE SMOOTH",
"1190 0 LINE",
"1268 0 LINE",
"1267 1434 LINE",
"1169 1434 LINE",
"1169 394 LINE SMOOTH",
"1169 321 OFFCURVE",
"1173 216 OFFCURVE",
"1180 164 CURVE",
"1176 164 LINE",
"1169 180 OFFCURVE",
"1136 251 OFFCURVE",
"1115 280 CURVE SMOOTH",
"258 1435 LINE",
"184 1435 LINE",
"184 0 LINE"
);
},
{
closed = 1;
nodes = (
"1082 -467 OFFCURVE",
"1268 -338 OFFCURVE",
"1268 20 CURVE SMOOTH",
"1268 74 LINE",
"1173 58 LINE",
"1174 -226 OFFCURVE",
"1106 -360 OFFCURVE",
"826 -402 CURVE",
"837 -482 LINE"
);
}
);
width = 1444;
},
{
layerId = "90678D68-BBCC-4545-9AE9-72D37A9CD052";
name = Regular;
paths = (
{
closed = 1;
nodes = (
"354 0 LINE",
"354 1037 LINE SMOOTH",
"354 1101 OFFCURVE",
"352 1224 OFFCURVE",
"346 1255 CURVE",
"352 1255 LINE",
"363 1226 OFFCURVE",
"386 1171 OFFCURVE",
"404 1145 CURVE SMOOTH",
"1181 0 LINE",
"1345 0 LINE",
"1344 1434 LINE",
"1178 1434 LINE",
"1178 484 LINE SMOOTH",
"1178 411 OFFCURVE",
"1182 306 OFFCURVE",
"1189 254 CURVE",
"1185 254 LINE",
"1178 270 OFFCURVE",
"1143 341 OFFCURVE",
"1124 370 CURVE SMOOTH",
"406 1435 LINE",
"188 1435 LINE",
"188 0 LINE"
);
},
{
closed = 1;
nodes = (
"1141 -468 OFFCURVE",
"1345 -343 OFFCURVE",
"1345 1 CURVE SMOOTH",
"1345 114 LINE",
"1178 58 LINE",
"1178 -185 OFFCURVE",
"1112 -287 OFFCURVE",
"856 -322 CURVE",
"877 -482 LINE"
);
}
);
width = 1532;
},
{
layerId = "7FD739B0-27A2-4428-8CD0-260441CCC696";
name = Bold;
paths = (
{
closed = 1;
nodes = (
"469 0 LINE",
"469 767 LINE SMOOTH",
"469 831 OFFCURVE",
"467 954 OFFCURVE",
"461 985 CURVE",
"467 985 LINE",
"478 956 OFFCURVE",
"502 899 OFFCURVE",
"519 875 CURVE SMOOTH",
"1139 0 LINE",
"1454 0 LINE",
"1453 1434 LINE",
"1149 1434 LINE",
"1149 744 LINE SMOOTH",
"1149 671 OFFCURVE",
"1153 566 OFFCURVE",
"1160 514 CURVE",
"1156 514 LINE",
"1149 530 OFFCURVE",
"1114 603 OFFCURVE",
"1095 630 CURVE SMOOTH",
"521 1435 LINE",
"164 1435 LINE",
"164 0 LINE"
);
},
{
closed = 1;
nodes = (
"1222 -468 OFFCURVE",
"1454 -344 OFFCURVE",
"1454 0 CURVE SMOOTH",
"1454 124 LINE",
"1137 58 LINE",
"1137 -102 OFFCURVE",
"1082 -169 OFFCURVE",
"870 -192 CURVE",
"921 -482 LINE"
);
}
);
width = 1618;
}
);
unicode = 014A;
},
{
color = 5;
glyphname = O;
lastChange = "2015-04-09 22:14:11 +0000";
layers = (
{
anchors = (
{
name = bottom;
position = "{772, 0}";
},
{
name = center;
position = "{772, 717}";
},
{
name = top;
position = "{772, 1354}";
},
{
name = topright;
position = "{1524, 1434}";
}
);
guideLines = (
{
position = "{716, 713}";
},
{
angle = 90;
position = "{763, 629}";
}
);
layerId = "90678D68-BBCC-4545-9AE9-72D37A9CD052";
name = Regular;
paths = (
{
closed = 1;
nodes = (
"1198 -25 OFFCURVE",
"1447 290 OFFCURVE",
"1447 712 CURVE",
"1450 1136 OFFCURVE",
"1198 1457 OFFCURVE",
"770 1457 CURVE SMOOTH",
"348 1457 OFFCURVE",
"92 1136 OFFCURVE",
"92 712 CURVE SMOOTH",
"92 290 OFFCURVE",
"348 -25 OFFCURVE",
"770 -25 CURVE SMOOTH"
);
},
{
closed = 1;
nodes = (
"449 135 OFFCURVE",
"276 364 OFFCURVE",
"276 712 CURVE SMOOTH",
"276 1063 OFFCURVE",
"449 1296 OFFCURVE",
"770 1296 CURVE SMOOTH",
"1089 1296 OFFCURVE",
"1260 1063 OFFCURVE",
"1260 712 CURVE",
"1261 364 OFFCURVE",
"1089 135 OFFCURVE",
"770 135 CURVE SMOOTH"
);
}
);
width = 1544;
},
{
anchors = (
{
name = bottom;
position = "{780, 0}";
},
{
name = center;
position = "{780, 717}";
},
{
name = top;
position = "{780, 1384}";
},
{
name = topright;
position = "{1539, 1434}";
}
);
background = {
paths = (
{
closed = 1;
nodes = (
"369 -25 OFFCURVE",
"109 271 OFFCURVE",
"109 702 CURVE SMOOTH",
"109 1159 OFFCURVE",
"373 1458 OFFCURVE",
"801 1458 CURVE SMOOTH",
"1188 1458 OFFCURVE",
"1450 1168 OFFCURVE",
"1450 739 CURVE SMOOTH",
"1450 264 OFFCURVE",
"1185 -25 OFFCURVE",
"774 -25 CURVE SMOOTH"
);
},
{
closed = 1;
nodes = (
"451 1368 OFFCURVE",
"211 1104 OFFCURVE",
"211 713 CURVE SMOOTH",
"211 318 OFFCURVE",
"432 66 OFFCURVE",
"772 66 CURVE SMOOTH",
"1127 66 OFFCURVE",
"1348 310 OFFCURVE",
"1348 723 CURVE SMOOTH",
"1348 1128 OFFCURVE",
"1132 1368 OFFCURVE",
"784 1368 CURVE SMOOTH"
);
}
);
};
guideLines = (
{
position = "{716, 713}";
},
{
angle = 90;
position = "{763, 629}";
}
);
layerId = "4CDE908C-C807-45B0-BC73-FFDEB9F34183";
name = Light;
paths = (
{
closed = 1;
nodes = (
"1180 -25 OFFCURVE",
"1450 268 OFFCURVE",
"1450 712 CURVE",
"1453 1161 OFFCURVE",
"1183 1457 OFFCURVE",
"770 1457 CURVE SMOOTH",
"372 1457 OFFCURVE",
"109 1161 OFFCURVE",
"109 712 CURVE SMOOTH",
"109 268 OFFCURVE",
"372 -25 OFFCURVE",
"770 -25 CURVE SMOOTH"
);
},
{
closed = 1;
nodes = (
"433 65 OFFCURVE",
"211 322 OFFCURVE",
"211 712 CURVE SMOOTH",
"211 1107 OFFCURVE",
"433 1367 OFFCURVE",
"770 1367 CURVE SMOOTH",
"1117 1367 OFFCURVE",
"1346 1107 OFFCURVE",
"1346 713 CURVE",
"1347 322 OFFCURVE",
"1118 65 OFFCURVE",
"770 65 CURVE SMOOTH"
);
}
);
width = 1559;
},
{
anchors = (
{
name = bottom;
position = "{779, 0}";
},
{
name = center;
position = "{779, 717}";
},
{
name = top;
position = "{779, 1384}";
},
{
name = topright;
position = "{1535, 1434}";
}
);
background = {
paths = (
{
closed = 1;
nodes = (
"361 -25 OFFCURVE",
"76 269 OFFCURVE",
"76 698 CURVE SMOOTH",
"76 1151 OFFCURVE",
"362 1458 OFFCURVE",
"795 1458 CURVE SMOOTH",
"1204 1458 OFFCURVE",
"1481 1166 OFFCURVE",
"1481 727 CURVE SMOOTH",
"1481 276 OFFCURVE",
"1193 -25 OFFCURVE",
"772 -25 CURVE SMOOTH"
);
},
{
closed = 1;
nodes = (
"559 1180 OFFCURVE",
"416 995 OFFCURVE",
"416 715 CURVE SMOOTH",
"416 431 OFFCURVE",
"562 254 OFFCURVE",
"778 254 CURVE SMOOTH",
"1001 254 OFFCURVE",
"1141 424 OFFCURVE",
"1141 709 CURVE SMOOTH",
"1141 1006 OFFCURVE",
"1006 1180 OFFCURVE",
"786 1180 CURVE SMOOTH"
);
}
);
};
guideLines = (
{
position = "{718, 713}";
showMeasurement = 1;
},
{
angle = 90;
position = "{765, 629}";
}
);
layerId = "7FD739B0-27A2-4428-8CD0-260441CCC696";
name = Bold;
paths = (
{
closed = 1;
nodes = (
"1198 -25 OFFCURVE",
"1479 268 OFFCURVE",
"1479 712 CURVE",
"1482 1161 OFFCURVE",
"1201 1457 OFFCURVE",
"772 1457 CURVE SMOOTH",
"351 1457 OFFCURVE",
"74 1161 OFFCURVE",
"74 712 CURVE SMOOTH",
"74 268 OFFCURVE",
"351 -25 OFFCURVE",
"772 -25 CURVE SMOOTH"
);
},
{
closed = 1;
nodes = (
"555 245 OFFCURVE",
"410 430 OFFCURVE",
"410 712 CURVE SMOOTH",
"410 998 OFFCURVE",
"555 1186 OFFCURVE",
"774 1186 CURVE SMOOTH",
"997 1186 OFFCURVE",
"1144 998 OFFCURVE",
"1144 712 CURVE",
"1145 430 OFFCURVE",
"998 245 OFFCURVE",
"774 245 CURVE SMOOTH"
);
}
);
width = 1553;
}
);
unicode = 004F;
},
{
glyphname = Oslash;
lastChange = "2015-03-22 23:54:20 +0000";
layers = (
{
components = (
{
name = O;
}
);
layerId = "4CDE908C-C807-45B0-BC73-FFDEB9F34183";
name = Light;
paths = (
{
closed = 1;
nodes = (
"1403 1440 LINE",
"1339 1493 LINE",
"84 -4 LINE",
"147 -55 LINE"
);
}
);
width = 1559;
},
{
components = (
{
name = O;
}
);
layerId = "90678D68-BBCC-4545-9AE9-72D37A9CD052";
name = Regular;
paths = (
{
closed = 1;
nodes = (
"1405 1428 LINE",
"1327 1491 LINE",
"94 14 LINE",
"172 -51 LINE"
);
}
);
width = 1544;
},
{
components = (
{
name = O;
}
);
layerId = "7FD739B0-27A2-4428-8CD0-260441CCC696";
name = Bold;
paths = (
{
closed = 1;
nodes = (
"1448 1386 LINE",
"1323 1489 LINE",
"80 43 LINE",
"205 -61 LINE"
);
}
);
width = 1553;
}
);
unicode = 00D8;
},
{
glyphname = OE;
lastChange = "2015-03-23 00:19:37 +0000";
layers = (
{
background = {
paths = (
{
closed = 1;
nodes = (
"867 -25 OFFCURVE",
"961 -17 OFFCURVE",
"1077 0 CURVE",
"1780 0 LINE",
"1780 90 LINE",
"1176 90 LINE",
"1176 678 LINE",
"1706 678 LINE",
"1706 768 LINE",
"1176 768 LINE",
"1176 1343 LINE",
"1747 1343 LINE",
"1747 1434 LINE",
"1077 1434 LINE",
"994 1450 OFFCURVE",
"905 1458 OFFCURVE",
"811 1458 CURVE SMOOTH",
"374 1458 OFFCURVE",
"109 1161 OFFCURVE",
"109 702 CURVE SMOOTH",
"109 274 OFFCURVE",
"360 -25 OFFCURVE",
"795 -25 CURVE SMOOTH"
);
},
{
closed = 1;
nodes = (
"422 66 OFFCURVE",
"211 324 OFFCURVE",
"211 713 CURVE SMOOTH",
"211 1098 OFFCURVE",
"441 1368 OFFCURVE",
"805 1368 CURVE SMOOTH",
"900 1368 OFFCURVE",
"990 1359 OFFCURVE",
"1077 1341 CURVE",
"1077 96 LINE",
"980 76 OFFCURVE",
"886 66 OFFCURVE",
"793 66 CURVE SMOOTH"
);
},
{
closed = 1;
nodes = (
"867 -25 OFFCURVE",
"961 -17 OFFCURVE",
"1077 0 CURVE",
"1780 0 LINE",
"1780 90 LINE",
"1176 90 LINE",
"1176 678 LINE",
"1706 678 LINE",
"1706 768 LINE",
"1176 768 LINE",
"1176 1343 LINE",
"1747 1343 LINE",
"1747 1434 LINE",
"1077 1434 LINE",
"994 1450 OFFCURVE",
"905 1458 OFFCURVE",
"811 1458 CURVE SMOOTH",
"374 1458 OFFCURVE",
"109 1161 OFFCURVE",
"109 702 CURVE SMOOTH",
"109 274 OFFCURVE",
"360 -25 OFFCURVE",
"795 -25 CURVE SMOOTH"
);
},
{
closed = 1;
nodes = (
"422 66 OFFCURVE",
"211 324 OFFCURVE",
"211 713 CURVE SMOOTH",
"211 1098 OFFCURVE",
"441 1368 OFFCURVE",
"805 1368 CURVE SMOOTH",
"900 1368 OFFCURVE",
"990 1359 OFFCURVE",
"1077 1341 CURVE",
"1077 96 LINE",
"980 76 OFFCURVE",
"886 66 OFFCURVE",
"793 66 CURVE SMOOTH"
);
}
);
};
components = (
{
name = E;
transform = "{1, 0, 0, 1, 893, 0}";
}
);
layerId = "4CDE908C-C807-45B0-BC73-FFDEB9F34183";
name = Light;
paths = (
{
closed = 1;
nodes = (
"905 -25 OFFCURVE",
"1025 0 OFFCURVE",
"1125 0 CURVE",
"1125 117 LINE",
"1031 84 OFFCURVE",
"910 65 OFFCURVE",
"770 65 CURVE SMOOTH",
"433 65 OFFCURVE",
"211 322 OFFCURVE",
"211 712 CURVE SMOOTH",
"211 1107 OFFCURVE",
"441 1367 OFFCURVE",
"790 1367 CURVE SMOOTH",
"922 1367 OFFCURVE",
"1036 1351 OFFCURVE",
"1125 1323 CURVE",
"1125 1434 LINE",
"1040 1434 OFFCURVE",
"917 1457 OFFCURVE",
"790 1457 CURVE SMOOTH",
"380 1457 OFFCURVE",
"109 1161 OFFCURVE",
"109 712 CURVE SMOOTH",
"109 268 OFFCURVE",
"372 -25 OFFCURVE",
"770 -25 CURVE SMOOTH"
);
}
);
width = 1935;
},
{
background = {
paths = (
{
closed = 1;
nodes = (
"1810 0 LINE",
"1090 0 LINE SMOOTH",
"1079 0 OFFCURVE",
"1033 -5 OFFCURVE",
"952 -14 CURVE SMOOTH",
"887 -21 OFFCURVE",
"826 -24 OFFCURVE",
"770 -24 CURVE SMOOTH",
"354 -24 OFFCURVE",
"94 271 OFFCURVE",
"94 700 CURVE SMOOTH",
"94 1161 OFFCURVE",
"365 1458 OFFCURVE",
"798 1458 CURVE SMOOTH",
"858 1458 OFFCURVE",
"917 1455 OFFCURVE",
"976 1448 CURVE SMOOTH",
"1051 1439 OFFCURVE",
"1089 1434 OFFCURVE",
"1090 1434 CURVE SMOOTH",
"1778 1434 LINE",
"1778 1282 LINE",
"1218 1282 LINE",
"1218 805 LINE",
"1736 805 LINE",
"1736 654 LINE",
"1218 654 LINE",
"1218 152 LINE",
"1810 152 LINE"
);
},
{
closed = 1;
nodes = (
"1050 1278 LINE",
"943 1297 OFFCURVE",
"854 1306 OFFCURVE",
"782 1306 CURVE SMOOTH",
"477 1306 OFFCURVE",
"270 1060 OFFCURVE",
"270 715 CURVE SMOOTH",
"270 371 OFFCURVE",
"473 127 OFFCURVE",
"776 127 CURVE SMOOTH",
"853 127 OFFCURVE",
"945 138 OFFCURVE",
"1050 160 CURVE"
);
}
);
};
components = (
{
name = E;
transform = "{1, 0, 0, 1, 862, 0}";
}
);
layerId = "90678D68-BBCC-4545-9AE9-72D37A9CD052";
name = Regular;
paths = (
{
closed = 1;
nodes = (
"908 -25 OFFCURVE",
"1044 0 OFFCURVE",
"1152 0 CURVE",
"1152 195 LINE",
"1065 157 OFFCURVE",
"930 135 OFFCURVE",
"750 135 CURVE SMOOTH",
"442 135 OFFCURVE",
"276 364 OFFCURVE",
"276 712 CURVE SMOOTH",
"276 1063 OFFCURVE",
"467 1296 OFFCURVE",
"820 1296 CURVE SMOOTH",
"969 1296 OFFCURVE",
"1080 1271 OFFCURVE",
"1152 1228 CURVE",
"1152 1434 LINE",
"1062 1434 OFFCURVE",
"950 1457 OFFCURVE",
"820 1457 CURVE SMOOTH",
"367 1457 OFFCURVE",
"92 1136 OFFCURVE",
"92 712 CURVE SMOOTH",
"92 290 OFFCURVE",
"340 -25 OFFCURVE",
"750 -25 CURVE SMOOTH"
);
}
);
width = 1906;
},
{
background = {
paths = (
{
closed = 1;
nodes = (
"1860 0 LINE",
"1032 0 LINE SMOOTH",
"1015 0 OFFCURVE",
"976 -4 OFFCURVE",
"915 -12 CURVE SMOOTH",
"855 -21 OFFCURVE",
"803 -25 OFFCURVE",
"758 -25 CURVE SMOOTH",
"349 -25 OFFCURVE",
"74 275 OFFCURVE",
"74 698 CURVE SMOOTH",
"74 1154 OFFCURVE",
"355 1458 OFFCURVE",
"784 1458 CURVE SMOOTH",
"826 1458 OFFCURVE",
"876 1454 OFFCURVE",
"935 1446 CURVE SMOOTH",
"994 1438 OFFCURVE",
"1031 1434 OFFCURVE",
"1044 1434 CURVE SMOOTH",
"1827 1434 LINE",
"1827 1171 LINE",
"1323 1171 LINE",
"1323 848 LINE",
"1792 848 LINE",
"1792 584 LINE",
"1323 584 LINE",
"1323 262 LINE",
"1860 262 LINE"
);
},
{
closed = 1;
nodes = (
"991 1128 LINE",
"934 1163 OFFCURVE",
"864 1180 OFFCURVE",
"782 1180 CURVE SMOOTH",
"558 1180 OFFCURVE",
"416 991 OFFCURVE",
"416 711 CURVE SMOOTH",
"416 434 OFFCURVE",
"565 254 OFFCURVE",
"778 254 CURVE SMOOTH",
"855 254 OFFCURVE",
"926 271 OFFCURVE",
"991 305 CURVE"
);
}
);
};
components = (
{
name = E;
transform = "{1, 0, 0, 1, 827, 0}";
}
);
layerId = "7FD739B0-27A2-4428-8CD0-260441CCC696";
name = Bold;
paths = (
{
closed = 1;
nodes = (
"871 -25 OFFCURVE",
"991 0 OFFCURVE",
"1077 0 CURVE",
"1077 289 LINE",
"1013 268 OFFCURVE",
"898 255 OFFCURVE",
"752 255 CURVE SMOOTH",
"551 255 OFFCURVE",
"418 436 OFFCURVE",
"418 712 CURVE SMOOTH",
"418 992 OFFCURVE",
"575 1176 OFFCURVE",
"812 1176 CURVE SMOOTH",
"931 1176 OFFCURVE",
"1025 1151 OFFCURVE",
"1077 1108 CURVE",
"1077 1434 LINE",
"999 1434 OFFCURVE",
"909 1457 OFFCURVE",
"810 1457 CURVE SMOOTH",
"365 1457 OFFCURVE",
"72 1161 OFFCURVE",
"72 712 CURVE SMOOTH",
"72 268 OFFCURVE",
"341 -25 OFFCURVE",
"750 -25 CURVE SMOOTH"
);
}
);
width = 1925;
}
);
unicode = 0152;
},
{
glyphname = P;
lastChange = "2015-04-02 21:54:06 +0000";
layers = (
{
anchors = (
{
name = bottom;
position = "{574, 0}";
},
{
name = top;
position = "{574, 1434}";
}
);
layerId = "90678D68-BBCC-4545-9AE9-72D37A9CD052";
name = Regular;
paths = (
{
closed = 1;
nodes = (
"358 0 LINE",
"358 542 LINE",
"545 542 LINE SMOOTH",
"848 542 OFFCURVE",
"1066 718 OFFCURVE",
"1066 1006 CURVE SMOOTH",
"1066 1286 OFFCURVE",
"881 1434 OFFCURVE",
"584 1434 CURVE SMOOTH",
"190 1434 LINE",
"190 0 LINE"
);
},
{
closed = 1;
nodes = (
"357 1281 LINE",
"555 1282 LINE SMOOTH",
"767 1282 OFFCURVE",
"891 1199 OFFCURVE",
"891 997.999 CURVE SMOOTH",
"891 792 OFFCURVE",
"751 693 OFFCURVE",
"533 693 CURVE SMOOTH",
"357 693 LINE"
);
}
);
width = 1147;
},
{
anchors = (
{
name = bottom;
position = "{557, 0}";
},
{
name = top;
position = "{557, 1434}";
}
);
background = {
paths = (
{
closed = 1;
nodes = (
"283 575 LINE",
"283 0 LINE",
"184 0 LINE",
"184 1434 LINE",
"530 1434 LINE SMOOTH",
"825 1434 OFFCURVE",
"985 1295 OFFCURVE",
"985 1032 CURVE SMOOTH",
"985 765 OFFCURVE",
"802 575 OFFCURVE",
"489 575 CURVE SMOOTH"
);
},
{
closed = 1;
nodes = (
"283 1343 LINE",
"283 666 LINE",
"487 666 LINE SMOOTH",
"746 666 OFFCURVE",
"883 795 OFFCURVE",
"883 1020 CURVE SMOOTH",
"883 1235 OFFCURVE",
"759 1343 OFFCURVE",
"512 1343 CURVE SMOOTH"
);
}
);
};
layerId = "4CDE908C-C807-45B0-BC73-FFDEB9F34183";
name = Light;
paths = (
{
closed = 1;
nodes = (
"283 0 LINE",
"283 576 LINE",
"539 576 LINE SMOOTH",
"798 576 OFFCURVE",
"985 739 OFFCURVE",
"985 1006 CURVE SMOOTH",
"985 1286 OFFCURVE",
"829 1434 OFFCURVE",
"578 1434 CURVE SMOOTH",
"184 1434 LINE",
"184 0 LINE"
);
},
{
closed = 1;
nodes = (
"282 1344 LINE",
"549 1345 LINE SMOOTH",
"761 1346 OFFCURVE",
"885 1244 OFFCURVE",
"885 998 CURVE SMOOTH",
"885 774 OFFCURVE",
"745 666 OFFCURVE",
"527 666 CURVE SMOOTH",
"282 666 LINE"
);
}
);
width = 1114;
},
{
anchors = (
{
name = bottom;
position = "{629, 0}";
},
{
name = top;
position = "{629, 1434}";
}
);
background = {
paths = (
{
closed = 1;
nodes = (
"487 494 LINE",
"487 0 LINE",
"164 0 LINE",
"164 1434 LINE",
"670 1434 LINE SMOOTH",
"1031 1434 OFFCURVE",
"1212 1282 OFFCURVE",
"1212 977 CURVE SMOOTH",
"1212 689 OFFCURVE",
"988 494 OFFCURVE",
"641 494 CURVE SMOOTH"
);
},
{
closed = 1;
nodes = (
"487 1186 LINE",
"487 739 LINE",
"614 739 LINE SMOOTH",
"786 739 OFFCURVE",
"872 814 OFFCURVE",
"872 965 CURVE SMOOTH",
"872 1112 OFFCURVE",
"786 1186 OFFCURVE",
"614 1186 CURVE SMOOTH"
);
}
);
};
layerId = "7FD739B0-27A2-4428-8CD0-260441CCC696";
name = Bold;
paths = (
{
closed = 1;
nodes = (
"477 0 LINE",
"477 494 LINE",
"684 494 LINE SMOOTH",
"991 494 OFFCURVE",
"1212 670 OFFCURVE",
"1212 959 CURVE SMOOTH",
"1212 1270 OFFCURVE",
"1020 1434 OFFCURVE",
"713 1434 CURVE SMOOTH",
"164 1434 LINE",
"164 0 LINE"
);
},
{
closed = 1;
nodes = (
"476 1186 LINE",
"694 1187 LINE SMOOTH",
"811 1187 OFFCURVE",
"880 1118 OFFCURVE",
"880 951 CURVE SMOOTH",
"880 808 OFFCURVE",
"799 739 OFFCURVE",
"672 739 CURVE SMOOTH",
"476 739 LINE"
);
}
);
width = 1258;
}
);
unicode = 0050;
},
{
glyphname = Thorn;
lastChange = "2015-04-02 21:53:50 +0000";
layers = (
{
anchors = (
{
name = bottom;
position = "{557, 0}";
},
{
name = top;
position = "{557, 1434}";
}
);
layerId = "4CDE908C-C807-45B0-BC73-FFDEB9F34183";
name = Light;
paths = (
{
closed = 1;
nodes = (
"283 0 LINE",
"283 296 LINE",
"539 296 LINE SMOOTH",
"798 296 OFFCURVE",
"985 459 OFFCURVE",
"985 726 CURVE SMOOTH",
"985 1006 OFFCURVE",
"829 1154 OFFCURVE",
"578 1154 CURVE SMOOTH",
"184 1154 LINE",
"184 0 LINE"
);
},
{
closed = 1;
nodes = (
"282 1064 LINE",
"549 1065 LINE SMOOTH",
"761 1066 OFFCURVE",
"885 964 OFFCURVE",
"885 718 CURVE SMOOTH",
"885 494 OFFCURVE",
"745 386 OFFCURVE",
"527 386 CURVE SMOOTH",
"282 386 LINE"
);
},
{
closed = 1;
nodes = (
"282 958 LINE",
"282 1434 LINE",
"184 1434 LINE",
"184 958 LINE"
);
}
);
width = 1114;
},
{
anchors = (
{
name = bottom;
position = "{574, 0}";
},
{
name = top;
position = "{574, 1434}";
}
);
background = {
paths = (
{
closed = 1;
nodes = (
"283 0 LINE",
"283 326 LINE",
"539 326 LINE SMOOTH",
"798 326 OFFCURVE",
"985 489 OFFCURVE",
"985 756 CURVE SMOOTH",
"985 1036 OFFCURVE",
"829 1184 OFFCURVE",
"578 1184 CURVE SMOOTH",
"184 1184 LINE",
"184 0 LINE"
);
},
{
closed = 1;
nodes = (
"282 1094 LINE",
"549 1095 LINE SMOOTH",
"761 1096 OFFCURVE",
"885 994 OFFCURVE",
"885 748 CURVE SMOOTH",
"885 524 OFFCURVE",
"745 416 OFFCURVE",
"527 416 CURVE SMOOTH",
"282 416 LINE"
);
},
{
closed = 1;
nodes = (
"184 988 LINE",
"282 988 LINE",
"282 1434 LINE",
"184 1434 LINE"
);
}
);
};
layerId = "90678D68-BBCC-4545-9AE9-72D37A9CD052";
name = Regular;
paths = (
{
closed = 1;
nodes = (
"358 0 LINE",
"358 292 LINE",
"545 292 LINE SMOOTH",
"848 292 OFFCURVE",
"1066 468 OFFCURVE",
"1066 756 CURVE SMOOTH",
"1066 1036 OFFCURVE",
"881 1184 OFFCURVE",
"584 1184 CURVE SMOOTH",
"190 1184 LINE",
"190 0 LINE"
);
},
{
closed = 1;
nodes = (
"357 1031 LINE",
"555 1032 LINE SMOOTH",
"767 1032 OFFCURVE",
"891 949 OFFCURVE",
"891 748 CURVE SMOOTH",
"891 542 OFFCURVE",
"751 443 OFFCURVE",
"533 443 CURVE SMOOTH",
"357 443 LINE"
);
},
{
closed = 1;
nodes = (
"357 787 LINE",
"357 1434 LINE",
"190 1434 LINE",
"190 787 LINE"
);
}
);
width = 1147;
},
{
anchors = (
{
name = bottom;
position = "{629, 0}";
},
{
name = top;
position = "{629, 1434}";
}
);
background = {
paths = (
{
closed = 1;
nodes = (
"358 0 LINE",
"358 312 LINE",
"545 312 LINE SMOOTH",
"848 312 OFFCURVE",
"1066 488 OFFCURVE",
"1066 776 CURVE SMOOTH",
"1066 1056 OFFCURVE",
"881 1204 OFFCURVE",
"584 1204 CURVE SMOOTH",
"190 1204 LINE",
"190 0 LINE"
);
},
{
closed = 1;
nodes = (
"357 1051 LINE",
"555 1052 LINE SMOOTH",
"767 1052 OFFCURVE",
"891 969 OFFCURVE",
"891 768 CURVE SMOOTH",
"891 562 OFFCURVE",
"751 463 OFFCURVE",
"533 463 CURVE SMOOTH",
"357 463 LINE"
);
},
{
closed = 1;
nodes = (
"357 807 LINE",
"357 1434 LINE",
"190 1434 LINE",
"190 807 LINE"
);
}
);
};
layerId = "7FD739B0-27A2-4428-8CD0-260441CCC696";
name = Bold;
paths = (
{
closed = 1;
nodes = (
"477 0 LINE",
"477 273 LINE",
"674 273 LINE SMOOTH",
"987 273 OFFCURVE",
"1212 449 OFFCURVE",
"1212 738 CURVE SMOOTH",
"1212 1049 OFFCURVE",
"1020 1213 OFFCURVE",
"713 1213 CURVE SMOOTH",
"164 1213 LINE",
"164 0 LINE"
);
},
{
closed = 1;
nodes = (
"476 965 LINE",
"684 966 LINE SMOOTH",
"807 966 OFFCURVE",
"880 897 OFFCURVE",
"880 730 CURVE SMOOTH",
"880 587 OFFCURVE",
"795 518 OFFCURVE",
"662 518 CURVE SMOOTH",
"476 518 LINE"
);
},
{
closed = 1;
nodes = (
"476 800 LINE",
"476 1434 LINE",
"165 1434 LINE",
"165 800 LINE"
);
}
);
width = 1258;
}
);
unicode = 00DE;
},
{
color = 5;
glyphname = Q;
lastChange = "2015-04-02 21:53:35 +0000";
layers = (
{
anchors = (
{
name = bottom;
position = "{772, 0}";
},
{
name = top;
position = "{772, 1434}";
}
);
background = {
paths = (
{
closed = 1;
nodes = (
"997.999 9 LINE",
"1268 -193 LINE",
"1573 -193 LINE",
"1170 96 LINE",
"1187 108 OFFCURVE",
"1203 121 OFFCURVE",
"1219 135 CURVE SMOOTH",
"1235 149 OFFCURVE",
"1250 164 OFFCURVE",
"1265 180 CURVE SMOOTH",
"1327 248 OFFCURVE",
"1374 328 OFFCURVE",
"1405 421 CURVE SMOOTH",
"1436 514 OFFCURVE",
"1452 619 OFFCURVE",
"1452 736 CURVE SMOOTH",
"1452 844 OFFCURVE",
"1437 942 OFFCURVE",
"1407 1029 CURVE SMOOTH",
"1377 1116 OFFCURVE",
"1331 1193 OFFCURVE",
"1270 1260 CURVE SMOOTH",
"1209 1327 OFFCURVE",
"1139 1377 OFFCURVE",
"1059 1410 CURVE SMOOTH",
"978.999 1443 OFFCURVE",
"890 1460 OFFCURVE",
"791 1460 CURVE SMOOTH",
"684 1460 OFFCURVE",
"588 1443 OFFCURVE",
"503 1409 CURVE SMOOTH",
"418 1375 OFFCURVE",
"344 1323 OFFCURVE",
"281 1254 CURVE SMOOTH",
"219 1186 OFFCURVE",
"172 1106 OFFCURVE",
"141 1014 CURVE SMOOTH",
"110 922 OFFCURVE",
"94 818 OFFCURVE",
"94 702 CURVE SMOOTH",
"94 595 OFFCURVE",
"109 498 OFFCURVE",
"140 411 CURVE SMOOTH",
"171 324 OFFCURVE",
"217 247 OFFCURVE",
"278 180 CURVE SMOOTH",
"340 113 OFFCURVE",
"412 63 OFFCURVE",
"493 29 CURVE SMOOTH",
"574 -5 OFFCURVE",
"665 -22 OFFCURVE",
"766 -22 CURVE SMOOTH",
"808 -22 OFFCURVE",
"848 -19 OFFCURVE",
"887 -14 CURVE SMOOTH",
"926 -9 OFFCURVE",
"963 -1 OFFCURVE",
"997.999 10 CURVE"
);
},
{
closed = 1;
nodes = (
"1142 1152 LINE",
"1186 1101 OFFCURVE",
"1219 1039 OFFCURVE",
"1241 966 CURVE SMOOTH",
"1263 893 OFFCURVE",
"1274 809 OFFCURVE",
"1274 714 CURVE SMOOTH",
"1274 622 OFFCURVE",
"1263 540 OFFCURVE",
"1240 468 CURVE SMOOTH",
"1217 396 OFFCURVE",
"1183 334 OFFCURVE",
"1138 283 CURVE SMOOTH",
"1093 232 OFFCURVE",
"1039 193 OFFCURVE",
"976.999 167 CURVE SMOOTH",
"915 141 OFFCURVE",
"845 128 OFFCURVE",
"766 128 CURVE SMOOTH",
"693 128 OFFCURVE",
"626 142 OFFCURVE",
"566 169 CURVE SMOOTH",
"506 196 OFFCURVE",
"453 236 OFFCURVE",
"407 289 CURVE SMOOTH",
"362 344 OFFCURVE",
"328 407 OFFCURVE",
"305 478 CURVE SMOOTH",
"282 549 OFFCURVE",
"270 629 OFFCURVE",
"270 717 CURVE SMOOTH",
"270 806 OFFCURVE",
"282 886 OFFCURVE",
"306 957 CURVE SMOOTH",
"330 1028 OFFCURVE",
"365 1091 OFFCURVE",
"412 1145 CURVE SMOOTH",
"459 1200 OFFCURVE",
"513 1241 OFFCURVE",
"574 1268 CURVE SMOOTH",
"635 1295 OFFCURVE",
"703 1309 OFFCURVE",
"778 1309 CURVE SMOOTH",
"855 1309 OFFCURVE",
"924 1296 OFFCURVE",
"984.999 1270 CURVE SMOOTH",
"1046 1244 OFFCURVE",
"1098 1205 OFFCURVE",
"1142 1153 CURVE"
);
}
);
};
components = (
{
name = O;
}
);
layerId = "90678D68-BBCC-4545-9AE9-72D37A9CD052";
name = Regular;
paths = (
{
closed = 1;
nodes = (
"1517 -203 LINE",
"1325 -159 OFFCURVE",
"1165 -34 OFFCURVE",
"1077 140 CURVE",
"932 20 LINE",
"1043 -170 OFFCURVE",
"1223 -309 OFFCURVE",
"1426 -361 CURVE"
);
}
);
width = 1544;
},
{
anchors = (
{
name = bottom;
position = "{772, 0}";
},
{
name = top;
position = "{772, 1434}";
}
);
background = {
paths = (
{
closed = 1;
nodes = (
"369 -25 OFFCURVE",
"109 271 OFFCURVE",
"109 702 CURVE SMOOTH",
"109 1159 OFFCURVE",
"373 1458 OFFCURVE",
"801 1458 CURVE SMOOTH",
"1188 1458 OFFCURVE",
"1450 1168 OFFCURVE",
"1450 739 CURVE SMOOTH",
"1450 502 OFFCURVE",
"1389 315 OFFCURVE",
"1266 179 CURVE SMOOTH",
"1228 136 OFFCURVE",
"1186 101 OFFCURVE",
"1139 72 CURVE",
"1487 -193 LINE",
"1320 -193 LINE",
"1049 25 LINE",
"968 -8 OFFCURVE",
"876 -25 OFFCURVE",
"774 -25 CURVE SMOOTH"
);
},
{
closed = 1;
nodes = (
"451 1368 OFFCURVE",
"211 1104 OFFCURVE",
"211 713 CURVE SMOOTH",
"211 318 OFFCURVE",
"432 66 OFFCURVE",
"772 66 CURVE SMOOTH",
"1127 66 OFFCURVE",
"1348 310 OFFCURVE",
"1348 723 CURVE SMOOTH",
"1348 1128 OFFCURVE",
"1132 1368 OFFCURVE",
"784 1368 CURVE SMOOTH"
);
}
);
};
components = (
{
name = O;
}
);
layerId = "4CDE908C-C807-45B0-BC73-FFDEB9F34183";
name = Light;
paths = (
{
closed = 1;
nodes = (
"1467 -253 LINE",
"1271 -236 OFFCURVE",
"1103 -164 OFFCURVE",
"1067 70 CURVE",
"972 20 LINE",
"1030 -230 OFFCURVE",
"1238 -336 OFFCURVE",
"1446 -341 CURVE"
);
}
);
width = 1544;
},
{
anchors = (
{
name = bottom;
position = "{777, 0}";
},
{
name = top;
position = "{777, 1434}";
}
);
background = {
paths = (
{
closed = 1;
nodes = (
"359 -25 OFFCURVE",
"74 270 OFFCURVE",
"74 698 CURVE SMOOTH",
"74 1150 OFFCURVE",
"358 1458 OFFCURVE",
"793 1458 CURVE SMOOTH",
"1202 1458 OFFCURVE",
"1479 1167 OFFCURVE",
"1479 727 CURVE SMOOTH",
"1479 502 OFFCURVE",
"1413 321 OFFCURVE",
"1282 182 CURVE SMOOTH",
"1277 177 OFFCURVE",
"1273 173 OFFCURVE",
"1269 169 CURVE",
"1265 164 OFFCURVE",
"1261 160 OFFCURVE",
"1256 156 CURVE",
"1619 -193 LINE",
"1167 -193 LINE",
"977 0 LINE",
"914 -17 OFFCURVE",
"845 -25 OFFCURVE",
"770 -25 CURVE SMOOTH"
);
},
{
closed = 1;
nodes = (
"559 1180 OFFCURVE",
"414 995 OFFCURVE",
"414 715 CURVE SMOOTH",
"414 431 OFFCURVE",
"560 254 OFFCURVE",
"776 254 CURVE SMOOTH",
"999 254 OFFCURVE",
"1139 425 OFFCURVE",
"1139 709 CURVE SMOOTH",
"1139 1005 OFFCURVE",
"1005 1180 OFFCURVE",
"784 1180 CURVE SMOOTH"
);
}
);
};
components = (
{
name = O;
}
);
layerId = "7FD739B0-27A2-4428-8CD0-260441CCC696";
name = Bold;
paths = (
{
closed = 1;
nodes = (
"1537 -123 LINE",
"1376 -71 OFFCURVE",
"1241 43 OFFCURVE",
"1167 190 CURVE",
"932 20 LINE",
"1036 -175 OFFCURVE",
"1205 -318 OFFCURVE",
"1396 -371 CURVE"
);
}
);
width = 1553;
}
);
unicode = 0051;
},
{
glyphname = R;
lastChange = "2015-04-03 19:25:57 +0000";
layers = (
{
anchors = (
{
name = bottom;
position = "{613, 0}";
},
{
name = top;
position = "{573, 1344}";
}
);
background = {
paths = (
{
closed = 1;
nodes = (
"545 612 LINE SMOOTH",
"842 612 OFFCURVE",
"1056 776 OFFCURVE",
"1056 1046 CURVE SMOOTH",
"1056 1299 OFFCURVE",
"875 1434 OFFCURVE",
"584 1434 CURVE SMOOTH",
"190 1434 LINE",
"190 0 LINE",
"358 0 LINE",
"358 612 LINE"
);
},
{
closed = 1;
nodes = (
"555 1282 LINE SMOOTH",
"761 1282 OFFCURVE",
"881 1211 OFFCURVE",
"881 1038 CURVE SMOOTH",
"881 853 OFFCURVE",
"745 763 OFFCURVE",
"533 763 CURVE SMOOTH",
"357 763 LINE",
"357 1281 LINE"
);
},
{
closed = 1;
nodes = (
"970 0 LINE",
"1186 0 LINE",
"687 751 LINE",
"557 631 LINE"
);
},
{
closed = 1;
nodes = (
"566 258 OFFCURVE",
"851 40 OFFCURVE",
"1126 -16 CURVE",
"1186 160 LINE",
"965 215 OFFCURVE",
"740 359 OFFCURVE",
"740 730 CURVE",
"566 681 LINE"
);
}
);
};
layerId = "90678D68-BBCC-4545-9AE9-72D37A9CD052";
name = Regular;
paths = (
{
closed = 1;
nodes = (
"358 0 LINE",
"358 612 LINE",
"545 612 LINE SMOOTH",
"842 612 OFFCURVE",
"1056 776 OFFCURVE",
"1056 1046 CURVE SMOOTH",
"1056 1299 OFFCURVE",
"875 1434 OFFCURVE",
"584 1434 CURVE SMOOTH",
"190 1434 LINE",
"190 0 LINE"
);
},
{
closed = 1;
nodes = (
"1186 0 LINE",
"687 751 LINE",
"557 631 LINE",
"970 0 LINE"
);
},
{
closed = 1;
nodes = (
"357 1281 LINE",
"555 1282 LINE SMOOTH",
"761 1282 OFFCURVE",
"881 1211 OFFCURVE",
"881 1038 CURVE SMOOTH",
"881 853 OFFCURVE",
"745 763 OFFCURVE",
"533 763 CURVE SMOOTH",
"357 763 LINE"
);
}
);
width = 1225;
},
{
anchors = (
{
name = bottom;
position = "{569, 0}";
},
{
name = top;
position = "{529, 1374}";
}
);
background = {
paths = (
{
closed = 1;
nodes = (
"918 0 LINE",
"727 420 LINE SMOOTH",
"648 593 OFFCURVE",
"580 639 OFFCURVE",
"461 639 CURVE SMOOTH",
"283 639 LINE",
"283 0 LINE",
"184 0 LINE",
"184 1434 LINE",
"582 1434 LINE SMOOTH",
"835 1434 OFFCURVE",
"989 1285 OFFCURVE",
"989 1061 CURVE SMOOTH",
"989 854 OFFCURVE",
"864 708 OFFCURVE",
"651 668 CURVE",
"651 664 LINE",
"708 641 OFFCURVE",
"763 572 OFFCURVE",
"817 457 CURVE SMOOTH",
"1030 0 LINE"
);
},
{
closed = 1;
nodes = (
"283 1343 LINE",
"283 729 LINE",
"530 729 LINE SMOOTH",
"749 729 OFFCURVE",
"887 851 OFFCURVE",
"887 1051 CURVE SMOOTH",
"887 1234 OFFCURVE",
"767 1343 OFFCURVE",
"551 1343 CURVE SMOOTH"
);
}
);
};
layerId = "4CDE908C-C807-45B0-BC73-FFDEB9F34183";
name = Light;
paths = (
{
closed = 1;
nodes = (
"283 0 LINE",
"283 639 LINE",
"539 639 LINE SMOOTH",
"801 639 OFFCURVE",
"989 793 OFFCURVE",
"989 1046 CURVE SMOOTH",
"989 1299 OFFCURVE",
"831 1434 OFFCURVE",
"578 1434 CURVE SMOOTH",
"184 1434 LINE",
"184 0 LINE"
);
},
{
closed = 1;
nodes = (
"1056 0 LINE",
"588 704 LINE",
"498 661 LINE",
"930 0 LINE"
);
},
{
closed = 1;
nodes = (
"282 1344 LINE",
"549 1345 LINE SMOOTH",
"762 1346 OFFCURVE",
"886 1256 OFFCURVE",
"886 1038 CURVE SMOOTH",
"886 830 OFFCURVE",
"746 729 OFFCURVE",
"527 729 CURVE SMOOTH",
"282 729 LINE"
);
}
);
width = 1137;
},
{
anchors = (
{
name = bottom;
position = "{669, 0}";
},
{
name = top;
position = "{639, 1374}";
}
);
background = {
paths = (
{
closed = 1;
nodes = (
"1367 0 LINE",
"996 0 LINE",
"773 369 LINE SMOOTH",
"740 425 OFFCURVE",
"710 469 OFFCURVE",
"679 501 CURVE SMOOTH",
"647 532 OFFCURVE",
"614 549 OFFCURVE",
"574 549 CURVE SMOOTH",
"487 549 LINE",
"487 0 LINE",
"164 0 LINE",
"164 1434 LINE",
"676 1434 LINE SMOOTH",
"1024 1434 OFFCURVE",
"1198 1304 OFFCURVE",
"1198 1044 CURVE SMOOTH",
"1198 944 OFFCURVE",
"1166 859 OFFCURVE",
"1110 791 CURVE SMOOTH",
"1054 723 OFFCURVE",
"973 673 OFFCURVE",
"876 645 CURVE",
"876 641 LINE",
"919 628 OFFCURVE",
"959 596 OFFCURVE",
"996 556 CURVE SMOOTH",
"1033 516 OFFCURVE",
"1068 468 OFFCURVE",
"1096 424 CURVE SMOOTH"
);
},
{
closed = 1;
nodes = (
"487 1192 LINE",
"487 793 LINE",
"627 793 LINE SMOOTH",
"766 793 OFFCURVE",
"858 884 OFFCURVE",
"858 1004 CURVE SMOOTH",
"858 1129 OFFCURVE",
"783 1192 OFFCURVE",
"633 1192 CURVE SMOOTH"
);
}
);
};
layerId = "7FD739B0-27A2-4428-8CD0-260441CCC696";
name = Bold;
paths = (
{
closed = 1;
nodes = (
"479 0 LINE",
"479 612 LINE",
"687 612 LINE SMOOTH",
"972 612 OFFCURVE",
"1197 763 OFFCURVE",
"1198 1011 CURVE SMOOTH",
"1199 1287 OFFCURVE",
"1007 1434 OFFCURVE",
"726 1434 CURVE SMOOTH",
"164 1434 LINE",
"164 0 LINE"
);
},
{
closed = 1;
nodes = (
"1367 0 LINE",
"878 751 LINE",
"606 617 LINE",
"1000 0 LINE"
);
},
{
closed = 1;
nodes = (
"478 1201 LINE",
"625 1202 LINE SMOOTH",
"780 1206 OFFCURVE",
"870 1131 OFFCURVE",
"871 993 CURVE SMOOTH",
"872 860 OFFCURVE",
"774 783 OFFCURVE",
"603 783 CURVE SMOOTH",
"478 783 LINE"
);
}
);
width = 1337;
}
);
unicode = 0052;
},
{
glyphname = S;
lastChange = "2015-08-18 17:18:40 +0000";
layers = (
{
anchors = (
{
name = bottom;
position = "{544, 0}";
},
{
name = top;
position = "{544, 1354}";
}
);
background = {
paths = (
{
closed = 1;
nodes = (
"202 32 OFFCURVE",
"352 -14 OFFCURVE",
"509 -14 CURVE",
"804 -14 OFFCURVE",
"999 129 OFFCURVE",
"999 419 CURVE",
"996 931 OFFCURVE",
"340 780 OFFCURVE",
"337 1071 CURVE",
"341 1180 OFFCURVE",
"444 1250 OFFCURVE",
"594 1250 CURVE",
"691 1250 OFFCURVE",
"788 1222 OFFCURVE",
"880 1181 CURVE",
"957 1376 LINE",
"846 1426 OFFCURVE",
"728 1447 OFFCURVE",
"594 1447 CURVE",
"303 1447 OFFCURVE",
"110 1350 OFFCURVE",
"108 1071 CURVE",
"110 586 OFFCURVE",
"766 767 OFFCURVE",
"770 419 CURVE",
"769 266 OFFCURVE",
"665 183 OFFCURVE",
"509 183 CURVE",
"367 183 OFFCURVE",
"227 249 OFFCURVE",
"140 293 CURVE",
"66 102 LINE"
);
},
{
closed = 1;
nodes = (
"1383 10 OFFCURVE",
"1523 -25 OFFCURVE",
"1706 -25 CURVE SMOOTH",
"2023 -25 OFFCURVE",
"2180 124 OFFCURVE",
"2180 426 CURVE SMOOTH",
"2180 949 OFFCURVE",
"1502 745 OFFCURVE",
"1502 1074 CURVE SMOOTH",
"1502 1227 OFFCURVE",
"1589 1302 OFFCURVE",
"1762 1302 CURVE SMOOTH",
"1877 1302 OFFCURVE",
"1989 1281 OFFCURVE",
"2100 1233 CURVE",
"2171 1398 LINE",
"2070 1439 OFFCURVE",
"1940 1458 OFFCURVE",
"1778 1458 CURVE SMOOTH",
"1472 1458 OFFCURVE",
"1321 1326 OFFCURVE",
"1321 1059 CURVE SMOOTH",
"1321 601 OFFCURVE",
"1997 788 OFFCURVE",
"1997 412 CURVE SMOOTH",
"1997 224 OFFCURVE",
"1908 132 OFFCURVE",
"1730 132 CURVE SMOOTH",
"1605 132 OFFCURVE",
"1481 166 OFFCURVE",
"1353 239 CURVE",
"1283 83 LINE"
);
}
);
};
layerId = "90678D68-BBCC-4545-9AE9-72D37A9CD052";
name = Regular;
paths = (
{
closed = 1;
nodes = (
"805 -10 OFFCURVE",
"979 141 OFFCURVE",
"980 384 CURVE SMOOTH",
"982 874 OFFCURVE",
"303 783 OFFCURVE",
"306 1090 CURVE SMOOTH",
"307 1234 OFFCURVE",
"449 1282 OFFCURVE",
"602 1282 CURVE SMOOTH",
"733 1282 OFFCURVE",
"807 1247 OFFCURVE",
"873 1223 CURVE",
"938 1380 LINE",
"840 1419 OFFCURVE",
"731 1447 OFFCURVE",
"599 1447 CURVE SMOOTH",
"336 1447 OFFCURVE",
"138 1340 OFFCURVE",
"136 1080 CURVE SMOOTH",
"134 602 OFFCURVE",
"801 749 OFFCURVE",
"801 386 CURVE SMOOTH",
"801 252 OFFCURVE",
"723 144 OFFCURVE",
"501 144 CURVE SMOOTH",
"399 144 OFFCURVE",
"302 167 OFFCURVE",
"145 247 CURVE",
"80 98 LINE",
"240 21 OFFCURVE",
"356 -12 OFFCURVE",
"501 -11 CURVE SMOOTH"
);
}
);
width = 1088;
},
{
anchors = (
{
name = bottom;
position = "{489, 0}";
},
{
name = top;
position = "{509, 1384}";
}
);
background = {
paths = (
{
closed = 1;
nodes = (
"139 164 LINE",
"242 99 OFFCURVE",
"346 66 OFFCURVE",
"451 66 CURVE SMOOTH",
"675 66 OFFCURVE",
"793 163 OFFCURVE",
"793 330 CURVE SMOOTH",
"793 477 OFFCURVE",
"741 533 OFFCURVE",
"481 684 CURVE SMOOTH",
"190 853 OFFCURVE",
"147 945 OFFCURVE",
"147 1094 CURVE SMOOTH",
"147 1297 OFFCURVE",
"317 1458 OFFCURVE",
"580 1458 CURVE SMOOTH",
"665 1458 OFFCURVE",
"751 1444 OFFCURVE",
"836 1415 CURVE",
"836 1311 LINE",
"752 1349 OFFCURVE",
"662 1368 OFFCURVE",
"567 1368 CURVE SMOOTH",
"372 1368 OFFCURVE",
"250 1258 OFFCURVE",
"250 1106 CURVE SMOOTH",
"250 959 OFFCURVE",
"302 903 OFFCURVE",
"561 754 CURVE SMOOTH",
"829 602 OFFCURVE",
"895 501 OFFCURVE",
"895 348 CURVE SMOOTH",
"895 128 OFFCURVE",
"736 -25 OFFCURVE",
"457 -25 CURVE SMOOTH",
"358 -25 OFFCURVE",
"207 11 OFFCURVE",
"139 51 CURVE"
);
}
);
};
layerId = "4CDE908C-C807-45B0-BC73-FFDEB9F34183";
name = Light;
paths = (
{
closed = 1;
nodes = (
"751 -10 OFFCURVE",
"894 141 OFFCURVE",
"895 384 CURVE SMOOTH",
"897 827 OFFCURVE",
"243 747 OFFCURVE",
"246 1080 CURVE SMOOTH",
"248 1295 OFFCURVE",
"418 1367 OFFCURVE",
"602 1367 CURVE SMOOTH",
"704 1367 OFFCURVE",
"762 1347 OFFCURVE",
"813 1334 CURVE",
"838 1420 LINE",
"769 1442 OFFCURVE",
"692 1457 OFFCURVE",
"599 1457 CURVE SMOOTH",
"342 1457 OFFCURVE",
"147 1344 OFFCURVE",
"146 1070 CURVE SMOOTH",
"144 669 OFFCURVE",
"801 734 OFFCURVE",
"801 386 CURVE SMOOTH",
"801 213 OFFCURVE",
"723 74 OFFCURVE",
"501 74 CURVE SMOOTH",
"397 74 OFFCURVE",
"297 95 OFFCURVE",
"135 167 CURVE",
"110 78 LINE",
"259 15 OFFCURVE",
"366 -12 OFFCURVE",
"501 -11 CURVE SMOOTH"
);
}
);
width = 1018;
},
{
anchors = (
{
name = bottom;
position = "{574, 0}";
},
{
name = top;
position = "{579, 1384}";
}
);
background = {
paths = (
{
closed = 1;
nodes = (
"98 375 LINE",
"214 278 OFFCURVE",
"354 229 OFFCURVE",
"493 229 CURVE SMOOTH",
"574 229 OFFCURVE",
"635 245 OFFCURVE",
"676 271 CURVE SMOOTH",
"716 297 OFFCURVE",
"736 333 OFFCURVE",
"736 374 CURVE SMOOTH",
"736 430 OFFCURVE",
"702 473 OFFCURVE",
"647 510 CURVE SMOOTH",
"591 547 OFFCURVE",
"513 581 OFFCURVE",
"425 617 CURVE SMOOTH",
"201 710 OFFCURVE",
"92 841 OFFCURVE",
"92 1032 CURVE SMOOTH",
"92 1181 OFFCURVE",
"156 1288 OFFCURVE",
"260 1357 CURVE SMOOTH",
"363 1426 OFFCURVE",
"503 1458 OFFCURVE",
"655 1458 CURVE SMOOTH",
"804 1458 OFFCURVE",
"916 1440 OFFCURVE",
"1013 1403 CURVE",
"1013 1104 LINE",
"965 1137 OFFCURVE",
"907 1163 OFFCURVE",
"847 1180 CURVE SMOOTH",
"787 1196 OFFCURVE",
"726 1204 OFFCURVE",
"673 1204 CURVE SMOOTH",
"600 1204 OFFCURVE",
"538 1189 OFFCURVE",
"497 1164 CURVE SMOOTH",
"456 1139 OFFCURVE",
"432 1103 OFFCURVE",
"432 1059 CURVE SMOOTH",
"432 1011 OFFCURVE",
"458 975 OFFCURVE",
"505 941 CURVE SMOOTH",
"552 907 OFFCURVE",
"619 875 OFFCURVE",
"703 840 CURVE SMOOTH",
"818 792 OFFCURVE",
"910 740 OFFCURVE",
"975 672 CURVE SMOOTH",
"1040 604 OFFCURVE",
"1076 519 OFFCURVE",
"1076 403 CURVE SMOOTH",
"1076 243 OFFCURVE",
"1011 137 OFFCURVE",
"907 70 CURVE SMOOTH",
"803 2 OFFCURVE",
"660 -25 OFFCURVE",
"507 -25 CURVE SMOOTH",
"350 -25 OFFCURVE",
"202 2 OFFCURVE",
"98 55 CURVE"
);
}
);
};
layerId = "7FD739B0-27A2-4428-8CD0-260441CCC696";
name = Bold;
paths = (
{
closed = 1;
nodes = (
"890 -20 OFFCURVE",
"1079 154 OFFCURVE",
"1080 434 CURVE SMOOTH",
"1082 908 OFFCURVE",
"453 843 OFFCURVE",
"456 1030 CURVE SMOOTH",
"457 1137 OFFCURVE",
"568 1172 OFFCURVE",
"662 1172 CURVE SMOOTH",
"793 1172 OFFCURVE",
"867 1137 OFFCURVE",
"933 1113 CURVE",
"1028 1380 LINE",
"918 1425 OFFCURVE",
"797 1457 OFFCURVE",
"649 1457 CURVE SMOOTH",
"383 1457 OFFCURVE",
"117 1327 OFFCURVE",
"116 1010 CURVE SMOOTH",
"114 565 OFFCURVE",
"781 621 OFFCURVE",
"781 426 CURVE SMOOTH",
"781 341 OFFCURVE",
"720 274 OFFCURVE",
"551 274 CURVE SMOOTH",
"436 274 OFFCURVE",
"347 297 OFFCURVE",
"185 377 CURVE",
"80 98 LINE",
"263 14 OFFCURVE",
"395 -22 OFFCURVE",
"561 -21 CURVE SMOOTH"
);
}
);
width = 1148;
}
);
unicode = 0053;
},
{
glyphname = T;
lastChange = "2015-04-03 21:19:19 +0000";
layers = (
{
anchors = (
{
name = bottom;
position = "{537, 0}";
},
{
name = center;
position = "{537, 717}";
},
{
name = top;
position = "{537, 1354}";
}
);
layerId = "90678D68-BBCC-4545-9AE9-72D37A9CD052";
name = Regular;
paths = (
{
closed = 1;
nodes = (
"622 0 LINE",
"622 1282 LINE",
"1036 1282 LINE",
"1036 1434 LINE",
"41 1434 LINE",
"41 1282 LINE",
"454 1282 LINE",
"454 0 LINE"
);
}
);
width = 1073;
},
{
anchors = (
{
name = bottom;
position = "{524, 0}";
},
{
name = center;
position = "{524, 717}";
},
{
name = top;
position = "{524, 1384}";
}
);
background = {
paths = (
{
closed = 1;
nodes = (
"573 1343 LINE",
"573 0 LINE",
"475 0 LINE",
"475 1343 LINE",
"61 1343 LINE",
"61 1434 LINE",
"987 1434 LINE",
"987 1343 LINE"
);
}
);
};
layerId = "4CDE908C-C807-45B0-BC73-FFDEB9F34183";
name = Light;
paths = (
{
closed = 1;
nodes = (
"573 0 LINE",
"573 1343 LINE",
"987 1343 LINE",
"987 1434 LINE",
"61 1434 LINE",
"61 1343 LINE",
"475 1343 LINE",
"475 0 LINE"
);
}
);
width = 1047;
},
{
anchors = (
{
name = bottom;
position = "{603, 0}";
},
{
name = center;
position = "{600, 717}";
},
{
name = top;
position = "{600, 1384}";
}
);
background = {
paths = (
{
closed = 1;
nodes = (
"1171 1171 LINE",
"762 1171 LINE",
"762 0 LINE",
"438 0 LINE",
"438 1171 LINE",
"31 1171 LINE",
"31 1434 LINE",
"1171 1434 LINE"
);
}
);
};
layerId = "7FD739B0-27A2-4428-8CD0-260441CCC696";
name = Bold;
paths = (
{
closed = 1;
nodes = (
"757 0 LINE",
"757 1176 LINE",
"1171 1176 LINE",
"1171 1434 LINE",
"31 1434 LINE",
"31 1176 LINE",
"444 1176 LINE",
"444 0 LINE"
);
}
);
width = 1200;
}
);
unicode = 0054;
},
{
glyphname = U;
lastChange = "2015-04-03 21:16:03 +0000";
layers = (
{
anchors = (
{
name = bottom;
position = "{704, 0}";
},
{
name = ogonek;
position = "{702, 10}";
},
{
name = top;
position = "{704, 1354}";
},
{
name = topright;
position = "{1387, 1434}";
}
);
layerId = "90678D68-BBCC-4545-9AE9-72D37A9CD052";
name = Regular;
paths = (
{
closed = 1;
nodes = (
"1069 -24 OFFCURVE",
"1237 192 OFFCURVE",
"1237 580 CURVE SMOOTH",
"1237 1434 LINE",
"1069 1434 LINE",
"1069 553 LINE SMOOTH",
"1069 289 OFFCURVE",
"965 126 OFFCURVE",
"709 126 CURVE SMOOTH",
"447 126 OFFCURVE",
"337 292 OFFCURVE",
"337 568 CURVE SMOOTH",
"337 1434 LINE",
"169 1434 LINE",
"169 557 LINE SMOOTH",
"169 188 OFFCURVE",
"329 -24 OFFCURVE",
"692 -24 CURVE SMOOTH"
);
}
);
width = 1407;
},
{
anchors = (
{
name = bottom;
position = "{664, 0}";
},
{
name = ogonek;
position = "{749, 10}";
},
{
name = top;
position = "{664, 1384}";
},
{
name = topright;
position = "{1307, 1434}";
}
);
background = {
paths = (
{
closed = 1;
nodes = (
"1161 573 LINE SMOOTH",
"1161 174 OFFCURVE",
"991 -25 OFFCURVE",
"651 -25 CURVE SMOOTH",
"328 -25 OFFCURVE",
"166 167 OFFCURVE",
"166 551 CURVE SMOOTH",
"166 1434 LINE",
"264 1434 LINE",
"264 565 LINE SMOOTH",
"264 232 OFFCURVE",
"399 66 OFFCURVE",
"670 66 CURVE SMOOTH",
"932 66 OFFCURVE",
"1063 228 OFFCURVE",
"1063 551 CURVE SMOOTH",
"1063 1434 LINE",
"1161 1434 LINE"
);
}
);
};
layerId = "4CDE908C-C807-45B0-BC73-FFDEB9F34183";
name = Light;
paths = (
{
closed = 1;
nodes = (
"1009 -24 OFFCURVE",
"1161 192 OFFCURVE",
"1161 580 CURVE SMOOTH",
"1161 1434 LINE",
"1064 1434 LINE",
"1064 573 LINE SMOOTH",
"1064 259 OFFCURVE",
"950 65 OFFCURVE",
"668 65 CURVE SMOOTH",
"383 65 OFFCURVE",
"264 254 OFFCURVE",
"264 568 CURVE SMOOTH",
"264 1434 LINE",
"166 1434 LINE",
"166 557 LINE SMOOTH",
"166 188 OFFCURVE",
"320 -24 OFFCURVE",
"669 -24 CURVE SMOOTH"
);
}
);
width = 1327;
},
{
anchors = (
{
name = bottom;
position = "{741, 0}";
},
{
name = ogonek;
position = "{833, 10}";
},
{
name = top;
position = "{741, 1384}";
},
{
name = topright;
position = "{1461, 1434}";
}
);
background = {
paths = (
{
closed = 1;
nodes = (
"1333 621 LINE SMOOTH",
"1333 190 OFFCURVE",
"1132 -25 OFFCURVE",
"731 -25 CURVE SMOOTH",
"342 -25 OFFCURVE",
"147 185 OFFCURVE",
"147 606 CURVE SMOOTH",
"147 1434 LINE",
"471 1434 LINE",
"471 602 LINE SMOOTH",
"471 370 OFFCURVE",
"562 254 OFFCURVE",
"743 254 CURVE SMOOTH",
"921 254 OFFCURVE",
"1010 366 OFFCURVE",
"1010 590 CURVE SMOOTH",
"1010 1434 LINE",
"1333 1434 LINE"
);
}
);
};
layerId = "7FD739B0-27A2-4428-8CD0-260441CCC696";
name = Bold;
paths = (
{
closed = 1;
nodes = (
"1148 -24 OFFCURVE",
"1333 192 OFFCURVE",
"1333 580 CURVE SMOOTH",
"1333 1434 LINE",
"1020 1434 LINE",
"1020 563 LINE SMOOTH",
"1020 373 OFFCURVE",
"942 256 OFFCURVE",
"749 256 CURVE SMOOTH",
"546 256 OFFCURVE",
"461 377 OFFCURVE",
"461 578 CURVE SMOOTH",
"461 1434 LINE",
"147 1434 LINE",
"147 557 LINE SMOOTH",
"147 188 OFFCURVE",
"326 -24 OFFCURVE",
"732 -24 CURVE SMOOTH"
);
}
);
width = 1481;
}
);
unicode = 0055;
},
{
glyphname = V;
lastChange = "2015-04-03 19:29:02 +0000";
layers = (
{
anchors = (
{
name = bottom;
position = "{636, 0}";
},
{
name = top;
position = "{636, 1384}";
}
);
layerId = "90678D68-BBCC-4545-9AE9-72D37A9CD052";
name = Regular;
paths = (
{
closed = 1;
nodes = (
"721 -1 LINE",
"1252 1433 LINE",
"1076 1434 LINE",
"668 294 LINE SMOOTH",
"653 251 OFFCURVE",
"640 207 OFFCURVE",
"634 164 CURVE",
"630 164 LINE",
"625 206 OFFCURVE",
"614 255 OFFCURVE",
"600 291 CURVE",
"200 1433 LINE",
"16 1433 LINE",
"536 -1 LINE"
);
}
);
width = 1272;
},
{
anchors = (
{
name = bottom;
position = "{619, 0}";
},
{
name = top;
position = "{619, 1384}";
}
);
background = {
paths = (
{
closed = 1;
nodes = (
"639 0 LINE",
"565 0 LINE",
"41 1434 LINE",
"152 1434 LINE",
"567 279 LINE SMOOTH",
"584 231 OFFCURVE",
"597 186 OFFCURVE",
"604 143 CURVE",
"608 143 LINE",
"615 177 OFFCURVE",
"628 223 OFFCURVE",
"649 281 CURVE SMOOTH",
"1090 1434 LINE",
"1196 1434 LINE"
);
}
);
};
layerId = "4CDE908C-C807-45B0-BC73-FFDEB9F34183";
name = Light;
paths = (
{
closed = 1;
nodes = (
"639 0 LINE",
"1196 1434 LINE",
"1089 1435 LINE",
"641 264 LINE SMOOTH",
"625 221 OFFCURVE",
"613 177 OFFCURVE",
"607 134 CURVE",
"603 134 LINE",
"598 176 OFFCURVE",
"587 225 OFFCURVE",
"573 261 CURVE",
"152 1434 LINE",
"42 1434 LINE",
"564 0 LINE"
);
}
);
width = 1237;
},
{
anchors = (
{
name = bottom;
position = "{683, 0}";
},
{
name = top;
position = "{683, 1384}";
}
);
background = {
paths = (
{
closed = 1;
nodes = (
"1358 1434 LINE",
"864 0 LINE",
"498 0 LINE",
"10 1434 LINE",
"358 1434 LINE",
"657 436 LINE SMOOTH",
"673 382 OFFCURVE",
"683 334 OFFCURVE",
"686 293 CURVE",
"692 293 LINE",
"697 338 OFFCURVE",
"707 387 OFFCURVE",
"723 440 CURVE SMOOTH",
"1020 1434 LINE"
);
}
);
};
layerId = "7FD739B0-27A2-4428-8CD0-260441CCC696";
name = Bold;
paths = (
{
closed = 1;
nodes = (
"863 -1 LINE",
"1360 1433 LINE",
"1031 1434 LINE",
"719 427 LINE SMOOTH",
"705 383 OFFCURVE",
"691 340 OFFCURVE",
"685 297 CURVE",
"681 297 LINE",
"676 339 OFFCURVE",
"662 387 OFFCURVE",
"651 424 CURVE SMOOTH",
"350 1433 LINE",
"10 1433 LINE",
"501 -1 LINE"
);
}
);
width = 1366;
}
);
unicode = 0056;
},
{
glyphname = W;
lastChange = "2015-04-03 19:30:03 +0000";
layers = (
{
anchors = (
{
name = bottom;
position = "{957, 0}";
},
{
name = top;
position = "{967, 1354}";
}
);
layerId = "90678D68-BBCC-4545-9AE9-72D37A9CD052";
name = Regular;
paths = (
{
closed = 1;
nodes = (
"640 0 LINE",
"937 1055 LINE SMOOTH",
"949 1099 OFFCURVE",
"959 1153 OFFCURVE",
"963 1199 CURVE",
"967 1199 LINE",
"969 1155 OFFCURVE",
"979 1093 OFFCURVE",
"990 1053 CURVE SMOOTH",
"1285 0 LINE",
"1482 0 LINE",
"1887 1434 LINE",
"1708 1434 LINE",
"1413 325 LINE SMOOTH",
"1402 282 OFFCURVE",
"1388 220 OFFCURVE",
"1386 187 CURVE",
"1382 187 LINE",
"1377 234 OFFCURVE",
"1369 280 OFFCURVE",
"1358 321 CURVE SMOOTH",
"1054 1434 LINE",
"893 1434 LINE",
"576 329 LINE SMOOTH",
"564 286 OFFCURVE",
"548 219 OFFCURVE",
"544 185 CURVE",
"539 185 LINE",
"537 228 OFFCURVE",
"526 289 OFFCURVE",
"515 329 CURVE SMOOTH",
"208 1434 LINE",
"25 1434 LINE",
"445 0 LINE"
);
}
);
width = 1913;
},
{
anchors = (
{
name = bottom;
position = "{917, 0}";
},
{
name = top;
position = "{936, 1384}";
}
);
background = {
paths = (
{
closed = 1;
nodes = (
"1362 0 LINE",
"1280 0 LINE",
"961 1079 LINE SMOOTH",
"945 1134 OFFCURVE",
"936 1179 OFFCURVE",
"934 1214 CURVE",
"930 1214 LINE",
"928 1185 OFFCURVE",
"918 1140 OFFCURVE",
"899 1081 CURVE SMOOTH",
"559 0 LINE",
"477 0 LINE",
"51 1434 LINE",
"162 1434 LINE",
"489 285 LINE SMOOTH",
"504 233 OFFCURVE",
"514 191 OFFCURVE",
"520 158 CURVE",
"524 158 LINE",
"528 183 OFFCURVE",
"540 225 OFFCURVE",
"559 285 CURVE SMOOTH",
"913 1434 LINE",
"963 1434 LINE",
"1288 285 LINE SMOOTH",
"1303 232 OFFCURVE",
"1314 189 OFFCURVE",
"1319 158 CURVE",
"1323 158 LINE",
"1326 177 OFFCURVE",
"1332 198 OFFCURVE",
"1339 222 CURVE SMOOTH",
"1675 1434 LINE",
"1782 1434 LINE"
);
}
);
};
guideLines = (
{
position = "{835, 125}";
}
);
layerId = "4CDE908C-C807-45B0-BC73-FFDEB9F34183";
name = Light;
paths = (
{
closed = 1;
nodes = (
"560 0 LINE",
"904 1100 LINE SMOOTH",
"918 1144 OFFCURVE",
"926 1198 OFFCURVE",
"930 1244 CURVE",
"934 1244 LINE",
"936 1200 OFFCURVE",
"945 1138 OFFCURVE",
"957 1098 CURVE SMOOTH",
"1279 0 LINE",
"1362 0 LINE",
"1782 1434 LINE",
"1678 1434 LINE",
"1351 263 LINE SMOOTH",
"1339 220 OFFCURVE",
"1326 158 OFFCURVE",
"1324 125 CURVE",
"1320 125 LINE",
"1315 172 OFFCURVE",
"1308 218 OFFCURVE",
"1296 259 CURVE SMOOTH",
"960 1434 LINE",
"910 1434 LINE",
"554 269 LINE SMOOTH",
"541 226 OFFCURVE",
"526 159 OFFCURVE",
"522 125 CURVE",
"517 125 LINE",
"515 168 OFFCURVE",
"504 229 OFFCURVE",
"493 269 CURVE SMOOTH",
"158 1434 LINE",
"51 1434 LINE",
"476 0 LINE"
);
}
);
width = 1833;
},
{
anchors = (
{
name = bottom;
position = "{1029, 0}";
},
{
name = top;
position = "{1049, 1384}";
}
);
background = {
paths = (
{
closed = 1;
nodes = (
"2040 1434 LINE",
"1661 0 LINE",
"1303 0 LINE",
"1065 920 LINE SMOOTH",
"1052 968 OFFCURVE",
"1045 1022 OFFCURVE",
"1042 1081 CURVE",
"1038 1081 LINE",
"1032 1016 OFFCURVE",
"1023 962 OFFCURVE",
"1012 920 CURVE SMOOTH",
"768 0 LINE",
"395 0 LINE",
"18 1434 LINE",
"371 1434 LINE",
"573 479 LINE SMOOTH",
"582 438 OFFCURVE",
"588 384 OFFCURVE",
"592 315 CURVE",
"598 315 LINE",
"601 366 OFFCURVE",
"610 422 OFFCURVE",
"627 483 CURVE SMOOTH",
"887 1434 LINE",
"1233 1434 LINE",
"1468 471 LINE SMOOTH",
"1477 436 OFFCURVE",
"1484 384 OFFCURVE",
"1491 317 CURVE",
"1495 317 LINE",
"1498 370 OFFCURVE",
"1505 423 OFFCURVE",
"1516 477 CURVE SMOOTH",
"1714 1434 LINE"
);
}
);
};
layerId = "7FD739B0-27A2-4428-8CD0-260441CCC696";
name = Bold;
paths = (
{
closed = 1;
nodes = (
"758 0 LINE",
"1017 945 LINE SMOOTH",
"1029 989 OFFCURVE",
"1039 1043 OFFCURVE",
"1043 1089 CURVE",
"1047 1089 LINE",
"1049 1045 OFFCURVE",
"1060 983 OFFCURVE",
"1070 943 CURVE SMOOTH",
"1314 0 LINE",
"1661 0 LINE",
"2040 1434 LINE",
"1724 1434 LINE",
"1521 475 LINE SMOOTH",
"1512 432 OFFCURVE",
"1496 370 OFFCURVE",
"1494 337 CURVE",
"1490 337 LINE",
"1485 384 OFFCURVE",
"1476 430 OFFCURVE",
"1466 471 CURVE SMOOTH",
"1224 1434 LINE",
"897 1434 LINE",
"628 479 LINE SMOOTH",
"616 436 OFFCURVE",
"600 369 OFFCURVE",
"596 335 CURVE",
"591 335 LINE",
"589 378 OFFCURVE",
"576 439 OFFCURVE",
"567 479 CURVE SMOOTH",
"361 1434 LINE",
"18 1434 LINE",
"395 0 LINE"
);
}
);
width = 2058;
}
);
unicode = 0057;
},
{
glyphname = X;
lastChange = "2015-04-02 21:48:48 +0000";
layers = (
{
anchors = (
{
name = bottom;
position = "{604, 0}";
},
{
name = top;
position = "{604, 1434}";
}
);
layerId = "90678D68-BBCC-4545-9AE9-72D37A9CD052";
name = Regular;
paths = (
{
closed = 1;
nodes = (
"231 0 LINE",
"573 553 LINE",
"581 569 OFFCURVE",
"605 617 OFFCURVE",
"608 624 CURVE",
"612 624 LINE",
"620 603 OFFCURVE",
"638 566 OFFCURVE",
"646 552 CURVE SMOOTH",
"978 0 LINE",
"1181 0 LINE",
"721 723 LINE",
"1172 1434 LINE",
"981 1434 LINE",
"674 932 LINE SMOOTH",
"657 905 OFFCURVE",
"636 863 OFFCURVE",
"618 828 CURVE",
"614 828 LINE",
"603 854 OFFCURVE",
"579 905 OFFCURVE",
"564 930 CURVE SMOOTH",
"269 1436 LINE",
"65 1436 LINE",
"507 723 LINE",
"27 0 LINE"
);
}
);
width = 1208;
},
{
anchors = (
{
name = bottom;
position = "{577, 0}";
},
{
name = top;
position = "{577, 1434}";
}
);
background = {
paths = (
{
closed = 1;
nodes = (
"961 0 LINE",
"631 547 LINE SMOOTH",
"610 581 OFFCURVE",
"593 614 OFFCURVE",
"578 647 CURVE",
"573 647 LINE",
"555 610 OFFCURVE",
"536 577 OFFCURVE",
"516 547 CURVE",
"180 0 LINE",
"61 0 LINE",
"514 723 LINE",
"88 1434 LINE",
"207 1434 LINE",
"528 895 LINE SMOOTH",
"545 867 OFFCURVE",
"562 835 OFFCURVE",
"580 799 CURVE",
"584 799 LINE",
"637 895 LINE",
"956 1434 LINE",
"1071 1434 LINE",
"641 725 LINE",
"1081 0 LINE"
);
}
);
};
layerId = "4CDE908C-C807-45B0-BC73-FFDEB9F34183";
name = Light;
paths = (
{
closed = 1;
nodes = (
"176 0 LINE",
"534 588 LINE",
"542 604 OFFCURVE",
"566 652 OFFCURVE",
"569 659 CURVE",
"573 659 LINE",
"581 638 OFFCURVE",
"599 601 OFFCURVE",
"607 587 CURVE SMOOTH",
"959 0 LINE",
"1081 0 LINE",
"641 723 LINE",
"1072 1434 LINE",
"959 1434 LINE",
"638 887 LINE SMOOTH",
"622 860 OFFCURVE",
"600 818 OFFCURVE",
"582 783 CURVE",
"578 783 LINE",
"567 809 OFFCURVE",
"543 860 OFFCURVE",
"528 885 CURVE SMOOTH",
"200 1434 LINE",
"88 1434 LINE",
"517 723 LINE",
"59 0 LINE"
);
}
);
width = 1153;
},
{
anchors = (
{
name = bottom;
position = "{671, 0}";
},
{
name = top;
position = "{671, 1434}";
}
);
background = {
paths = (
{
closed = 1;
nodes = (
"1335 0 LINE",
"952 0 LINE",
"705 467 LINE SMOOTH",
"696 484 OFFCURVE",
"686 516 OFFCURVE",
"676 563 CURVE",
"672 563 LINE",
"667 541 OFFCURVE",
"656 508 OFFCURVE",
"639 463 CURVE",
"391 0 LINE",
"6 0 LINE",
"463 717 LINE",
"45 1434 LINE",
"438 1434 LINE",
"643 1004 LINE SMOOTH",
"659 970 OFFCURVE",
"673 930 OFFCURVE",
"686 883 CURVE",
"690 883 LINE",
"698 911 OFFCURVE",
"713 953 OFFCURVE",
"735 1008 CURVE",
"963 1434 LINE",
"1323 1434 LINE",
"893 723 LINE"
);
}
);
};
layerId = "7FD739B0-27A2-4428-8CD0-260441CCC696";
name = Bold;
paths = (
{
closed = 1;
nodes = (
"382 0 LINE",
"642 483 LINE",
"650 499 OFFCURVE",
"674 547 OFFCURVE",
"677 554 CURVE",
"681 554 LINE",
"689 533 OFFCURVE",
"708 496 OFFCURVE",
"715 482 CURVE SMOOTH",
"963 0 LINE",
"1337 0 LINE",
"894 723 LINE",
"1313 1434 LINE",
"961 1434 LINE",
"733 1012 LINE SMOOTH",
"714 977 OFFCURVE",
"695 933 OFFCURVE",
"677 898 CURVE",
"673 898 LINE",
"662 924 OFFCURVE",
"635 975 OFFCURVE",
"623 1000 CURVE SMOOTH",
"418 1434 LINE",
"34 1435 LINE",
"465 723 LINE",
"6 0 LINE"
);
}
);
width = 1342;
}
);
unicode = 0058;
},
{
glyphname = Y;
lastChange = "2015-04-03 19:30:50 +0000";
layers = (
{
anchors = (
{
name = bottom;
position = "{566, 0}";
},
{
name = top;
position = "{566, 1354}";
}
);
layerId = "90678D68-BBCC-4545-9AE9-72D37A9CD052";
name = Regular;
paths = (
{
closed = 1;
nodes = (
"648 0 LINE",
"648 530 LINE",
"1121 1434 LINE",
"945 1434 LINE",
"606 781 LINE SMOOTH",
"593 755 OFFCURVE",
"575 714 OFFCURVE",
"569 693 CURVE",
"566 693 LINE",
"556 720 OFFCURVE",
"535 773 OFFCURVE",
"531 781 CURVE SMOOTH",
"207 1434 LINE",
"19 1434 LINE",
"480 526 LINE",
"480 0 LINE"
);
}
);
width = 1132;
},
{
anchors = (
{
name = bottom;
position = "{553, 0}";
},
{
name = top;
position = "{553, 1384}";
}
);
background = {
paths = (
{
closed = 1;
nodes = (
"598 545 LINE",
"598 0 LINE",
"500 0 LINE",
"500 543 LINE",
"61 1434 LINE",
"172 1434 LINE",
"506 743 LINE SMOOTH",
"518 719 OFFCURVE",
"533 684 OFFCURVE",
"551 637 CURVE",
"555 637 LINE",
"564 662 OFFCURVE",
"581 696 OFFCURVE",
"604 741 CURVE SMOOTH",
"954 1434 LINE",
"1061 1434 LINE"
);
}
);
};
layerId = "4CDE908C-C807-45B0-BC73-FFDEB9F34183";
name = Light;
paths = (
{
closed = 1;
nodes = (
"599 0 LINE",
"599 550 LINE",
"1061 1434 LINE",
"955 1434 LINE",
"593 718 LINE SMOOTH",
"580 692 OFFCURVE",
"562 651 OFFCURVE",
"556 630 CURVE",
"553 630 LINE",
"543 657 OFFCURVE",
"522 710 OFFCURVE",
"518 718 CURVE SMOOTH",
"173 1434 LINE",
"59 1434 LINE",
"500 546 LINE",
"500 0 LINE"
);
}
);
width = 1106;
},
{
anchors = (
{
name = bottom;
position = "{622, 0}";
},
{
name = top;
position = "{622, 1384}";
}
);
background = {
paths = (
{
closed = 1;
nodes = (
"1245 1434 LINE",
"778 510 LINE",
"778 0 LINE",
"455 0 LINE",
"455 504 LINE",
"0 1434 LINE",
"369 1434 LINE",
"600 899 LINE SMOOTH",
"604 889 OFFCURVE",
"615 850 OFFCURVE",
"633 782 CURVE",
"637 782 LINE",
"646 830 OFFCURVE",
"656 868 OFFCURVE",
"668 895 CURVE SMOOTH",
"903 1434 LINE"
);
}
);
};
layerId = "7FD739B0-27A2-4428-8CD0-260441CCC696";
name = Bold;
paths = (
{
closed = 1;
nodes = (
"774 0 LINE",
"774 490 LINE",
"1245 1434 LINE",
"888 1434 LINE",
"663 911 LINE SMOOTH",
"650 880 OFFCURVE",
"632 829 OFFCURVE",
"626 803 CURVE",
"623 803 LINE",
"613 836 OFFCURVE",
"592 901 OFFCURVE",
"588 911 CURVE SMOOTH",
"375 1434 LINE",
"0 1434 LINE",
"460 486 LINE",
"460 0 LINE"
);
}
);
width = 1243;
}
);
unicode = 0059;
},
{
glyphname = Z;
lastChange = "2015-04-03 19:31:25 +0000";
layers = (
{
anchors = (
{
name = bottom;
position = "{584, 0}";
},
{
name = top;
position = "{584, 1354}";
}
);
layerId = "90678D68-BBCC-4545-9AE9-72D37A9CD052";
name = Regular;
paths = (
{
closed = 1;
nodes = (
"1104 0 LINE",
"1104 152 LINE",
"314 152 LINE",
"1084 1394 LINE",
"1084 1434 LINE",
"80 1434 LINE",
"80 1282 LINE",
"816 1282 LINE",
"53 47 LINE",
"53 0 LINE"
);
}
);
width = 1168;
},
{
anchors = (
{
name = bottom;
position = "{584, 0}";
},
{
name = top;
position = "{584, 1384}";
}
);
background = {
paths = (
{
closed = 1;
nodes = (
"215 90 LINE",
"1073 90 LINE",
"1073 0 LINE",
"66 0 LINE",
"66 31 LINE",
"934 1343 LINE",
"135 1343 LINE",
"135 1434 LINE",
"1087 1434 LINE",
"1087 1407 LINE"
);
}
);
};
layerId = "4CDE908C-C807-45B0-BC73-FFDEB9F34183";
name = Light;
paths = (
{
closed = 1;
nodes = (
"1077 0 LINE",
"1077 90 LINE",
"214 90 LINE",
"1087 1394 LINE",
"1087 1434 LINE",
"93 1434 LINE",
"93 1343 LINE",
"946 1343 LINE",
"66 47 LINE",
"66 0 LINE"
);
}
);
width = 1167;
},
{
anchors = (
{
name = bottom;
position = "{622, 0}";
},
{
name = top;
position = "{622, 1384}";
}
);
background = {
paths = (
{
closed = 1;
nodes = (
"1196 0 LINE",
"41 0 LINE",
"41 186 LINE",
"776 1171 LINE",
"94 1171 LINE",
"94 1434 LINE",
"1194 1434 LINE",
"1194 1253 LINE",
"475 262 LINE",
"1196 262 LINE"
);
}
);
};
layerId = "7FD739B0-27A2-4428-8CD0-260441CCC696";
name = Bold;
paths = (
{
closed = 1;
nodes = (
"1196 0 LINE",
"1196 292 LINE",
"554 292 LINE",
"1196 1394 LINE",
"1196 1434 LINE",
"80 1434 LINE",
"80 1152 LINE",
"696 1152 LINE",
"43 47 LINE",
"43 0 LINE"
);
}
);
width = 1243;
}
);
unicode = 005A;
},
{
color = 5;
glyphname = a;
lastChange = "2015-04-08 15:03:00 +0000";
layers = (
{
anchors = (
{
name = bottom;
position = "{521, 0}";
},
{
name = ogonek;
position = "{938, 10}";
},
{
name = top;
position = "{521, 974}";
}
);
background = {
paths = (
{
closed = 1;
nodes = (
"806 -149 OFFCURVE",
"703 -269 OFFCURVE",
"507 -269 CURVE SMOOTH",
"289 -269 OFFCURVE",
"202 -64 OFFCURVE",
"202 110 CURVE SMOOTH",
"202 355 OFFCURVE",
"329 503 OFFCURVE",
"534 503 CURVE SMOOTH",
"616 503 OFFCURVE",
"746 478 OFFCURVE",
"842 369 CURVE",
"859 532 LINE",
"730 631 OFFCURVE",
"613 652 OFFCURVE",
"521 652 CURVE SMOOTH",
"224 652 OFFCURVE",
"29 431 OFFCURVE",
"29 99 CURVE SMOOTH",
"29 -215 OFFCURVE",
"203 -421 OFFCURVE",
"467 -421 CURVE",
"732 -421 OFFCURVE",
"866 -288 OFFCURVE",
"866 -38 CURVE",
"806 55 LINE"
);
}
);
};
layerId = "90678D68-BBCC-4545-9AE9-72D37A9CD052";
name = Regular;
paths = (
{
closed = 1;
nodes = (
"987 28 LINE",
"935 122 OFFCURVE",
"901 223 OFFCURVE",
"900 330 CURVE",
"898 618 LINE SMOOTH",
"896 872 OFFCURVE",
"769 1000 OFFCURVE",
"527 1000 CURVE SMOOTH",
"459 1000 OFFCURVE",
"362 990 OFFCURVE",
"219 974 CURVE",
"247 810 LINE",
"343 825 OFFCURVE",
"463 834 OFFCURVE",
"514 834 CURVE SMOOTH",
"656 834 OFFCURVE",
"736 768 OFFCURVE",
"736 604 CURVE",
"736 328 LINE SMOOTH",
"736 198 OFFCURVE",
"778 75 OFFCURVE",
"842 -39 CURVE"
);
},
{
closed = 1;
nodes = (
"601 -23 OFFCURVE",
"767 81 OFFCURVE",
"767 206 CURVE",
"736 349 LINE",
"736 217 OFFCURVE",
"632 130 OFFCURVE",
"475 130 CURVE",
"349 130 OFFCURVE",
"264 189 OFFCURVE",
"263 275 CURVE SMOOTH",
"262 364 OFFCURVE",
"357 417 OFFCURVE",
"498 417 CURVE SMOOTH",
"617 417 OFFCURVE",
"725 377 OFFCURVE",
"793 318 CURVE",
"790 468 LINE",
"691 538 OFFCURVE",
"585 573 OFFCURVE",
"473 573 CURVE SMOOTH",
"242 573 OFFCURVE",
"91 457 OFFCURVE",
"91 266 CURVE SMOOTH",
"91 64 OFFCURVE",
"247 -23 OFFCURVE",
"438 -23 CURVE"
);
}
);
width = 1042;
},
{
anchors = (
{
name = bottom;
position = "{506, 0}";
},
{
name = ogonek;
position = "{911, 10}";
},
{
name = top;
position = "{506, 974}";
}
);
background = {
paths = (
{
closed = 1;
nodes = (
"341 130 OFFCURVE",
"264 189 OFFCURVE",
"263 275 CURVE SMOOTH",
"262 370 OFFCURVE",
"357 427 OFFCURVE",
"498 427 CURVE SMOOTH",
"617 427 OFFCURVE",
"725 387 OFFCURVE",
"793 328 CURVE",
"790 468 LINE",
"691 538 OFFCURVE",
"585 573 OFFCURVE",
"473 573 CURVE SMOOTH",
"242 573 OFFCURVE",
"91 457 OFFCURVE",
"91 266 CURVE SMOOTH",
"91 64 OFFCURVE",
"238 -23 OFFCURVE",
"418 -23 CURVE",
"591 -23 OFFCURVE",
"767 81 OFFCURVE",
"767 206 CURVE",
"736 349 LINE",
"736 217 OFFCURVE",
"624 130 OFFCURVE",
"455 130 CURVE"
);
},
{
closed = 1;
nodes = (
"736 198 OFFCURVE",
"778 75 OFFCURVE",
"842 -39 CURVE",
"987 28 LINE",
"935 122 OFFCURVE",
"901 223 OFFCURVE",
"900 330 CURVE",
"898 618 LINE SMOOTH",
"896 872 OFFCURVE",
"769 1000 OFFCURVE",
"527 1000 CURVE SMOOTH",
"459 1000 OFFCURVE",
"362 990 OFFCURVE",
"219 974 CURVE",
"247 810 LINE",
"343 825 OFFCURVE",
"463 834 OFFCURVE",
"514 834 CURVE SMOOTH",
"656 834 OFFCURVE",
"736 768 OFFCURVE",
"736 604 CURVE",
"736 328 LINE SMOOTH"
);
}
);
};
layerId = "4CDE908C-C807-45B0-BC73-FFDEB9F34183";
name = Light;
paths = (
{
closed = 1;
nodes = (
"963 8 LINE",
"905 114 OFFCURVE",
"867 229 OFFCURVE",
"866 350 CURVE",
"864 618 LINE SMOOTH",
"862 872 OFFCURVE",
"745 1000 OFFCURVE",
"523 1000 CURVE SMOOTH",
"455 1000 OFFCURVE",
"358 990 OFFCURVE",
"215 974 CURVE",
"223 884 LINE",
"326 903 OFFCURVE",
"455 914 OFFCURVE",
"510 914 CURVE SMOOTH",
"674 914 OFFCURVE",
"782 825 OFFCURVE",
"782 604 CURVE",
"782 348 LINE SMOOTH",
"782 211 OFFCURVE",
"820 81 OFFCURVE",
"878 -39 CURVE"
);
},
{
closed = 1;
nodes = (
"667 -23 OFFCURVE",
"813 99 OFFCURVE",
"813 246 CURVE",
"782 369 LINE",
"782 186 OFFCURVE",
"629 66 OFFCURVE",
"475 66 CURVE",
"297 66 OFFCURVE",
"195 136 OFFCURVE",
"194 260 CURVE SMOOTH",
"193 413 OFFCURVE",
"299 487 OFFCURVE",
"484 487 CURVE",
"607 487 OFFCURVE",
"718 439 OFFCURVE",
"789 368 CURVE",
"786 468 LINE",
"690 538 OFFCURVE",
"587 573 OFFCURVE",
"479 573 CURVE SMOOTH",
"236 573 OFFCURVE",
"97 468 OFFCURVE",
"97 261 CURVE SMOOTH",
"97 80 OFFCURVE",
"223 -23 OFFCURVE",
"444 -23 CURVE"
);
}
);
width = 1012;
},
{
anchors = (
{
name = bottom;
position = "{551, 0}";
},
{
name = ogonek;
position = "{992, 10}";
},
{
name = top;
position = "{551, 974}";
}
);
background = {
paths = (
{
closed = 1;
nodes = (
"349 130 OFFCURVE",
"264 189 OFFCURVE",
"263 275 CURVE SMOOTH",
"262 370 OFFCURVE",
"357 427 OFFCURVE",
"498 427 CURVE SMOOTH",
"617 427 OFFCURVE",
"725 387 OFFCURVE",
"793 328 CURVE",
"790 468 LINE",
"691 538 OFFCURVE",
"585 573 OFFCURVE",
"473 573 CURVE SMOOTH",
"242 573 OFFCURVE",
"91 457 OFFCURVE",
"91 266 CURVE SMOOTH",
"91 64 OFFCURVE",
"247 -23 OFFCURVE",
"438 -23 CURVE",
"601 -23 OFFCURVE",
"767 81 OFFCURVE",
"767 206 CURVE",
"736 349 LINE",
"736 217 OFFCURVE",
"632 130 OFFCURVE",
"475 130 CURVE"
);
}
);
};
layerId = "7FD739B0-27A2-4428-8CD0-260441CCC696";
name = Bold;
paths = (
{
closed = 1;
nodes = (
"1057 28 LINE",
"1017 122 OFFCURVE",
"991 223 OFFCURVE",
"990 330 CURVE",
"988 618 LINE SMOOTH",
"986 872 OFFCURVE",
"828 1000 OFFCURVE",
"527 1000 CURVE SMOOTH",
"444 1000 OFFCURVE",
"325 982 OFFCURVE",
"149 954 CURVE",
"177 710 LINE",
"298 738 OFFCURVE",
"450 754 OFFCURVE",
"514 754 CURVE SMOOTH",
"624 754 OFFCURVE",
"686 710 OFFCURVE",
"686 604 CURVE",
"686 328 LINE SMOOTH",
"686 198 OFFCURVE",
"720 75 OFFCURVE",
"772 -39 CURVE"
);
},
{
closed = 1;
nodes = (
"566 -23 OFFCURVE",
"717 101 OFFCURVE",
"717 226 CURVE",
"686 369 LINE",
"686 279 OFFCURVE",
"606 200 OFFCURVE",
"485 200 CURVE",
"407 200 OFFCURVE",
"353 231 OFFCURVE",
"353 275 CURVE SMOOTH",
"352 339 OFFCURVE",
"411 377 OFFCURVE",
"508 377 CURVE SMOOTH",
"617 377 OFFCURVE",
"725 357 OFFCURVE",
"793 328 CURVE",
"790 498 LINE",
"690 568 OFFCURVE",
"584 603 OFFCURVE",
"483 603 CURVE SMOOTH",
"221 603 OFFCURVE",
"56 476 OFFCURVE",
"56 266 CURVE SMOOTH",
"56 64 OFFCURVE",
"218 -23 OFFCURVE",
"418 -23 CURVE"
);
}
);
width = 1102;
}
);
unicode = 0061;
userData = {
com.typemytype.robofont.image = {
brightness = 0;
color = (
0,
0,
1,
0
);
contrast = 1;
path = "/var/folders/wx/r1w7d8f1373_lvr_cqc1lb000000gn/T/tmpZpqwYs";
saturation = 1;
sharpness = 0;
transform = (
0,
0,
"-0.02619345181206362",
0,
"-82.40388801708153",
"-225.9234934532614"
);
};
com.typemytype.robofont.layerData = {
SegoeUI = {
anchors = (
);
components = (
);
contours = (
{
points = (
{
segmentType = line;
smooth = 1;
x = 735;
y = 416;
},
{
smooth = 0;
x = 735;
y = 329;
},
{
smooth = 0;
x = 708;
y = 257;
},
{
segmentType = curve;
smooth = 1;
x = 655;
y = 200;
},
{
smooth = 0;
x = 602;
y = 143;
},
{
smooth = 0;
x = 535;
y = 114;
},
{
segmentType = curve;
smooth = 1;
x = 454;
y = 114;
},
{
smooth = 0;
x = 395;
y = 114;
},
{
smooth = 0;
x = 347;
y = 130;
},
{
segmentType = curve;
smooth = 1;
x = 311;
y = 162;
},
{
smooth = 0;
x = 275;
y = 194;
},
{
smooth = 0;
x = 257;
y = 235;
},
{
segmentType = curve;
smooth = 1;
x = 257;
y = 285;
},
{
smooth = 0;
x = 257;
y = 354;
},
{
smooth = 0;
x = 276;
y = 402;
},
{
segmentType = curve;
smooth = 1;
x = 315;
y = 429;
},
{
smooth = 0;
x = 354;
y = 456;
},
{
smooth = 0;
x = 411;
y = 475;
},
{
segmentType = curve;
smooth = 1;
x = 487;
y = 486;
},
{
segmentType = line;
smooth = 0;
x = 734;
y = 520;
}
);
},
{
points = (
{
segmentType = line;
smooth = 1;
x = 898;
y = 668;
},
{
smooth = 0;
x = 898;
y = 795;
},
{
smooth = 0;
x = 868;
y = 891;
},
{
segmentType = curve;
smooth = 1;
x = 808;
y = 955;
},
{
smooth = 0;
x = 748;
y = 1019;
},
{
smooth = 0;
x = 658;
y = 1051;
},
{
segmentType = curve;
smooth = 1;
x = 537;
y = 1051;
},
{
smooth = 0;
x = 472;
y = 1051;
},
{
smooth = 0;
x = 410;
y = 1043;
},
{
segmentType = curve;
smooth = 1;
x = 352;
y = 1027;
},
{
smooth = 0;
x = 294;
y = 1011;
},
{
smooth = 0;
x = 240;
y = 987;
},
{
segmentType = curve;
smooth = 0;
x = 189;
y = 955;
},
{
segmentType = line;
smooth = 0;
x = 189;
y = 787;
},
{
smooth = 0;
x = 239;
y = 829;
},
{
smooth = 0;
x = 292;
y = 861;
},
{
segmentType = curve;
smooth = 1;
x = 348;
y = 882;
},
{
smooth = 0;
x = 404;
y = 903;
},
{
smooth = 0;
x = 463;
y = 914;
},
{
segmentType = curve;
smooth = 1;
x = 524;
y = 914;
},
{
smooth = 0;
x = 595;
y = 914;
},
{
smooth = 0;
x = 648;
y = 892;
},
{
segmentType = curve;
smooth = 1;
x = 683;
y = 849;
},
{
smooth = 0;
x = 718;
y = 806;
},
{
smooth = 0;
x = 736;
y = 741;
},
{
segmentType = curve;
smooth = 0;
x = 736;
y = 654;
},
{
segmentType = line;
smooth = 1;
x = 429;
y = 611;
},
{
smooth = 0;
x = 316;
y = 596;
},
{
smooth = 0;
x = 231;
y = 560;
},
{
segmentType = curve;
smooth = 1;
x = 175;
y = 504;
},
{
smooth = 0;
x = 119;
y = 448;
},
{
smooth = 0;
x = 91;
y = 372;
},
{
segmentType = curve;
smooth = 1;
x = 91;
y = 276;
},
{
smooth = 0;
x = 91;
y = 187;
},
{
smooth = 0;
x = 120;
y = 115;
},
{
segmentType = curve;
smooth = 1;
x = 178;
y = 61;
},
{
smooth = 0;
x = 236;
y = 7;
},
{
smooth = 0;
x = 316;
y = "-20";
},
{
segmentType = curve;
smooth = 1;
x = 418;
y = "-20";
},
{
smooth = 0;
x = 487;
y = "-20";
},
{
smooth = 0;
x = 548;
y = "-5";
},
{
segmentType = curve;
smooth = 1;
x = 601;
y = 26;
},
{
smooth = 0;
x = 654;
y = 57;
},
{
smooth = 0;
x = 698;
y = 103;
},
{
segmentType = curve;
smooth = 0;
x = 733;
y = 164;
},
{
segmentType = line;
smooth = 0;
x = 737;
y = 164;
},
{
segmentType = line;
smooth = 0;
x = 737;
y = 4;
},
{
segmentType = line;
smooth = 0;
x = 901;
y = 4;
}
);
}
);
lib = {
};
name = a;
unicodes = (
);
width = 1042;
};
guidelines = {
anchors = (
);
components = (
);
contours = (
);
lib = {
};
name = a;
unicodes = (
);
width = 1042;
};
};
};
},
{
glyphname = aogonek;
lastChange = "2015-04-03 18:46:35 +0000";
layers = (
{
components = (
{
name = a;
}
);
layerId = "4CDE908C-C807-45B0-BC73-FFDEB9F34183";
name = Light;
paths = (
{
closed = 1;
nodes = (
"888 -399 OFFCURVE",
"918 -396 OFFCURVE",
"944 -391 CURVE",
"938 -301 LINE",
"906 -305 OFFCURVE",
"884 -308 OFFCURVE",
"878 -308 CURVE SMOOTH",
"825 -308 OFFCURVE",
"794 -276 OFFCURVE",
"794 -220 CURVE SMOOTH",
"794 -156 OFFCURVE",
"856 -73 OFFCURVE",
"963 8 CURVE",
"875 8 LINE",
"762 -67 OFFCURVE",
"698 -159 OFFCURVE",
"698 -246 CURVE SMOOTH",
"698 -343 OFFCURVE",
"758 -399 OFFCURVE",
"864 -399 CURVE SMOOTH"
);
}
);
width = 1012;
},
{
components = (
{
name = a;
}
);
layerId = "90678D68-BBCC-4545-9AE9-72D37A9CD052";
name = Regular;
paths = (
{
closed = 1;
nodes = (
"922 -400 OFFCURVE",
"953 -396 OFFCURVE",
"977 -387 CURVE",
"962 -260 LINE",
"945 -269 OFFCURVE",
"926 -273 OFFCURVE",
"906 -273 CURVE SMOOTH",
"847 -273 OFFCURVE",
"818 -243 OFFCURVE",
"818 -183 CURVE SMOOTH",
"818 -132 OFFCURVE",
"874 -62 OFFCURVE",
"987 28 CURVE",
"868 28 LINE",
"744 -59 OFFCURVE",
"682 -145 OFFCURVE",
"682 -230 CURVE SMOOTH",
"682 -344 OFFCURVE",
"748 -400 OFFCURVE",
"880 -400 CURVE SMOOTH"
);
}
);
width = 1042;
},
{
components = (
{
name = a;
}
);
layerId = "7FD739B0-27A2-4428-8CD0-260441CCC696";
name = Bold;
paths = (
{
closed = 1;
nodes = (
"960 -419 OFFCURVE",
"1006 -412 OFFCURVE",
"1044 -400 CURVE",
"1034 -222 LINE",
"1016 -230 OFFCURVE",
"993 -234 OFFCURVE",
"972 -234 CURVE SMOOTH",
"932 -234 OFFCURVE",
"909 -206 OFFCURVE",
"909 -158 CURVE SMOOTH",
"909 -104 OFFCURVE",
"963 -36 OFFCURVE",
"1057 28 CURVE",
"852 28 LINE",
"743 -44 OFFCURVE",
"681 -143 OFFCURVE",
"681 -245 CURVE SMOOTH",
"681 -356 OFFCURVE",
"767 -419 OFFCURVE",
"918 -419 CURVE SMOOTH"
);
}
);
width = 1102;
}
);
unicode = 0105;
},
{
glyphname = ae;
lastChange = "2015-03-22 23:22:59 +0000";
layers = (
{
anchors = (
{
name = bottom;
position = "{842, 0}";
},
{
name = ogonek;
position = "{907, 10}";
},
{
name = top;
position = "{842, 974}";
}
);
background = {
paths = (
{
closed = 1;
nodes = (
"868 508 LINE",
"868 227 OFFCURVE",
"1006 59 OFFCURVE",
"1233 59 CURVE SMOOTH",
"1348 59 OFFCURVE",
"1460 101 OFFCURVE",
"1569 186 CURVE",
"1569 88 LINE",
"1463 13 OFFCURVE",
"1345 -25 OFFCURVE",
"1214 -25 CURVE SMOOTH",
"1033 -25 OFFCURVE",
"886 79 OFFCURVE",
"823 260 CURVE",
"819 260 LINE",
"730 70 OFFCURVE",
"600 -25 OFFCURVE",
"428 -25 CURVE SMOOTH",
"228 -25 OFFCURVE",
"106 93 OFFCURVE",
"106 264 CURVE SMOOTH",
"106 455 OFFCURVE",
"241 568 OFFCURVE",
"492 580 CURVE SMOOTH",
"776 592 LINE",
"776 841 OFFCURVE",
"696 965 OFFCURVE",
"537 965 CURVE SMOOTH",
"413 965 OFFCURVE",
"300 920 OFFCURVE",
"199 831 CURVE",
"199 940 LINE",
"306 1013 OFFCURVE",
"422 1049 OFFCURVE",
"547 1049 CURVE SMOOTH",
"700 1049 OFFCURVE",
"799 964 OFFCURVE",
"842 795 CURVE",
"846 795 LINE",
"930 964 OFFCURVE",
"1058 1049 OFFCURVE",
"1229 1049 CURVE SMOOTH",
"1482 1049 OFFCURVE",
"1626 861 OFFCURVE",
"1626 549 CURVE SMOOTH",
"1626 508 LINE"
);
},
{
closed = 1;
nodes = (
"1530 592 LINE",
"1522 828 OFFCURVE",
"1412 965 OFFCURVE",
"1227 965 CURVE SMOOTH",
"1035 965 OFFCURVE",
"901 832 OFFCURVE",
"872 592 CURVE"
);
},
{
closed = 1;
nodes = (
"776 508 LINE",
"512 500 LINE SMOOTH",
"304 493 OFFCURVE",
"203 428 OFFCURVE",
"203 268 CURVE SMOOTH",
"203 137 OFFCURVE",
"294 59 OFFCURVE",
"438 59 CURVE SMOOTH",
"619 59 OFFCURVE",
"776 223 OFFCURVE",
"776 426 CURVE SMOOTH"
);
}
);
};
components = (
{
disableAlignment = 1;
name = e;
transform = "{1, 0, 0, 1, 686, 0}";
}
);
layerId = "4CDE908C-C807-45B0-BC73-FFDEB9F34183";
name = Light;
paths = (
{
closed = 1;
nodes = (
"675 -23 OFFCURVE",
"829 122 OFFCURVE",
"829 296 CURVE",
"788 399 LINE",
"788 198 OFFCURVE",
"630 66 OFFCURVE",
"471 66 CURVE",
"293 66 OFFCURVE",
"191 136 OFFCURVE",
"190 260 CURVE SMOOTH",
"189 413 OFFCURVE",
"295 487 OFFCURVE",
"480 487 CURVE",
"603 487 OFFCURVE",
"714 439 OFFCURVE",
"785 368 CURVE",
"782 468 LINE",
"686 538 OFFCURVE",
"583 573 OFFCURVE",
"475 573 CURVE SMOOTH",
"232 573 OFFCURVE",
"93 468 OFFCURVE",
"93 261 CURVE SMOOTH",
"93 80 OFFCURVE",
"219 -23 OFFCURVE",
"440 -23 CURVE"
);
},
{
closed = 1;
nodes = (
"861 445 LINE",
"860 618 LINE SMOOTH",
"858 872 OFFCURVE",
"741 1000 OFFCURVE",
"519 1000 CURVE SMOOTH",
"451 1000 OFFCURVE",
"354 990 OFFCURVE",
"211 974 CURVE",
"219 884 LINE",
"322 903 OFFCURVE",
"451 914 OFFCURVE",
"506 914 CURVE SMOOTH",
"670 914 OFFCURVE",
"778 825 OFFCURVE",
"778 604 CURVE",
"778 445 LINE"
);
}
);
width = 1718;
},
{
anchors = (
{
name = bottom;
position = "{841, 0}";
},
{
name = ogonek;
position = "{938, 10}";
},
{
name = top;
position = "{841, 974}";
}
);
background = {
paths = (
{
closed = 1;
nodes = (
"1622 471 LINE",
"897 471 LINE",
"901 243 OFFCURVE",
"1025 114 OFFCURVE",
"1229 114 CURVE SMOOTH",
"1347 114 OFFCURVE",
"1454 152 OFFCURVE",
"1550 228 CURVE",
"1550 74 LINE",
"1462 9 OFFCURVE",
"1343 -24 OFFCURVE",
"1192 -24 CURVE SMOOTH",
"1012 -24 OFFCURVE",
"884 52 OFFCURVE",
"809 205 CURVE",
"805 205 LINE",
"708 52 OFFCURVE",
"579 -24 OFFCURVE",
"418 -24 CURVE SMOOTH",
"214 -24 OFFCURVE",
"90 92 OFFCURVE",
"90 272 CURVE SMOOTH",
"90 472 OFFCURVE",
"218 580 OFFCURVE",
"473 596 CURVE SMOOTH",
"735 612 LINE",
"735 811 OFFCURVE",
"663 910 OFFCURVE",
"520 910 CURVE SMOOTH",
"403 910 OFFCURVE",
"293 869 OFFCURVE",
"190 788 CURVE",
"190 952 LINE",
"289 1016 OFFCURVE",
"405 1048 OFFCURVE",
"538 1048 CURVE SMOOTH",
"693 1048 OFFCURVE",
"793 981 OFFCURVE",
"838 848 CURVE",
"842 848 LINE",
"919 981 OFFCURVE",
"1038 1048 OFFCURVE",
"1198 1048 CURVE SMOOTH",
"1467 1048 OFFCURVE",
"1622 864 OFFCURVE",
"1622 555 CURVE SMOOTH"
);
}
);
};
components = (
{
name = e;
transform = "{1, 0, 0, 1, 641, 0}";
}
);
layerId = "90678D68-BBCC-4545-9AE9-72D37A9CD052";
name = Regular;
paths = (
{
closed = 1;
nodes = (
"616 -23 OFFCURVE",
"797 81 OFFCURVE",
"797 206 CURVE",
"766 349 LINE",
"766 217 OFFCURVE",
"650 130 OFFCURVE",
"475 130 CURVE",
"349 130 OFFCURVE",
"264 189 OFFCURVE",
"263 275 CURVE SMOOTH",
"262 370 OFFCURVE",
"357 427 OFFCURVE",
"498 427 CURVE SMOOTH",
"617 427 OFFCURVE",
"725 387 OFFCURVE",
"793 328 CURVE",
"790 468 LINE",
"691 538 OFFCURVE",
"585 573 OFFCURVE",
"473 573 CURVE SMOOTH",
"242 573 OFFCURVE",
"91 457 OFFCURVE",
"91 266 CURVE SMOOTH",
"91 64 OFFCURVE",
"247 -23 OFFCURVE",
"438 -23 CURVE"
);
},
{
closed = 1;
nodes = (
"901 479 LINE",
"900 618 LINE SMOOTH",
"898 872 OFFCURVE",
"771 1000 OFFCURVE",
"529 1000 CURVE SMOOTH",
"461 1000 OFFCURVE",
"364 990 OFFCURVE",
"221 974 CURVE",
"249 810 LINE",
"345 825 OFFCURVE",
"465 834 OFFCURVE",
"516 834 CURVE SMOOTH",
"658 834 OFFCURVE",
"738 768 OFFCURVE",
"738 604 CURVE",
"738 479 LINE"
);
}
);
width = 1704;
},
{
anchors = (
{
name = bottom;
position = "{862, 0}";
},
{
name = ogonek;
position = "{-107, 10}";
},
{
name = top;
position = "{862, 974}";
}
);
background = {
paths = (
{
closed = 1;
nodes = (
"1640 422 LINE",
"973 422 LINE",
"986 273 OFFCURVE",
"1080 199 OFFCURVE",
"1255 199 CURVE SMOOTH",
"1362 199 OFFCURVE",
"1461 226 OFFCURVE",
"1552 279 CURVE",
"1552 53 LINE",
"1448 1 OFFCURVE",
"1322 -25 OFFCURVE",
"1174 -25 CURVE SMOOTH",
"995 -25 OFFCURVE",
"862 35 OFFCURVE",
"776 154 CURVE",
"772 154 LINE",
"678 35 OFFCURVE",
"557 -25 OFFCURVE",
"410 -25 CURVE SMOOTH",
"189 -25 OFFCURVE",
"57 91 OFFCURVE",
"57 287 CURVE SMOOTH",
"57 482 OFFCURVE",
"190 604 OFFCURVE",
"430 623 CURVE SMOOTH",
"686 643 LINE",
"686 770 OFFCURVE",
"625 834 OFFCURVE",
"502 834 CURVE SMOOTH",
"386 834 OFFCURVE",
"271 798 OFFCURVE",
"158 727 CURVE",
"158 963 LINE",
"283 1020 OFFCURVE",
"406 1049 OFFCURVE",
"528 1049 CURVE SMOOTH",
"684 1049 OFFCURVE",
"792 1004 OFFCURVE",
"852 915 CURVE",
"856 915 LINE",
"944 1004 OFFCURVE",
"1053 1049 OFFCURVE",
"1182 1049 CURVE SMOOTH",
"1467 1049 OFFCURVE",
"1640 860 OFFCURVE",
"1640 551 CURVE SMOOTH"
);
},
{
closed = 1;
nodes = (
"1348 616 LINE",
"1348 763 OFFCURVE",
"1289 836 OFFCURVE",
"1171 836 CURVE SMOOTH",
"1071 836 OFFCURVE",
"986 744 OFFCURVE",
"973 616 CURVE"
);
},
{
closed = 1;
nodes = (
"686 459 LINE",
"530 446 LINE SMOOTH",
"407 436 OFFCURVE",
"346 392 OFFCURVE",
"346 315 CURVE SMOOTH",
"346 248 OFFCURVE",
"403 199 OFFCURVE",
"487 199 CURVE SMOOTH",
"602 199 OFFCURVE",
"686 286 OFFCURVE",
"686 414 CURVE SMOOTH"
);
}
);
};
components = (
{
name = e;
transform = "{1, 0, 0, 1, 612, 0}";
}
);
layerId = "7FD739B0-27A2-4428-8CD0-260441CCC696";
name = Bold;
paths = (
{
closed = 1;
nodes = (
"595 -23 OFFCURVE",
"776 101 OFFCURVE",
"776 226 CURVE",
"745 369 LINE",
"745 279 OFFCURVE",
"641 200 OFFCURVE",
"484 200 CURVE",
"406 200 OFFCURVE",
"352 231 OFFCURVE",
"352 275 CURVE SMOOTH",
"351 339 OFFCURVE",
"410 377 OFFCURVE",
"507 377 CURVE SMOOTH",
"616 377 OFFCURVE",
"724 357 OFFCURVE",
"792 328 CURVE",
"789 468 LINE",
"689 538 OFFCURVE",
"583 573 OFFCURVE",
"482 573 CURVE SMOOTH",
"220 573 OFFCURVE",
"55 457 OFFCURVE",
"55 266 CURVE SMOOTH",
"55 64 OFFCURVE",
"217 -23 OFFCURVE",
"417 -23 CURVE"
);
},
{
closed = 1;
nodes = (
"988 434 LINE",
"987 618 LINE SMOOTH",
"985 872 OFFCURVE",
"827 1000 OFFCURVE",
"526 1000 CURVE SMOOTH",
"443 1000 OFFCURVE",
"324 982 OFFCURVE",
"148 954 CURVE",
"176 690 LINE",
"297 718 OFFCURVE",
"449 734 OFFCURVE",
"513 734 CURVE SMOOTH",
"623 734 OFFCURVE",
"685 696 OFFCURVE",
"685 604 CURVE",
"685 434 LINE"
);
}
);
width = 1696;
}
);
unicode = 00E6;
},
{
color = 5;
glyphname = b;
lastChange = "2015-03-21 16:21:58 +0000";
layers = (
{
anchors = (
{
name = bottom;
position = "{602, 0}";
},
{
name = top;
position = "{602, 974}";
}
);
background = {
paths = (
{
closed = 1;
nodes = (
"486 532 OFFCURVE",
"386 617 OFFCURVE",
"386 746 CURVE",
"339 530 LINE",
"420 436 OFFCURVE",
"516 374 OFFCURVE",
"674 374 CURVE",
"871 374 OFFCURVE",
"1031 470 OFFCURVE",
"1031 693 CURVE SMOOTH",
"1031 915 OFFCURVE",
"868 1050 OFFCURVE",
"619 1050 CURVE SMOOTH",
"477 1050 OFFCURVE",
"409 1023 OFFCURVE",
"332 1002 CURVE",
"329 829 LINE",
"400 874 OFFCURVE",
"505 902 OFFCURVE",
"594 901 CURVE SMOOTH",
"750 899 OFFCURVE",
"855 826 OFFCURVE",
"854 702 CURVE SMOOTH",
"853 601 OFFCURVE",
"766 532 OFFCURVE",
"637 532 CURVE"
);
}
);
};
guideLines = (
{
position = "{578, 1516}";
}
);
layerId = "90678D68-BBCC-4545-9AE9-72D37A9CD052";
name = Regular;
paths = (
{
closed = 1;
nodes = (
"947 -23 OFFCURVE",
"1109 186 OFFCURVE",
"1109 509 CURVE SMOOTH",
"1109 803 OFFCURVE",
"963 1000 OFFCURVE",
"671 1000 CURVE",
"519 1000 OFFCURVE",
"396 940 OFFCURVE",
"302 820 CURVE",
"299 713 LINE",
"435 810 OFFCURVE",
"505 835 OFFCURVE",
"649 836 CURVE SMOOTH",
"833 837 OFFCURVE",
"933 700 OFFCURVE",
"933 511 CURVE SMOOTH",
"933 241 OFFCURVE",
"805 130 OFFCURVE",
"647 130 CURVE SMOOTH",
"536 130 OFFCURVE",
"333 179 OFFCURVE",
"333 418 CURVE",
"332 548 LINE",
"303 397 LINE",
"301 233 OFFCURVE",
"301 -23 OFFCURVE",
"635 -23 CURVE SMOOTH"
);
},
{
closed = 1;
nodes = (
"288 0 LINE",
"337 152 LINE",
"332 231 LINE",
"332 1516 LINE",
"167 1516 LINE",
"169 0 LINE"
);
}
);
width = 1204;
},
{
anchors = (
{
name = bottom;
position = "{574, 0}";
},
{
name = top;
position = "{574, 974}";
}
);
background = {
paths = (
{
closed = 1;
nodes = (
"256 182 LINE",
"256 0 LINE",
"164 0 LINE",
"164 1516 LINE",
"256 1516 LINE",
"256 813 LINE",
"260 813 LINE",
"333 964 OFFCURVE",
"479 1049 OFFCURVE",
"643 1049 CURVE SMOOTH",
"903 1049 OFFCURVE",
"1057 857 OFFCURVE",
"1057 549 CURVE SMOOTH",
"1057 206 OFFCURVE",
"871 -25 OFFCURVE",
"600 -25 CURVE SMOOTH",
"447 -25 OFFCURVE",
"333 44 OFFCURVE",
"260 182 CURVE"
);
},
{
closed = 1;
nodes = (
"256 434 LINE SMOOTH",
"256 229 OFFCURVE",
"397 59 OFFCURVE",
"608 59 CURVE SMOOTH",
"817 59 OFFCURVE",
"961 255 OFFCURVE",
"961 547 CURVE SMOOTH",
"961 803 OFFCURVE",
"831 965 OFFCURVE",
"631 965 CURVE SMOOTH",
"392 965 OFFCURVE",
"256 779 OFFCURVE",
"256 563 CURVE SMOOTH"
);
}
);
};
guideLines = (
{
position = "{575, 1516}";
}
);
layerId = "4CDE908C-C807-45B0-BC73-FFDEB9F34183";
name = Light;
paths = (
{
closed = 1;
nodes = (
"905 -23 OFFCURVE",
"1057 186 OFFCURVE",
"1057 509 CURVE SMOOTH",
"1057 803 OFFCURVE",
"914 1000 OFFCURVE",
"629 1000 CURVE",
"469 1000 OFFCURVE",
"339 943 OFFCURVE",
"240 830 CURVE",
"227 713 LINE",
"386 865 OFFCURVE",
"468 904 OFFCURVE",
"637 906 CURVE SMOOTH",
"847 907 OFFCURVE",
"961 740 OFFCURVE",
"961 511 CURVE SMOOTH",
"961 190 OFFCURVE",
"797 58 OFFCURVE",
"615 58 CURVE SMOOTH",
"387 58 OFFCURVE",
"254 167 OFFCURVE",
"254 358 CURVE",
"253 448 LINE",
"235 337 LINE",
"231 84 OFFCURVE",
"345 -23 OFFCURVE",
"613 -23 CURVE SMOOTH"
);
},
{
closed = 1;
nodes = (
"210 0 LINE SMOOTH",
"264 167 LINE",
"254 231 LINE",
"254 1516 LINE",
"164 1516 LINE",
"166 0 LINE"
);
}
);
width = 1147;
},
{
anchors = (
{
name = bottom;
position = "{635, 0}";
},
{
name = top;
position = "{635, 974}";
}
);
background = {
paths = (
{
closed = 1;
nodes = (
"449 119 LINE",
"449 0 LINE",
"133 0 LINE",
"133 1516 LINE",
"449 1516 LINE",
"449 870 LINE",
"453 870 LINE",
"531 989 OFFCURVE",
"642 1049 OFFCURVE",
"786 1049 CURVE SMOOTH",
"1050 1049 OFFCURVE",
"1198 856 OFFCURVE",
"1198 541 CURVE SMOOTH",
"1198 200 OFFCURVE",
"1018 -25 OFFCURVE",
"739 -25 CURVE SMOOTH",
"613 -25 OFFCURVE",
"518 23 OFFCURVE",
"453 119 CURVE"
);
},
{
closed = 1;
nodes = (
"444 446 LINE SMOOTH",
"444 314 OFFCURVE",
"528 217 OFFCURVE",
"647 217 CURVE SMOOTH",
"791 217 OFFCURVE",
"874 333 OFFCURVE",
"874 537 CURVE SMOOTH",
"874 706 OFFCURVE",
"799 807 OFFCURVE",
"664 807 CURVE SMOOTH",
"537 807 OFFCURVE",
"444 703 OFFCURVE",
"444 551 CURVE SMOOTH"
);
}
);
};
guideLines = (
{
position = "{578, 1516}";
}
);
layerId = "7FD739B0-27A2-4428-8CD0-260441CCC696";
name = Bold;
paths = (
{
closed = 1;
nodes = (
"1033 -23 OFFCURVE",
"1198 186 OFFCURVE",
"1198 509 CURVE SMOOTH",
"1198 803 OFFCURVE",
"1022 1000 OFFCURVE",
"746 1000 CURVE",
"581 1000 OFFCURVE",
"454 893 OFFCURVE",
"419 820 CURVE",
"416 633 LINE",
"475 710 OFFCURVE",
"553 755 OFFCURVE",
"649 756 CURVE SMOOTH",
"791 757 OFFCURVE",
"873 668 OFFCURVE",
"873 511 CURVE SMOOTH",
"873 326 OFFCURVE",
"802 220 OFFCURVE",
"677 220 CURVE SMOOTH",
"533 220 OFFCURVE",
"450 325 OFFCURVE",
"450 508 CURVE",
"449 618 LINE",
"430 397 LINE",
"427 233 OFFCURVE",
"428 -23 OFFCURVE",
"715 -23 CURVE SMOOTH"
);
},
{
closed = 1;
nodes = (
"405 0 LINE",
"454 152 LINE",
"449 231 LINE",
"449 1516 LINE",
"133 1516 LINE",
"135 0 LINE"
);
}
);
width = 1270;
}
);
unicode = 0062;
userData = {
com.typemytype.robofont.layerData = {
SegoeUI = {
anchors = (
);
components = (
);
contours = (
{
points = (
{
segmentType = line;
smooth = 0;
x = 641;
y = "-24";
},
{
smooth = 0;
x = 786;
y = "-24";
},
{
smooth = 0;
x = 900;
y = 28;
},
{
segmentType = curve;
smooth = 1;
x = 983;
y = 131;
},
{
smooth = 0;
x = 1066;
y = 234;
},
{
smooth = 0;
x = 1108;
y = 371;
},
{
segmentType = curve;
smooth = 1;
x = 1108;
y = 542;
},
{
smooth = 0;
x = 1108;
y = 696;
},
{
smooth = 0;
x = 1071;
y = 819;
},
{
segmentType = curve;
smooth = 1;
x = 997;
y = 911;
},
{
smooth = 0;
x = 923;
y = 1003;
},
{
smooth = 0;
x = 820;
y = 1049;
},
{
segmentType = curve;
smooth = 1;
x = 689;
y = 1049;
},
{
smooth = 0;
x = 612;
y = 1049;
},
{
smooth = 0;
x = 544;
y = 1032;
},
{
segmentType = curve;
smooth = 1;
x = 485;
y = 998;
},
{
smooth = 0;
x = 426;
y = 964;
},
{
smooth = 0;
x = 376;
y = 913;
},
{
segmentType = curve;
smooth = 0;
x = 335;
y = 845;
},
{
segmentType = line;
smooth = 0;
x = 331;
y = 845;
},
{
segmentType = line;
smooth = 0;
x = 331;
y = 1517;
},
{
segmentType = line;
smooth = 0;
x = 167;
y = 1517;
},
{
segmentType = line;
smooth = 0;
x = 167;
y = 1;
},
{
segmentType = line;
smooth = 0;
x = 331;
y = 1;
},
{
segmentType = line;
smooth = 0;
x = 331;
y = 149;
},
{
segmentType = line;
smooth = 0;
x = 335;
y = 149;
},
{
smooth = 0;
x = 370;
y = 92;
},
{
smooth = 0;
x = 413;
y = 49;
},
{
segmentType = curve;
smooth = 1;
x = 464;
y = 20;
},
{
smooth = 0;
x = 515;
y = "-9";
},
{
smooth = 0;
x = 574;
y = "-23";
},
{
segmentType = curve;
smooth = 0;
x = 641;
y = "-23";
}
);
},
{
points = (
{
segmentType = curve;
smooth = 1;
x = 647;
y = 911;
},
{
smooth = 0;
x = 737;
y = 911;
},
{
smooth = 0;
x = 808;
y = 879;
},
{
segmentType = curve;
smooth = 1;
x = 861;
y = 814;
},
{
smooth = 0;
x = 914;
y = 749;
},
{
smooth = 0;
x = 940;
y = 660;
},
{
segmentType = curve;
smooth = 1;
x = 940;
y = 546;
},
{
smooth = 0;
x = 940;
y = 411;
},
{
smooth = 0;
x = 912;
y = 305;
},
{
segmentType = curve;
smooth = 1;
x = 856;
y = 229;
},
{
smooth = 0;
x = 800;
y = 153;
},
{
smooth = 0;
x = 722;
y = 115;
},
{
segmentType = curve;
smooth = 1;
x = 623;
y = 115;
},
{
smooth = 0;
x = 538;
y = 115;
},
{
smooth = 0;
x = 468;
y = 145;
},
{
segmentType = curve;
smooth = 1;
x = 413;
y = 204;
},
{
smooth = 0;
x = 358;
y = 263;
},
{
smooth = 0;
x = 330;
y = 335;
},
{
segmentType = curve;
smooth = 1;
x = 330;
y = 420;
},
{
segmentType = line;
smooth = 1;
x = 330;
y = 563;
},
{
smooth = 0;
x = 330;
y = 663;
},
{
smooth = 0;
x = 359;
y = 746;
},
{
segmentType = curve;
smooth = 1;
x = 417;
y = 812;
},
{
smooth = 0;
x = 475;
y = 878;
},
{
smooth = 0;
x = 552;
y = 911;
}
);
}
);
lib = {
};
name = b;
unicodes = (
);
width = 1204;
};
guidelines = {
anchors = (
);
components = (
);
contours = (
);
lib = {
};
name = b;
unicodes = (
);
width = 1204;
};
};
};
},
{
color = 5;
glyphname = c;
lastChange = "2015-04-04 06:40:05 +0000";
layers = (
{
anchors = (
{
name = bottom;
position = "{573, 0}";
},
{
name = top;
position = "{473, 974}";
}
);
background = {
paths = (
{
closed = 1;
nodes = (
"623 893 OFFCURVE",
"741 871 OFFCURVE",
"847 836 CURVE",
"887 992 LINE",
"784 1028 OFFCURVE",
"651 1050 OFFCURVE",
"559 1050 CURVE",
"326 1048 OFFCURVE",
"240 904 OFFCURVE",
"240 755 CURVE",
"733 547 OFFCURVE",
"899 685 OFFCURVE",
"410 780 CURVE",
"410 854 OFFCURVE",
"456 893 OFFCURVE",
"550 893 CURVE SMOOTH"
);
},
{
closed = 0;
nodes = (
"45 518 LINE SMOOTH",
"45 179 OFFCURVE",
"239 -23 OFFCURVE",
"542 -23 CURVE SMOOTH",
"660 -23 OFFCURVE",
"825 7 OFFCURVE",
"920 47 CURVE",
"869 187 LINE",
"767 150 OFFCURVE",
"664 133 OFFCURVE",
"577 133 CURVE SMOOTH",
"339 133 OFFCURVE",
"221 263 OFFCURVE",
"221 516 CURVE SMOOTH"
);
}
);
};
layerId = "90678D68-BBCC-4545-9AE9-72D37A9CD052";
name = Regular;
paths = (
{
closed = 1;
nodes = (
"688 -23 OFFCURVE",
"811 4 OFFCURVE",
"920 45 CURVE",
"869 197 LINE",
"775 162 OFFCURVE",
"710 138 OFFCURVE",
"611 138 CURVE SMOOTH",
"397 138 OFFCURVE",
"276 248 OFFCURVE",
"276 490 CURVE",
"276 709 OFFCURVE",
"364 831 OFFCURVE",
"593 831 CURVE SMOOTH",
"701 831 OFFCURVE",
"787 803 OFFCURVE",
"847 776 CURVE",
"887 942 LINE",
"816 976 OFFCURVE",
"704 1000 OFFCURVE",
"592 998 CURVE",
"273 1000 OFFCURVE",
"95 795 OFFCURVE",
"95 485 CURVE SMOOTH",
"95 170 OFFCURVE",
"273 -23 OFFCURVE",
"578 -23 CURVE SMOOTH"
);
}
);
width = 946;
},
{
anchors = (
{
name = bottom;
position = "{495, 0}";
},
{
name = top;
position = "{455, 974}";
}
);
background = {
paths = (
{
closed = 1;
nodes = (
"827 45 LINE",
"751 -2 OFFCURVE",
"660 -25 OFFCURVE",
"555 -25 CURVE SMOOTH",
"276 -25 OFFCURVE",
"90 185 OFFCURVE",
"90 494 CURVE SMOOTH",
"90 819 OFFCURVE",
"303 1049 OFFCURVE",
"604 1049 CURVE SMOOTH",
"682 1049 OFFCURVE",
"758 1033 OFFCURVE",
"831 1001 CURVE",
"831 897 LINE",
"758 942 OFFCURVE",
"677 965 OFFCURVE",
"590 965 CURVE SMOOTH",
"350 965 OFFCURVE",
"186 775 OFFCURVE",
"186 500 CURVE SMOOTH",
"186 235 OFFCURVE",
"335 59 OFFCURVE",
"559 59 CURVE SMOOTH",
"662 59 OFFCURVE",
"751 86 OFFCURVE",
"827 141 CURVE"
);
}
);
};
layerId = "4CDE908C-C807-45B0-BC73-FFDEB9F34183";
name = Light;
paths = (
{
closed = 1;
nodes = (
"679 -23 OFFCURVE",
"790 7 OFFCURVE",
"878 60 CURVE",
"844 147 LINE",
"750 97 OFFCURVE",
"663 68 OFFCURVE",
"606 68 CURVE SMOOTH",
"342 68 OFFCURVE",
"191 222 OFFCURVE",
"191 490 CURVE",
"191 753 OFFCURVE",
"336 906 OFFCURVE",
"588 910 CURVE SMOOTH",
"667 912 OFFCURVE",
"748 893 OFFCURVE",
"812 857 CURVE",
"852 942 LINE",
"786 980 OFFCURVE",
"690 1000 OFFCURVE",
"587 998 CURVE",
"271 1000 OFFCURVE",
"90 813 OFFCURVE",
"90 485 CURVE SMOOTH",
"90 162 OFFCURVE",
"266 -23 OFFCURVE",
"573 -23 CURVE SMOOTH"
);
}
);
width = 909;
},
{
anchors = (
{
name = bottom;
position = "{542, 0}";
},
{
name = top;
position = "{582, 974}";
}
);
background = {
paths = (
{
closed = 1;
nodes = (
"909 37 LINE",
"838 -4 OFFCURVE",
"735 -25 OFFCURVE",
"600 -25 CURVE SMOOTH",
"285 -25 OFFCURVE",
"72 186 OFFCURVE",
"72 487 CURVE SMOOTH",
"72 835 OFFCURVE",
"298 1049 OFFCURVE",
"647 1049 CURVE SMOOTH",
"768 1049 OFFCURVE",
"855 1033 OFFCURVE",
"909 1001 CURVE",
"909 733 LINE",
"843 782 OFFCURVE",
"769 807 OFFCURVE",
"688 807 CURVE SMOOTH",
"507 807 OFFCURVE",
"393 695 OFFCURVE",
"393 508 CURVE SMOOTH",
"393 327 OFFCURVE",
"501 217 OFFCURVE",
"678 217 CURVE SMOOTH",
"757 217 OFFCURVE",
"834 242 OFFCURVE",
"909 291 CURVE"
);
}
);
};
layerId = "7FD739B0-27A2-4428-8CD0-260441CCC696";
name = Bold;
paths = (
{
closed = 1;
nodes = (
"682 -23 OFFCURVE",
"814 0 OFFCURVE",
"930 35 CURVE",
"859 277 LINE",
"784 254 OFFCURVE",
"732 238 OFFCURVE",
"653 238 CURVE SMOOTH",
"489 238 OFFCURVE",
"396 317 OFFCURVE",
"396 490 CURVE",
"396 645 OFFCURVE",
"470 731 OFFCURVE",
"665 731 CURVE SMOOTH",
"755 731 OFFCURVE",
"827 713 OFFCURVE",
"877 696 CURVE",
"927 942 LINE",
"844 976 OFFCURVE",
"713 1000 OFFCURVE",
"582 998 CURVE",
"256 1000 OFFCURVE",
"74 795 OFFCURVE",
"74 485 CURVE SMOOTH",
"74 170 OFFCURVE",
"256 -23 OFFCURVE",
"568 -23 CURVE SMOOTH"
);
}
);
width = 983;
}
);
unicode = 0063;
userData = {
com.typemytype.robofont.layerData = {
SegoeUI = {
anchors = (
);
components = (
);
contours = (
{
points = (
{
segmentType = line;
smooth = 0;
x = 864;
y = 203;
},
{
smooth = 0;
x = 825;
y = 174;
},
{
smooth = 0;
x = 784;
y = 152;
},
{
segmentType = curve;
smooth = 1;
x = 742;
y = 137;
},
{
smooth = 0;
x = 700;
y = 122;
},
{
smooth = 0;
x = 657;
y = 114;
},
{
segmentType = curve;
smooth = 1;
x = 612;
y = 114;
},
{
smooth = 0;
x = 506;
y = 114;
},
{
smooth = 0;
x = 421;
y = 149;
},
{
segmentType = curve;
smooth = 1;
x = 358;
y = 218;
},
{
smooth = 0;
x = 295;
y = 287;
},
{
smooth = 0;
x = 263;
y = 382;
},
{
segmentType = curve;
smooth = 1;
x = 263;
y = 502;
},
{
smooth = 0;
x = 263;
y = 624;
},
{
smooth = 0;
x = 297;
y = 723;
},
{
segmentType = curve;
smooth = 1;
x = 364;
y = 798;
},
{
smooth = 0;
x = 431;
y = 873;
},
{
smooth = 0;
x = 517;
y = 911;
},
{
segmentType = curve;
smooth = 1;
x = 622;
y = 911;
},
{
smooth = 0;
x = 665;
y = 911;
},
{
smooth = 0;
x = 707;
y = 904;
},
{
segmentType = curve;
smooth = 1;
x = 748;
y = 891;
},
{
smooth = 0;
x = 789;
y = 878;
},
{
smooth = 0;
x = 828;
y = 858;
},
{
segmentType = curve;
smooth = 0;
x = 866;
y = 831;
},
{
segmentType = line;
smooth = 0;
x = 866;
y = 999;
},
{
smooth = 0;
x = 832;
y = 1016;
},
{
smooth = 0;
x = 795;
y = 1029;
},
{
segmentType = curve;
smooth = 1;
x = 755;
y = 1037;
},
{
smooth = 0;
x = 715;
y = 1045;
},
{
smooth = 0;
x = 672;
y = 1049;
},
{
segmentType = curve;
smooth = 1;
x = 627;
y = 1049;
},
{
smooth = 0;
x = 466;
y = 1049;
},
{
smooth = 0;
x = 337;
y = 998;
},
{
segmentType = curve;
smooth = 1;
x = 240;
y = 896;
},
{
smooth = 0;
x = 143;
y = 794;
},
{
smooth = 0;
x = 95;
y = 658;
},
{
segmentType = curve;
smooth = 1;
x = 95;
y = 489;
},
{
smooth = 0;
x = 95;
y = 338;
},
{
smooth = 0;
x = 140;
y = 215;
},
{
segmentType = curve;
smooth = 1;
x = 230;
y = 120;
},
{
smooth = 0;
x = 320;
y = 25;
},
{
smooth = 0;
x = 438;
y = "-23";
},
{
segmentType = curve;
smooth = 1;
x = 584;
y = "-23";
},
{
smooth = 0;
x = 638;
y = "-23";
},
{
smooth = 0;
x = 688;
y = "-17";
},
{
segmentType = curve;
smooth = 1;
x = 735;
y = "-5";
},
{
smooth = 0;
x = 782;
y = 7;
},
{
smooth = 0;
x = 825;
y = 25;
},
{
segmentType = curve;
smooth = 0;
x = 864;
y = 48;
}
);
}
);
lib = {
};
name = c;
unicodes = (
);
width = 946;
};
guidelines = {
anchors = (
);
components = (
);
contours = (
);
lib = {
};
name = c;
unicodes = (
);
width = 946;
};
};
};
},
{
color = 5;
glyphname = d;
lastChange = "2015-04-04 06:41:26 +0000";
layers = (
{
anchors = (
{
name = bottom;
position = "{603, 0}";
},
{
name = center;
position = "{603, 487}";
},
{
name = top;
position = "{603, 974}";
},
{
name = topright;
position = "{1186, 974}";
}
);
background = {
paths = (
{
closed = 1;
nodes = (
"958 900 LINE",
"891 971 OFFCURVE",
"788 1050 OFFCURVE",
"590 1050 CURVE",
"298 1050 OFFCURVE",
"152 831 OFFCURVE",
"152 504 CURVE SMOOTH",
"152 184 OFFCURVE",
"314 -23 OFFCURVE",
"626 -23 CURVE SMOOTH",
"960 -23 OFFCURVE",
"959 233 OFFCURVE",
"957 397 CURVE",
"927 548 LINE",
"927 418 LINE",
"927 183 OFFCURVE",
"725 135 OFFCURVE",
"614 135 CURVE SMOOTH",
"459 135 OFFCURVE",
"333 243 OFFCURVE",
"333 506 CURVE SMOOTH",
"333 726 OFFCURVE",
"431 887 OFFCURVE",
"602 886 CURVE SMOOTH",
"768 885 OFFCURVE",
"876 803 OFFCURVE",
"961 723 CURVE"
);
}
);
};
guideLines = (
{
position = "{222, 158}";
}
);
layerId = "90678D68-BBCC-4545-9AE9-72D37A9CD052";
name = Regular;
paths = (
{
closed = 1;
nodes = (
"802 -23 OFFCURVE",
"936 110 OFFCURVE",
"936 360 CURVE",
"876 453 LINE",
"876 252 OFFCURVE",
"773 134 OFFCURVE",
"577 134 CURVE SMOOTH",
"361 134 OFFCURVE",
"275 323 OFFCURVE",
"275 483 CURVE SMOOTH",
"275 712 OFFCURVE",
"401 851 OFFCURVE",
"604 851 CURVE SMOOTH",
"686 851 OFFCURVE",
"816 826 OFFCURVE",
"912 717 CURVE",
"929 850 LINE",
"825 950 OFFCURVE",
"713 1000 OFFCURVE",
"591 1000 CURVE SMOOTH",
"294 1000 OFFCURVE",
"99 789 OFFCURVE",
"99 472 CURVE SMOOTH",
"99 173 OFFCURVE",
"273 -22.994 OFFCURVE",
"537 -23 CURVE"
);
},
{
closed = 1;
nodes = (
"1127 28 LINE",
"1075 122 OFFCURVE",
"1041 223 OFFCURVE",
"1040 330 CURVE",
"876 328 LINE",
"876 198 OFFCURVE",
"918 75 OFFCURVE",
"982 -39 CURVE"
);
},
{
closed = 1;
nodes = (
"1040 1517 LINE",
"876 1517 LINE",
"876 214 LINE",
"1040 211 LINE"
);
}
);
width = 1206;
},
{
anchors = (
{
name = bottom;
position = "{574, 0}";
},
{
name = center;
position = "{574, 487}";
},
{
name = top;
position = "{574, 974}";
},
{
name = topright;
position = "{1137, 974}";
}
);
background = {
paths = (
{
closed = 1;
nodes = (
"891 0 LINE",
"891 186 LINE",
"887 186 LINE",
"820 57 OFFCURVE",
"682 -25 OFFCURVE",
"518 -25 CURVE SMOOTH",
"266 -25 OFFCURVE",
"90 170 OFFCURVE",
"90 494 CURVE SMOOTH",
"90 825 OFFCURVE",
"282 1049 OFFCURVE",
"559 1049 CURVE SMOOTH",
"712 1049 OFFCURVE",
"822 986 OFFCURVE",
"887 860 CURVE",
"891 860 LINE",
"891 1516 LINE",
"983 1516 LINE",
"983 0 LINE"
);
},
{
closed = 1;
nodes = (
"891 623 LINE SMOOTH",
"891 814 OFFCURVE",
"761 965 OFFCURVE",
"557 965 CURVE SMOOTH",
"342 965 OFFCURVE",
"186 790 OFFCURVE",
"186 502 CURVE SMOOTH",
"186 219 OFFCURVE",
"325 59 OFFCURVE",
"524 59 CURVE SMOOTH",
"757 59 OFFCURVE",
"891 224 OFFCURVE",
"891 432 CURVE SMOOTH"
);
}
);
};
guideLines = (
{
position = "{222, 158}";
}
);
layerId = "4CDE908C-C807-45B0-BC73-FFDEB9F34183";
name = Light;
paths = (
{
closed = 1;
nodes = (
"784 -23 OFFCURVE",
"926 99 OFFCURVE",
"926 310 CURVE",
"889 413 LINE",
"889 201 OFFCURVE",
"763 64 OFFCURVE",
"575 64 CURVE SMOOTH",
"327 64 OFFCURVE",
"186 213 OFFCURVE",
"186 473 CURVE SMOOTH",
"186 751 OFFCURVE",
"338 911 OFFCURVE",
"602 911 CURVE SMOOTH",
"705 911 OFFCURVE",
"815 855 OFFCURVE",
"903 757 CURVE",
"910 850 LINE",
"810 945 OFFCURVE",
"693 1000 OFFCURVE",
"589 1000 CURVE SMOOTH",
"272 1000 OFFCURVE",
"90 804 OFFCURVE",
"90 462 CURVE SMOOTH",
"90 154 OFFCURVE",
"252 -23 OFFCURVE",
"535 -23 CURVE"
);
},
{
closed = 1;
nodes = (
"1070 28 LINE",
"1018 122 OFFCURVE",
"984 223 OFFCURVE",
"983 330 CURVE",
"889 328 LINE",
"889 198 OFFCURVE",
"931 75 OFFCURVE",
"995 -39 CURVE"
);
},
{
closed = 1;
nodes = (
"983 1517 LINE",
"889 1517 LINE",
"889 328 LINE",
"983 211 LINE"
);
}
);
width = 1147;
},
{
anchors = (
{
name = bottom;
position = "{634, 0}";
},
{
name = center;
position = "{634, 487}";
},
{
name = top;
position = "{634, 974}";
},
{
name = topright;
position = "{1248, 974}";
}
);
background = {
paths = (
{
closed = 1;
nodes = (
"1135 0 LINE",
"819 0 LINE",
"819 141 LINE",
"815 141 LINE",
"743 30 OFFCURVE",
"637 -25 OFFCURVE",
"498 -25 CURVE SMOOTH",
"242 -25 OFFCURVE",
"72 165 OFFCURVE",
"72 489 CURVE SMOOTH",
"72 828 OFFCURVE",
"260 1049 OFFCURVE",
"539 1049 CURVE SMOOTH",
"671 1049 OFFCURVE",
"763 1002 OFFCURVE",
"815 907 CURVE",
"819 907 LINE",
"819 1516 LINE",
"1135 1516 LINE"
);
},
{
closed = 1;
nodes = (
"825 575 LINE SMOOTH",
"825 708 OFFCURVE",
"740 807 OFFCURVE",
"616 807 CURVE SMOOTH",
"476 807 OFFCURVE",
"393 690 OFFCURVE",
"393 498 CURVE SMOOTH",
"393 318 OFFCURVE",
"473 217 OFFCURVE",
"608 217 CURVE SMOOTH",
"736 217 OFFCURVE",
"825 329 OFFCURVE",
"825 498 CURVE SMOOTH"
);
}
);
};
guideLines = (
{
position = "{222, 158}";
}
);
layerId = "7FD739B0-27A2-4428-8CD0-260441CCC696";
name = Bold;
paths = (
{
closed = 1;
nodes = (
"769 -23 OFFCURVE",
"885 124 OFFCURVE",
"885 400 CURVE",
"825 493 LINE",
"825 324 OFFCURVE",
"740 224 OFFCURVE",
"577 224 CURVE SMOOTH",
"461 224 OFFCURVE",
"395 318 OFFCURVE",
"395 483 CURVE SMOOTH",
"395 656 OFFCURVE",
"471 755 OFFCURVE",
"604 755 CURVE SMOOTH",
"725 755 OFFCURVE",
"837 706 OFFCURVE",
"912 621 CURVE",
"929 849 LINE",
"825 949 OFFCURVE",
"713 999 OFFCURVE",
"591 999 CURVE SMOOTH",
"278 999 OFFCURVE",
"72 788 OFFCURVE",
"72 472 CURVE SMOOTH",
"72 173 OFFCURVE",
"217 -23 OFFCURVE",
"537 -23 CURVE"
);
},
{
closed = 1;
nodes = (
"1232 38 LINE",
"1177 151 OFFCURVE",
"1135 229 OFFCURVE",
"1135 450 CURVE",
"826 328 LINE",
"826 198 OFFCURVE",
"860 75 OFFCURVE",
"912 -39 CURVE"
);
},
{
closed = 1;
nodes = (
"1135 1517 LINE",
"826 1517 LINE",
"826 328 LINE",
"1135 211 LINE"
);
}
);
width = 1268;
}
);
unicode = 0064;
userData = {
com.typemytype.robofont.image = {
brightness = 0;
color = (
0,
0,
1,
0
);
contrast = 1;
path = "/var/folders/wx/r1w7d8f1373_lvr_cqc1lb000000gn/T/tmpc1bjSu";
saturation = 1;
sharpness = 0;
transform = (
0,
"-0.01364737406170884",
0,
0,
"-0.02897395686034088",
"-246.116230043448"
);
};
com.typemytype.robofont.layerData = {
SegoeUI = {
anchors = (
);
components = (
);
contours = (
{
points = (
{
segmentType = line;
smooth = 0;
x = 568;
y = 114;
},
{
smooth = 0;
x = 475;
y = 114;
},
{
smooth = 0;
x = 401;
y = 148;
},
{
segmentType = curve;
smooth = 1;
x = 346;
y = 216;
},
{
smooth = 0;
x = 291;
y = 284;
},
{
smooth = 0;
x = 263;
y = 377;
},
{
segmentType = curve;
smooth = 1;
x = 263;
y = 495;
},
{
smooth = 0;
x = 263;
y = 624;
},
{
smooth = 0;
x = 292;
y = 725;
},
{
segmentType = curve;
smooth = 1;
x = 349;
y = 798;
},
{
smooth = 0;
x = 406;
y = 871;
},
{
smooth = 0;
x = 485;
y = 908;
},
{
segmentType = curve;
smooth = 1;
x = 585;
y = 908;
},
{
smooth = 0;
x = 669;
y = 908;
},
{
smooth = 0;
x = 738;
y = 879;
},
{
segmentType = curve;
smooth = 1;
x = 793;
y = 822;
},
{
smooth = 0;
x = 848;
y = 765;
},
{
smooth = 0;
x = 875;
y = 695;
},
{
segmentType = curve;
smooth = 1;
x = 875;
y = 612;
},
{
segmentType = line;
smooth = 1;
x = 875;
y = 461;
},
{
smooth = 0;
x = 875;
y = 360;
},
{
smooth = 0;
x = 846;
y = 277;
},
{
segmentType = curve;
smooth = 1;
x = 789;
y = 211;
},
{
smooth = 0;
x = 732;
y = 145;
},
{
smooth = 0;
x = 658;
y = 112;
},
{
segmentType = curve;
smooth = 0;
x = 567;
y = 112;
}
);
},
{
points = (
{
segmentType = line;
smooth = 0;
x = 1039;
y = 1514;
},
{
segmentType = line;
smooth = 0;
x = 875;
y = 1514;
},
{
segmentType = line;
smooth = 0;
x = 875;
y = 880;
},
{
segmentType = line;
smooth = 0;
x = 871;
y = 880;
},
{
smooth = 0;
x = 839;
y = 935;
},
{
smooth = 0;
x = 797;
y = 977;
},
{
segmentType = curve;
smooth = 1;
x = 746;
y = 1005;
},
{
smooth = 0;
x = 695;
y = 1033;
},
{
smooth = 0;
x = 634;
y = 1047;
},
{
segmentType = curve;
smooth = 1;
x = 563;
y = 1047;
},
{
smooth = 0;
x = 421;
y = 1047;
},
{
smooth = 0;
x = 307;
y = 996;
},
{
segmentType = curve;
smooth = 1;
x = 222;
y = 894;
},
{
smooth = 0;
x = 137;
y = 792;
},
{
smooth = 0;
x = 94;
y = 656;
},
{
segmentType = curve;
smooth = 1;
x = 94;
y = 487;
},
{
smooth = 0;
x = 94;
y = 329;
},
{
smooth = 0;
x = 133;
y = 204;
},
{
segmentType = curve;
smooth = 1;
x = 210;
y = 112;
},
{
smooth = 0;
x = 287;
y = 20;
},
{
smooth = 0;
x = 390;
y = "-26";
},
{
segmentType = curve;
smooth = 1;
x = 519;
y = "-26";
},
{
smooth = 0;
x = 598;
y = "-26";
},
{
smooth = 0;
x = 667;
y = "-9";
},
{
segmentType = curve;
smooth = 1;
x = 726;
y = 24;
},
{
smooth = 0;
x = 785;
y = 57;
},
{
smooth = 0;
x = 833;
y = 107;
},
{
segmentType = curve;
smooth = 0;
x = 871;
y = 173;
},
{
segmentType = line;
smooth = 0;
x = 875;
y = 173;
},
{
segmentType = line;
smooth = 0;
x = 875;
y = "-1";
},
{
segmentType = line;
smooth = 0;
x = 1039;
y = "-1";
}
);
}
);
lib = {
};
name = d;
unicodes = (
);
width = 1206;
};
guidelines = {
anchors = (
);
components = (
);
contours = (
);
lib = {
};
name = d;
unicodes = (
);
width = 1206;
};
};
};
},
{
glyphname = eth;
lastChange = "2015-03-23 07:06:27 +0000";
layers = (
{
background = {
anchors = (
{
name = bottom;
position = "{574, 0}";
},
{
name = center;
position = "{574, 487}";
},
{
name = top;
position = "{574, 974}";
},
{
name = topright;
position = "{1127, 974}";
}
);
};
layerId = "4CDE908C-C807-45B0-BC73-FFDEB9F34183";
name = Light;
paths = (
{
closed = 1;
nodes = (
"827 -25 OFFCURVE",
"999 197 OFFCURVE",
"999 510 CURVE SMOOTH",
"999 783 OFFCURVE",
"885 1075 OFFCURVE",
"668 1300 CURVE",
"948 1436 LINE",
"913 1507 LINE",
"612 1358 LINE",
"542 1423 OFFCURVE",
"480 1474 OFFCURVE",
"426 1513 CURVE",
"350 1471 LINE",
"458 1378 OFFCURVE",
"511 1330 OFFCURVE",
"528 1311 CURVE",
"252 1178 LINE",
"287 1108 LINE",
"586 1257 LINE",
"664 1180 OFFCURVE",
"737 1081 OFFCURVE",
"805 961 CURVE",
"801 956 LINE",
"736 1018 OFFCURVE",
"655 1049 OFFCURVE",
"557 1049 CURVE SMOOTH",
"277 1049 OFFCURVE",
"90 827 OFFCURVE",
"90 506 CURVE SMOOTH",
"90 182 OFFCURVE",
"254 -25 OFFCURVE",
"547 -25 CURVE SMOOTH"
);
},
{
closed = 1;
nodes = (
"322 59 OFFCURVE",
"186 228 OFFCURVE",
"186 504 CURVE SMOOTH",
"186 780 OFFCURVE",
"334 965 OFFCURVE",
"557 965 CURVE SMOOTH",
"788 965 OFFCURVE",
"903 814 OFFCURVE",
"903 512 CURVE SMOOTH",
"903 233 OFFCURVE",
"766 59 OFFCURVE",
"549 59 CURVE SMOOTH"
);
}
);
width = 1090;
},
{
layerId = "90678D68-BBCC-4545-9AE9-72D37A9CD052";
name = Regular;
paths = (
{
closed = 1;
nodes = (
"864 -22 OFFCURVE",
"1048 206 OFFCURVE",
"1048 526 CURVE SMOOTH",
"1048 837 OFFCURVE",
"939 1095 OFFCURVE",
"721 1300 CURVE",
"985 1430 LINE",
"930 1524 LINE",
"641 1380 LINE",
"580 1432 OFFCURVE",
"527 1475 OFFCURVE",
"479 1509 CURVE",
"370 1424 LINE",
"417 1389 OFFCURVE",
"470 1352 OFFCURVE",
"512 1315 CURVE",
"242 1184 LINE",
"293 1086 LINE",
"592 1237 LINE",
"664 1168 OFFCURVE",
"730 1079 OFFCURVE",
"790 971 CURVE",
"786 968 LINE",
"728 1020 OFFCURVE",
"658 1046 OFFCURVE",
"576 1046 CURVE SMOOTH",
"283 1046 OFFCURVE",
"96 824 OFFCURVE",
"96 500 CURVE SMOOTH",
"96 177 OFFCURVE",
"272 -22 OFFCURVE",
"568 -22 CURVE SMOOTH"
);
},
{
closed = 1;
nodes = (
"381 114 OFFCURVE",
"264 265 OFFCURVE",
"264 506 CURVE SMOOTH",
"264 755 OFFCURVE",
"385 910 OFFCURVE",
"582 910 CURVE SMOOTH",
"781 910 OFFCURVE",
"880 777 OFFCURVE",
"880 510 CURVE SMOOTH",
"880 270 OFFCURVE",
"763 114 OFFCURVE",
"578 114 CURVE SMOOTH"
);
}
);
width = 1145;
},
{
background = {
paths = (
{
closed = 1;
nodes = (
"760 967 LINE",
"704 1065 OFFCURVE",
"639 1144 OFFCURVE",
"565 1204 CURVE",
"274 1061 LINE",
"193 1202 LINE",
"434 1317 LINE",
"329 1400 OFFCURVE",
"239 1467 OFFCURVE",
"164 1516 CURVE",
"516 1516 LINE",
"523 1512 OFFCURVE",
"567 1480 OFFCURVE",
"647 1419 CURVE",
"920 1552 LINE",
"997 1415 LINE",
"782 1311 LINE",
"1023 1117 OFFCURVE",
"1143 868 OFFCURVE",
"1143 563 CURVE SMOOTH",
"1143 216 OFFCURVE",
"925 -25 OFFCURVE",
"598 -25 CURVE SMOOTH",
"267 -25 OFFCURVE",
"72 181 OFFCURVE",
"72 514 CURVE SMOOTH",
"72 822 OFFCURVE",
"266 1040 OFFCURVE",
"551 1040 CURVE SMOOTH",
"629 1040 OFFCURVE",
"697 1015 OFFCURVE",
"756 965 CURVE"
);
},
{
closed = 1;
nodes = (
"475 807 OFFCURVE",
"393 695 OFFCURVE",
"393 514 CURVE SMOOTH",
"393 327 OFFCURVE",
"473 217 OFFCURVE",
"608 217 CURVE SMOOTH",
"739 217 OFFCURVE",
"821 333 OFFCURVE",
"821 520 CURVE SMOOTH",
"821 711 OFFCURVE",
"751 807 OFFCURVE",
"612 807 CURVE SMOOTH"
);
}
);
};
layerId = "7FD739B0-27A2-4428-8CD0-260441CCC696";
name = Bold;
paths = (
{
closed = 1;
nodes = (
"925 -25 OFFCURVE",
"1143 216 OFFCURVE",
"1143 563 CURVE SMOOTH",
"1143 868 OFFCURVE",
"1023 1117 OFFCURVE",
"782 1311 CURVE",
"997 1415 LINE",
"920 1552 LINE",
"647 1419 LINE",
"567 1480 OFFCURVE",
"485 1545 OFFCURVE",
"478 1549 CURVE",
"285 1434 LINE",
"318 1409 OFFCURVE",
"396 1347 OFFCURVE",
"434 1317 CURVE",
"193 1202 LINE",
"274 1061 LINE",
"565 1204 LINE",
"639 1144 OFFCURVE",
"704 1065 OFFCURVE",
"760 967 CURVE",
"756 965 LINE",
"697 1015 OFFCURVE",
"629 1040 OFFCURVE",
"551 1040 CURVE SMOOTH",
"266 1040 OFFCURVE",
"72 822 OFFCURVE",
"72 514 CURVE SMOOTH",
"72 181 OFFCURVE",
"267 -25 OFFCURVE",
"598 -25 CURVE SMOOTH"
);
},
{
closed = 1;
nodes = (
"473 217 OFFCURVE",
"393 327 OFFCURVE",
"393 514 CURVE SMOOTH",
"393 695 OFFCURVE",
"475 807 OFFCURVE",
"612 807 CURVE SMOOTH",
"751 807 OFFCURVE",
"821 711 OFFCURVE",
"821 520 CURVE SMOOTH",
"821 333 OFFCURVE",
"739 217 OFFCURVE",
"608 217 CURVE SMOOTH"
);
}
);
width = 1215;
}
);
unicode = 00F0;
},
{
glyphname = dcaron;
lastChange = "2015-12-01 17:25:43 +0000";
layers = (
{
background = {
paths = (
{
closed = 1;
nodes = (
"891 0 LINE",
"891 186 LINE",
"887 186 LINE",
"820 57 OFFCURVE",
"682 -25 OFFCURVE",
"518 -25 CURVE SMOOTH",
"266 -25 OFFCURVE",
"90 170 OFFCURVE",
"90 494 CURVE SMOOTH",
"90 825 OFFCURVE",
"282 1049 OFFCURVE",
"559 1049 CURVE SMOOTH",
"712 1049 OFFCURVE",
"822 986 OFFCURVE",
"887 860 CURVE",
"891 860 LINE",
"891 1516 LINE",
"983 1516 LINE",
"983 0 LINE"
);
},
{
closed = 1;
nodes = (
"891 623 LINE SMOOTH",
"891 814 OFFCURVE",
"761 965 OFFCURVE",
"557 965 CURVE SMOOTH",
"342 965 OFFCURVE",
"186 790 OFFCURVE",
"186 502 CURVE SMOOTH",
"186 219 OFFCURVE",
"325 59 OFFCURVE",
"524 59 CURVE SMOOTH",
"757 59 OFFCURVE",
"891 224 OFFCURVE",
"891 432 CURVE SMOOTH"
);
},
{
closed = 1;
nodes = (
"1301 1516 LINE",
"1175 1255 LINE",
"1096 1255 LINE",
"1189 1516 LINE"
);
}
);
};
components = (
{
name = d;
},
{
disableAlignment = 1;
name = caroncomb.alt;
transform = "{1, 0, 0, 1, 1062, 1}";
}
);
guideLines = (
{
position = "{1047, 1518}";
}
);
layerId = "4CDE908C-C807-45B0-BC73-FFDEB9F34183";
name = Light;
width = 1147;
},
{
background = {
paths = (
{
closed = 1;
nodes = (
"1043 0 LINE",
"879 0 LINE",
"879 174 LINE",
"875 174 LINE",
"799 42 OFFCURVE",
"682 -24 OFFCURVE",
"523 -24 CURVE SMOOTH",
"266 -24 OFFCURVE",
"99 172 OFFCURVE",
"99 488 CURVE SMOOTH",
"99 827 OFFCURVE",
"284 1048 OFFCURVE",
"568 1048 CURVE SMOOTH",
"709 1048 OFFCURVE",
"811 993 OFFCURVE",
"875 882 CURVE",
"879 882 LINE",
"879 1516 LINE",
"1043 1516 LINE"
);
},
{
closed = 1;
nodes = (
"879 614 LINE SMOOTH",
"879 779 OFFCURVE",
"757 910 OFFCURVE",
"589 910 CURVE SMOOTH",
"389 910 OFFCURVE",
"267 755 OFFCURVE",
"267 496 CURVE SMOOTH",
"267 260 OFFCURVE",
"386 114 OFFCURVE",
"571 114 CURVE SMOOTH",
"754 114 OFFCURVE",
"879 262 OFFCURVE",
"879 463 CURVE SMOOTH"
);
},
{
closed = 1;
nodes = (
"1462 1516 LINE",
"1296 1256 LINE",
"1173 1256 LINE",
"1290 1516 LINE"
);
}
);
};
components = (
{
name = d;
},
{
disableAlignment = 1;
name = caroncomb.alt;
transform = "{1, 0, 0, 1, 1041, 0}";
}
);
guideLines = (
{
position = "{1102, 1516}";
}
);
layerId = "90678D68-BBCC-4545-9AE9-72D37A9CD052";
name = Regular;
width = 1381;
},
{
background = {
paths = (
{
closed = 1;
nodes = (
"1135 0 LINE",
"819 0 LINE",
"819 141 LINE",
"815 141 LINE",
"743 30 OFFCURVE",
"637 -25 OFFCURVE",
"498 -25 CURVE SMOOTH",
"242 -25 OFFCURVE",
"72 165 OFFCURVE",
"72 489 CURVE SMOOTH",
"72 828 OFFCURVE",
"260 1049 OFFCURVE",
"539 1049 CURVE SMOOTH",
"671 1049 OFFCURVE",
"763 1002 OFFCURVE",
"815 907 CURVE",
"819 907 LINE",
"819 1516 LINE",
"1135 1516 LINE"
);
},
{
closed = 1;
nodes = (
"825 575 LINE SMOOTH",
"825 708 OFFCURVE",
"740 807 OFFCURVE",
"616 807 CURVE SMOOTH",
"476 807 OFFCURVE",
"393 690 OFFCURVE",
"393 498 CURVE SMOOTH",
"393 318 OFFCURVE",
"473 217 OFFCURVE",
"608 217 CURVE SMOOTH",
"736 217 OFFCURVE",
"825 329 OFFCURVE",
"825 498 CURVE SMOOTH"
);
},
{
closed = 1;
nodes = (
"1520 1516 LINE",
"1372 1164 LINE",
"1198 1164 LINE",
"1268 1516 LINE"
);
}
);
};
components = (
{
disableAlignment = 1;
name = d;
},
{
disableAlignment = 1;
name = caroncomb.alt;
transform = "{1, 0, 0, 1, 1134, 0}";
}
);
guideLines = (
{
position = "{1308, 1517}";
}
);
layerId = "7FD739B0-27A2-4428-8CD0-260441CCC696";
name = Bold;
width = 1417;
}
);
leftMetricsKey = "=d";
unicode = 010F;
},
{
glyphname = dcroat;
lastChange = "2015-04-09 22:30:18 +0000";
layers = (
{
background = {
paths = (
{
closed = 1;
nodes = (
"891 0 LINE",
"891 186 LINE",
"887 186 LINE",
"820 57 OFFCURVE",
"682 -25 OFFCURVE",
"518 -25 CURVE SMOOTH",
"266 -25 OFFCURVE",
"90 170 OFFCURVE",
"90 494 CURVE SMOOTH",
"90 825 OFFCURVE",
"282 1049 OFFCURVE",
"559 1049 CURVE SMOOTH",
"712 1049 OFFCURVE",
"822 986 OFFCURVE",
"887 860 CURVE",
"891 860 LINE",
"891 1231 LINE",
"556 1231 LINE",
"556 1315 LINE",
"891 1315 LINE",
"891 1516 LINE",
"983 1516 LINE",
"983 1315 LINE",
"1118 1315 LINE",
"1118 1231 LINE",
"983 1231 LINE",
"983 0 LINE"
);
},
{
closed = 1;
nodes = (
"891 623 LINE SMOOTH",
"891 814 OFFCURVE",
"761 965 OFFCURVE",
"557 965 CURVE SMOOTH",
"342 965 OFFCURVE",
"186 790 OFFCURVE",
"186 502 CURVE SMOOTH",
"186 219 OFFCURVE",
"325 59 OFFCURVE",
"524 59 CURVE SMOOTH",
"757 59 OFFCURVE",
"891 224 OFFCURVE",
"891 432 CURVE SMOOTH"
);
}
);
};
components = (
{
name = d;
},
{
name = strokeshortoverlaycomb;
transform = "{1, 0, 0, 1, 432, 562}";
}
);
layerId = "4CDE908C-C807-45B0-BC73-FFDEB9F34183";
name = Light;
width = 1147;
},
{
background = {
paths = (
{
closed = 1;
nodes = (
"1040 0 LINE",
"876 0 LINE",
"876 174 LINE",
"872 174 LINE",
"796 42 OFFCURVE",
"679 -24 OFFCURVE",
"520 -24 CURVE SMOOTH",
"263 -24 OFFCURVE",
"96 172 OFFCURVE",
"96 488 CURVE SMOOTH",
"96 827 OFFCURVE",
"281 1048 OFFCURVE",
"565 1048 CURVE SMOOTH",
"704 1048 OFFCURVE",
"806 993 OFFCURVE",
"872 882 CURVE",
"876 882 LINE",
"876 1202 LINE",
"545 1202 LINE",
"545 1336 LINE",
"876 1336 LINE",
"876 1516 LINE",
"1040 1516 LINE",
"1040 1336 LINE",
"1176 1336 LINE",
"1176 1202 LINE",
"1040 1202 LINE"
);
},
{
closed = 1;
nodes = (
"876 614 LINE SMOOTH",
"876 779 OFFCURVE",
"754 910 OFFCURVE",
"586 910 CURVE SMOOTH",
"386 910 OFFCURVE",
"264 755 OFFCURVE",
"264 496 CURVE SMOOTH",
"264 260 OFFCURVE",
"383 114 OFFCURVE",
"568 114 CURVE SMOOTH",
"749 114 OFFCURVE",
"876 262 OFFCURVE",
"876 463 CURVE SMOOTH"
);
}
);
};
components = (
{
name = d;
},
{
name = strokeshortoverlaycomb;
transform = "{1, 0, 0, 1, 483, 556}";
}
);
layerId = "90678D68-BBCC-4545-9AE9-72D37A9CD052";
name = Regular;
width = 1206;
},
{
background = {
paths = (
{
closed = 1;
nodes = (
"1278 1171 LINE",
"1135 1171 LINE",
"1135 0 LINE",
"819 0 LINE",
"819 141 LINE",
"815 141 LINE",
"743 30 OFFCURVE",
"637 -25 OFFCURVE",
"498 -25 CURVE SMOOTH",
"242 -25 OFFCURVE",
"72 165 OFFCURVE",
"72 489 CURVE SMOOTH",
"72 828 OFFCURVE",
"260 1049 OFFCURVE",
"539 1049 CURVE SMOOTH",
"671 1049 OFFCURVE",
"763 1002 OFFCURVE",
"815 907 CURVE",
"819 907 LINE",
"819 1171 LINE",
"489 1171 LINE",
"489 1376 LINE",
"819 1376 LINE",
"819 1516 LINE",
"1135 1516 LINE",
"1135 1376 LINE",
"1278 1376 LINE"
);
},
{
closed = 1;
nodes = (
"825 575 LINE SMOOTH",
"825 708 OFFCURVE",
"740 807 OFFCURVE",
"616 807 CURVE SMOOTH",
"476 807 OFFCURVE",
"393 690 OFFCURVE",
"393 498 CURVE SMOOTH",
"393 318 OFFCURVE",
"473 217 OFFCURVE",
"608 217 CURVE SMOOTH",
"736 217 OFFCURVE",
"825 329 OFFCURVE",
"825 498 CURVE SMOOTH"
);
}
);
};
components = (
{
disableAlignment = 1;
name = d;
},
{
name = strokeshortoverlaycomb;
transform = "{1, 0, 0, 1, 528, 521}";
}
);
layerId = "7FD739B0-27A2-4428-8CD0-260441CCC696";
name = Bold;
width = 1295;
}
);
unicode = 0111;
},
{
color = 5;
glyphname = e;
lastChange = "2015-04-08 15:03:13 +0000";
layers = (
{
anchors = (
{
name = bottom;
position = "{536, 0}";
},
{
name = ogonek;
position = "{964, 10}";
},
{
name = top;
position = "{536, 974}";
}
);
background = {
paths = (
{
closed = 1;
nodes = (
"989 557 LINE SMOOTH",
"989 711 OFFCURVE",
"952 831 OFFCURVE",
"879 918 CURVE SMOOTH",
"806 1005 OFFCURVE",
"702 1048 OFFCURVE",
"568 1048 CURVE SMOOTH",
"434 1048 OFFCURVE",
"322 998 OFFCURVE",
"232 898 CURVE SMOOTH",
"142 798 OFFCURVE",
"97 668 OFFCURVE",
"97 509 CURVE SMOOTH",
"97 340 OFFCURVE",
"138 209 OFFCURVE",
"221 116 CURVE SMOOTH",
"304 23 OFFCURVE",
"418 -24 OFFCURVE",
"563 -24 CURVE SMOOTH",
"637 -24 OFFCURVE",
"704 -16 OFFCURVE",
"764 0 CURVE SMOOTH",
"824 16 OFFCURVE",
"876 41 OFFCURVE",
"921 74 CURVE",
"921 228 LINE",
"873 190 OFFCURVE",
"822 161 OFFCURVE",
"769 142 CURVE SMOOTH",
"716 123 OFFCURVE",
"660 113 OFFCURVE",
"602 113 CURVE SMOOTH",
"499 113 OFFCURVE",
"418 144 OFFCURVE",
"359 206 CURVE SMOOTH",
"300 268 OFFCURVE",
"269 356 OFFCURVE",
"266 470 CURVE",
"989 470 LINE"
);
},
{
closed = 1;
nodes = (
"268 609 LINE",
"281 698 OFFCURVE",
"314 770 OFFCURVE",
"368 825 CURVE SMOOTH",
"422 880 OFFCURVE",
"488 908 OFFCURVE",
"565 908 CURVE SMOOTH",
"645 908 OFFCURVE",
"708 882 OFFCURVE",
"753 829 CURVE SMOOTH",
"798 776 OFFCURVE",
"821 702 OFFCURVE",
"822 607 CURVE"
);
}
);
};
layerId = "90678D68-BBCC-4545-9AE9-72D37A9CD052";
name = Regular;
paths = (
{
closed = 1;
nodes = (
"710 -23 OFFCURVE",
"875 7 OFFCURVE",
"970 47 CURVE",
"919 187 LINE",
"817 147 OFFCURVE",
"714 128 OFFCURVE",
"627 128 CURVE SMOOTH",
"386 128 OFFCURVE",
"262 252 OFFCURVE",
"262 492 CURVE SMOOTH",
"262 692 OFFCURVE",
"342 849 OFFCURVE",
"565 847 CURVE SMOOTH",
"761 845 OFFCURVE",
"818 682 OFFCURVE",
"805 549 CURVE",
"195 543 LINE",
"186 399 LINE",
"965 405 LINE",
"1036 656 OFFCURVE",
"937 1004 OFFCURVE",
"582 1004 CURVE SMOOTH",
"277 1004 OFFCURVE",
"96 825 OFFCURVE",
"96 493 CURVE SMOOTH",
"96 132 OFFCURVE",
"289 -23 OFFCURVE",
"592 -23 CURVE SMOOTH"
);
}
);
width = 1071;
},
{
anchors = (
{
name = bottom;
position = "{517, 0}";
},
{
name = ogonek;
position = "{861, 10}";
},
{
name = top;
position = "{545, 974}";
}
);
background = {
paths = (
{
closed = 1;
nodes = (
"186 508 LINE",
"186 227 OFFCURVE",
"324 59 OFFCURVE",
"551 59 CURVE SMOOTH",
"666 59 OFFCURVE",
"778 101 OFFCURVE",
"887 186 CURVE",
"887 88 LINE",
"781 13 OFFCURVE",
"663 -25 OFFCURVE",
"532 -25 CURVE SMOOTH",
"268 -25 OFFCURVE",
"90 173 OFFCURVE",
"90 518 CURVE SMOOTH",
"90 817 OFFCURVE",
"277 1049 OFFCURVE",
"549 1049 CURVE SMOOTH",
"804 1049 OFFCURVE",
"944 858 OFFCURVE",
"944 549 CURVE SMOOTH",
"944 508 LINE"
);
},
{
closed = 1;
nodes = (
"848 592 LINE",
"840 828 OFFCURVE",
"730 965 OFFCURVE",
"545 965 CURVE SMOOTH",
"353 965 OFFCURVE",
"219 832 OFFCURVE",
"190 592 CURVE"
);
}
);
};
layerId = "4CDE908C-C807-45B0-BC73-FFDEB9F34183";
name = Light;
paths = (
{
closed = 1;
nodes = (
"692 -23 OFFCURVE",
"837 7 OFFCURVE",
"932 47 CURVE",
"901 137 LINE",
"792 87 OFFCURVE",
"703 63 OFFCURVE",
"621 63 CURVE SMOOTH",
"334 63 OFFCURVE",
"186 209 OFFCURVE",
"186 492 CURVE SMOOTH",
"186 731 OFFCURVE",
"282 919 OFFCURVE",
"549 917 CURVE SMOOTH",
"803 914 OFFCURVE",
"906 700 OFFCURVE",
"867 524 CURVE",
"149 518 LINE",
"140 429 LINE",
"947 435 LINE",
"1016 673 OFFCURVE",
"912 1004 OFFCURVE",
"556 1004 CURVE SMOOTH",
"264 1004 OFFCURVE",
"90 825 OFFCURVE",
"90 493 CURVE SMOOTH",
"90 132 OFFCURVE",
"283 -23 OFFCURVE",
"586 -23 CURVE SMOOTH"
);
}
);
width = 1034;
},
{
anchors = (
{
name = bottom;
position = "{554, 0}";
},
{
name = ogonek;
position = "{997, 10}";
},
{
name = top;
position = "{574, 974}";
}
);
background = {
paths = (
{
closed = 1;
nodes = (
"1053 422 LINE",
"385 422 LINE",
"396 273 OFFCURVE",
"489 199 OFFCURVE",
"666 199 CURVE SMOOTH",
"779 199 OFFCURVE",
"878 226 OFFCURVE",
"963 279 CURVE",
"963 51 LINE",
"868 0 OFFCURVE",
"745 -25 OFFCURVE",
"594 -25 CURVE SMOOTH",
"263 -25 OFFCURVE",
"72 168 OFFCURVE",
"72 496 CURVE SMOOTH",
"72 836 OFFCURVE",
"296 1049 OFFCURVE",
"584 1049 CURVE SMOOTH",
"883 1049 OFFCURVE",
"1053 859 OFFCURVE",
"1053 555 CURVE SMOOTH"
);
},
{
closed = 1;
nodes = (
"760 616 LINE",
"760 763 OFFCURVE",
"701 836 OFFCURVE",
"582 836 CURVE SMOOTH",
"481 836 OFFCURVE",
"399 741 OFFCURVE",
"383 616 CURVE"
);
}
);
};
layerId = "7FD739B0-27A2-4428-8CD0-260441CCC696";
name = Bold;
paths = (
{
closed = 1;
nodes = (
"710 -23 OFFCURVE",
"875 7 OFFCURVE",
"970 47 CURVE",
"919 287 LINE",
"817 247 OFFCURVE",
"714 228 OFFCURVE",
"627 228 CURVE SMOOTH",
"458 228 OFFCURVE",
"372 343 OFFCURVE",
"372 492 CURVE SMOOTH",
"372 641 OFFCURVE",
"429 759 OFFCURVE",
"585 757 CURVE SMOOTH",
"724 756 OFFCURVE",
"764 670 OFFCURVE",
"755 584 CURVE",
"195 578 LINE",
"186 384 LINE",
"1025 390 LINE",
"1107 660 OFFCURVE",
"993 1003 OFFCURVE",
"582 1003 CURVE SMOOTH",
"262 1003 OFFCURVE",
"72 824 OFFCURVE",
"72 493 CURVE SMOOTH",
"72 132 OFFCURVE",
"274 -23 OFFCURVE",
"592 -23 CURVE SMOOTH"
);
}
);
width = 1108;
}
);
unicode = 0065;
userData = {
com.typemytype.robofont.image = {
brightness = 0;
color = (
0,
0,
1,
0
);
contrast = 1;
path = "/var/folders/wx/r1w7d8f1373_lvr_cqc1lb000000gn/T/tmpVAOiTg";
saturation = 1;
sharpness = 0;
transform = (
0,
0,
0,
0,
"-78.18672537225467",
"-178.148503180849"
);
};
com.typemytype.robofont.layerData = {
SegoeUI = {
anchors = (
);
components = (
);
contours = (
{
points = (
{
segmentType = line;
smooth = 1;
x = 989;
y = 557;
},
{
smooth = 0;
x = 989;
y = 711;
},
{
smooth = 0;
x = 952;
y = 831;
},
{
segmentType = curve;
smooth = 1;
x = 879;
y = 918;
},
{
smooth = 0;
x = 806;
y = 1005;
},
{
smooth = 0;
x = 702;
y = 1048;
},
{
segmentType = curve;
smooth = 1;
x = 568;
y = 1048;
},
{
smooth = 0;
x = 434;
y = 1048;
},
{
smooth = 0;
x = 322;
y = 998;
},
{
segmentType = curve;
smooth = 1;
x = 232;
y = 898;
},
{
smooth = 0;
x = 142;
y = 798;
},
{
smooth = 0;
x = 97;
y = 668;
},
{
segmentType = curve;
smooth = 1;
x = 97;
y = 509;
},
{
smooth = 0;
x = 97;
y = 340;
},
{
smooth = 0;
x = 138;
y = 209;
},
{
segmentType = curve;
smooth = 1;
x = 221;
y = 116;
},
{
smooth = 0;
x = 304;
y = 23;
},
{
smooth = 0;
x = 418;
y = "-24";
},
{
segmentType = curve;
smooth = 1;
x = 563;
y = "-24";
},
{
smooth = 0;
x = 637;
y = "-24";
},
{
smooth = 0;
x = 704;
y = "-16";
},
{
segmentType = curve;
smooth = 1;
x = 764;
y = 0;
},
{
smooth = 0;
x = 824;
y = 16;
},
{
smooth = 0;
x = 876;
y = 41;
},
{
segmentType = curve;
smooth = 0;
x = 921;
y = 74;
},
{
segmentType = line;
smooth = 0;
x = 921;
y = 228;
},
{
smooth = 0;
x = 873;
y = 190;
},
{
smooth = 0;
x = 822;
y = 161;
},
{
segmentType = curve;
smooth = 1;
x = 769;
y = 142;
},
{
smooth = 0;
x = 716;
y = 123;
},
{
smooth = 0;
x = 660;
y = 113;
},
{
segmentType = curve;
smooth = 1;
x = 602;
y = 113;
},
{
smooth = 0;
x = 499;
y = 113;
},
{
smooth = 0;
x = 418;
y = 144;
},
{
segmentType = curve;
smooth = 1;
x = 359;
y = 206;
},
{
smooth = 0;
x = 300;
y = 268;
},
{
smooth = 0;
x = 269;
y = 356;
},
{
segmentType = curve;
smooth = 0;
x = 266;
y = 470;
},
{
segmentType = line;
smooth = 0;
x = 989;
y = 470;
}
);
},
{
points = (
{
segmentType = line;
smooth = 0;
x = 268;
y = 609;
},
{
smooth = 0;
x = 281;
y = 698;
},
{
smooth = 0;
x = 314;
y = 770;
},
{
segmentType = curve;
smooth = 1;
x = 368;
y = 825;
},
{
smooth = 0;
x = 422;
y = 880;
},
{
smooth = 0;
x = 488;
y = 908;
},
{
segmentType = curve;
smooth = 1;
x = 565;
y = 908;
},
{
smooth = 0;
x = 645;
y = 908;
},
{
smooth = 0;
x = 708;
y = 882;
},
{
segmentType = curve;
smooth = 1;
x = 753;
y = 829;
},
{
smooth = 0;
x = 798;
y = 776;
},
{
smooth = 0;
x = 821;
y = 702;
},
{
segmentType = curve;
smooth = 0;
x = 822;
y = 607;
}
);
}
);
lib = {
};
name = e;
unicodes = (
);
width = 1071;
};
guidelines = {
anchors = (
);
components = (
);
contours = (
);
lib = {
};
name = e;
unicodes = (
);
width = 1071;
};
};
};
},
{
glyphname = eogonek;
lastChange = "2015-04-03 18:45:50 +0000";
layers = (
{
components = (
{
name = e;
}
);
layerId = "4CDE908C-C807-45B0-BC73-FFDEB9F34183";
name = Light;
paths = (
{
closed = 1;
nodes = (
"856 -399 OFFCURVE",
"894 -389 OFFCURVE",
"928 -371 CURVE",
"898 -281 LINE",
"866 -298 OFFCURVE",
"844 -308 OFFCURVE",
"838 -308 CURVE SMOOTH",
"785 -308 OFFCURVE",
"754 -272 OFFCURVE",
"754 -210 CURVE SMOOTH",
"754 -138 OFFCURVE",
"819 -44 OFFCURVE",
"932 47 CURVE",
"844 47 LINE",
"726 -37 OFFCURVE",
"658 -140 OFFCURVE",
"658 -236 CURVE SMOOTH",
"658 -340 OFFCURVE",
"718 -399 OFFCURVE",
"824 -399 CURVE SMOOTH"
);
}
);
width = 1034;
},
{
components = (
{
name = e;
}
);
layerId = "90678D68-BBCC-4545-9AE9-72D37A9CD052";
name = Regular;
paths = (
{
closed = 1;
nodes = (
"908 -400 OFFCURVE",
"948 -388 OFFCURVE",
"974 -365 CURVE",
"933 -250 LINE",
"922 -265 OFFCURVE",
"903 -273 OFFCURVE",
"882 -273 CURVE SMOOTH",
"810 -273 OFFCURVE",
"774 -243 OFFCURVE",
"774 -183 CURVE SMOOTH",
"774 -126 OFFCURVE",
"839 -50 OFFCURVE",
"970 48 CURVE",
"851 48 LINE",
"709 -48 OFFCURVE",
"638 -140 OFFCURVE",
"638 -230 CURVE SMOOTH",
"638 -344 OFFCURVE",
"710 -400 OFFCURVE",
"856 -400 CURVE SMOOTH"
);
}
);
width = 1071;
},
{
components = (
{
name = e;
}
);
layerId = "7FD739B0-27A2-4428-8CD0-260441CCC696";
name = Bold;
paths = (
{
closed = 1;
nodes = (
"882 -419 OFFCURVE",
"938 -412 OFFCURVE",
"984 -400 CURVE",
"947 -222 LINE",
"930 -230 OFFCURVE",
"907 -234 OFFCURVE",
"885 -234 CURVE SMOOTH",
"845 -234 OFFCURVE",
"822 -206 OFFCURVE",
"822 -158 CURVE SMOOTH",
"822 -98 OFFCURVE",
"876 -23 OFFCURVE",
"970 48 CURVE",
"765 48 LINE",
"656 -29 OFFCURVE",
"594 -136 OFFCURVE",
"594 -245 CURVE SMOOTH",
"594 -356 OFFCURVE",
"680 -419 OFFCURVE",
"831 -419 CURVE SMOOTH"
);
}
);
width = 1108;
}
);
unicode = 0119;
},
{
color = 5;
glyphname = f;
lastChange = "2015-12-01 19:10:52 +0000";
layers = (
{
anchors = (
{
name = bottom;
position = "{321, 0}";
},
{
name = top;
position = "{321, 974}";
}
);
layerId = "90678D68-BBCC-4545-9AE9-72D37A9CD052";
name = Regular;
paths = (
{
closed = 1;
nodes = (
"391 2 LINE",
"391 1141 LINE",
"391 1291 OFFCURVE",
"415 1371 OFFCURVE",
"527 1371 CURVE SMOOTH",
"559 1371 OFFCURVE",
"599 1364 OFFCURVE",
"648 1359 CURVE",
"684 1519 LINE",
"619 1526 OFFCURVE",
"563 1534 OFFCURVE",
"514 1534 CURVE SMOOTH",
"283 1534 OFFCURVE",
"227 1353 OFFCURVE",
"227 1131 CURVE",
"227 2 LINE"
);
},
{
closed = 1;
nodes = (
"52 831 OFFCURVE",
"630 831 OFFCURVE",
"630 831 CURVE",
"630 976 LINE",
"52 974 LINE",
"52 831 LINE"
);
}
);
width = 641;
},
{
anchors = (
{
name = bottom;
position = "{283, 0}";
},
{
name = top;
position = "{283, 974}";
}
);
background = {
paths = (
{
closed = 1;
nodes = (
"612 1419 LINE",
"587 1438 OFFCURVE",
"550 1448 OFFCURVE",
"500 1448 CURVE SMOOTH",
"374 1448 OFFCURVE",
"311 1363 OFFCURVE",
"311 1194 CURVE SMOOTH",
"311 1024 LINE",
"582 1024 LINE",
"582 940 LINE",
"311 940 LINE",
"311 0 LINE",
"219 0 LINE",
"219 940 LINE",
"35 940 LINE",
"35 1024 LINE",
"219 1024 LINE",
"219 1202 LINE SMOOTH",
"219 1418 OFFCURVE",
"341 1532 OFFCURVE",
"504 1532 CURVE SMOOTH",
"547 1532 OFFCURVE",
"583 1526 OFFCURVE",
"612 1513 CURVE"
);
}
);
};
layerId = "4CDE908C-C807-45B0-BC73-FFDEB9F34183";
name = Light;
paths = (
{
closed = 1;
nodes = (
"316 2 LINE",
"316 1141 LINE",
"316 1340 OFFCURVE",
"352 1446 OFFCURVE",
"522 1446 CURVE SMOOTH",
"546 1446 OFFCURVE",
"576 1439 OFFCURVE",
"613 1434 CURVE",
"629 1519 LINE",
"583 1526 OFFCURVE",
"544 1534 OFFCURVE",
"509 1534 CURVE SMOOTH",
"278 1534 OFFCURVE",
"222 1353 OFFCURVE",
"222 1131 CURVE",
"222 2 LINE"
);
},
{
closed = 1;
nodes = (
"35 901 OFFCURVE",
"581 901 OFFCURVE",
"581 901 CURVE",
"581 976 LINE",
"35 974 LINE",
"35 901 LINE"
);
}
);
width = 565;
},
{
anchors = (
{
name = bottom;
position = "{393, 0}";
},
{
name = top;
position = "{393, 974}";
}
);
background = {
paths = (
{
closed = 1;
nodes = (
"801 1274 LINE",
"760 1290 OFFCURVE",
"721 1298 OFFCURVE",
"684 1298 CURVE SMOOTH",
"583 1298 OFFCURVE",
"532 1243 OFFCURVE",
"532 1133 CURVE SMOOTH",
"532 1024 LINE",
"766 1024 LINE",
"766 791 LINE",
"532 791 LINE",
"532 0 LINE",
"217 0 LINE",
"217 791 LINE",
"45 791 LINE",
"45 1024 LINE",
"217 1024 LINE",
"217 1151 LINE SMOOTH",
"217 1384 OFFCURVE",
"380 1540 OFFCURVE",
"641 1540 CURVE SMOOTH",
"705 1540 OFFCURVE",
"758 1533 OFFCURVE",
"801 1520 CURVE"
);
}
);
};
layerId = "7FD739B0-27A2-4428-8CD0-260441CCC696";
name = Bold;
paths = (
{
closed = 1;
nodes = (
"532 2 LINE",
"532 1141 LINE",
"532 1226 OFFCURVE",
"556 1271 OFFCURVE",
"668 1271 CURVE SMOOTH",
"698 1271 OFFCURVE",
"736 1267 OFFCURVE",
"782 1265 CURVE",
"825 1519 LINE",
"760 1526 OFFCURVE",
"704 1534 OFFCURVE",
"655 1534 CURVE SMOOTH",
"303 1534 OFFCURVE",
"218 1353 OFFCURVE",
"218 1131 CURVE",
"218 2 LINE"
);
},
{
closed = 1;
nodes = (
"48 742 OFFCURVE",
"765 742 OFFCURVE",
"765 742 CURVE",
"765 976 LINE",
"48 974 LINE",
"48 742 LINE"
);
}
);
width = 785;
}
);
unicode = 0066;
userData = {
com.typemytype.robofont.layerData = {
SegoeUI = {
anchors = (
);
components = (
);
contours = (
{
points = (
{
segmentType = line;
smooth = 0;
x = 672;
y = 1520;
},
{
smooth = 0;
x = 657;
y = 1526;
},
{
smooth = 0;
x = 640;
y = 1531;
},
{
segmentType = curve;
smooth = 1;
x = 620;
y = 1534;
},
{
smooth = 0;
x = 600;
y = 1537;
},
{
smooth = 0;
x = 577;
y = 1539;
},
{
segmentType = curve;
smooth = 1;
x = 552;
y = 1539;
},
{
smooth = 0;
x = 459;
y = 1539;
},
{
smooth = 0;
x = 382;
y = 1508;
},
{
segmentType = curve;
smooth = 1;
x = 320;
y = 1446;
},
{
smooth = 0;
x = 258;
y = 1384;
},
{
smooth = 0;
x = 227;
y = 1299;
},
{
segmentType = curve;
smooth = 1;
x = 227;
y = 1192;
},
{
segmentType = line;
smooth = 0;
x = 227;
y = 1026;
},
{
segmentType = line;
smooth = 0;
x = 52;
y = 1026;
},
{
segmentType = line;
smooth = 0;
x = 52;
y = 886;
},
{
segmentType = line;
smooth = 0;
x = 227;
y = 886;
},
{
segmentType = line;
smooth = 0;
x = 227;
y = 2;
},
{
segmentType = line;
smooth = 0;
x = 390;
y = 2;
},
{
segmentType = line;
smooth = 0;
x = 390;
y = 886;
},
{
segmentType = line;
smooth = 0;
x = 630;
y = 886;
},
{
segmentType = line;
smooth = 0;
x = 630;
y = 1026;
},
{
segmentType = line;
smooth = 0;
x = 390;
y = 1026;
},
{
segmentType = line;
smooth = 1;
x = 390;
y = 1184;
},
{
smooth = 0;
x = 390;
y = 1257;
},
{
smooth = 0;
x = 404;
y = 1311;
},
{
segmentType = curve;
smooth = 1;
x = 433;
y = 1347;
},
{
smooth = 0;
x = 462;
y = 1383;
},
{
smooth = 0;
x = 505;
y = 1401;
},
{
segmentType = curve;
smooth = 1;
x = 562;
y = 1401;
},
{
smooth = 0;
x = 583;
y = 1401;
},
{
smooth = 0;
x = 602;
y = 1399;
},
{
segmentType = curve;
smooth = 1;
x = 620;
y = 1395;
},
{
smooth = 0;
x = 638;
y = 1391;
},
{
smooth = 0;
x = 655;
y = 1384;
},
{
segmentType = curve;
smooth = 0;
x = 671;
y = 1375;
}
);
}
);
lib = {
};
name = f;
unicodes = (
);
width = 641;
};
guidelines = {
anchors = (
);
components = (
);
contours = (
);
lib = {
};
name = f;
unicodes = (
);
width = 641;
};
};
};
},
{
color = 5;
glyphname = g;
lastChange = "2015-03-23 00:01:15 +0000";
layers = (
{
anchors = (
{
name = bottom;
position = "{603, 0}";
},
{
name = top;
position = "{603, 974}";
}
);
layerId = "90678D68-BBCC-4545-9AE9-72D37A9CD052";
name = Regular;
paths = (
{
closed = 1;
nodes = (
"779 -480 OFFCURVE",
"1040 -340 OFFCURVE",
"1040 0 CURVE SMOOTH",
"1040 974 LINE",
"917 974 LINE",
"877 804 LINE",
"877 804 OFFCURVE",
"876 93 OFFCURVE",
"876 55 CURVE",
"876 -193 OFFCURVE",
"738 -309 OFFCURVE",
"356 -328 CURVE",
"375 -482 LINE"
);
},
{
closed = 1;
nodes = (
"802 -23 OFFCURVE",
"936 110 OFFCURVE",
"936 360 CURVE",
"876 453 LINE",
"876 252 OFFCURVE",
"773 134 OFFCURVE",
"577 134 CURVE SMOOTH",
"361 134 OFFCURVE",
"275 323 OFFCURVE",
"275 483 CURVE SMOOTH",
"275 712 OFFCURVE",
"401 851 OFFCURVE",
"604 851 CURVE SMOOTH",
"686 851 OFFCURVE",
"816 826 OFFCURVE",
"912 717 CURVE",
"929 850 LINE",
"823 950 OFFCURVE",
"711 1000 OFFCURVE",
"591 1000 CURVE SMOOTH",
"294 1000 OFFCURVE",
"99 789 OFFCURVE",
"99 472 CURVE SMOOTH",
"99 173 OFFCURVE",
"273 -22.994 OFFCURVE",
"537 -23 CURVE"
);
}
);
width = 1206;
},
{
anchors = (
{
name = bottom;
position = "{574, 0}";
},
{
name = top;
position = "{574, 974}";
}
);
background = {
paths = (
{
closed = 1;
nodes = (
"983 76 LINE SMOOTH",
"983 -309 OFFCURVE",
"820 -481 OFFCURVE",
"465 -481 CURVE SMOOTH",
"366 -481 OFFCURVE",
"265 -455 OFFCURVE",
"160 -403 CURVE",
"160 -307 LINE",
"268 -367 OFFCURVE",
"370 -397 OFFCURVE",
"467 -397 CURVE SMOOTH",
"750 -397 OFFCURVE",
"891 -248 OFFCURVE",
"891 51 CURVE SMOOTH",
"891 184 LINE",
"887 184 LINE",
"806 45 OFFCURVE",
"683 -25 OFFCURVE",
"518 -25 CURVE SMOOTH",
"266 -25 OFFCURVE",
"90 167 OFFCURVE",
"90 494 CURVE SMOOTH",
"90 821 OFFCURVE",
"278 1049 OFFCURVE",
"559 1049 CURVE SMOOTH",
"710 1049 OFFCURVE",
"819 987 OFFCURVE",
"887 862 CURVE",
"891 862 LINE",
"891 1024 LINE",
"983 1024 LINE"
);
},
{
closed = 1;
nodes = (
"891 631 LINE SMOOTH",
"891 812 OFFCURVE",
"757 965 OFFCURVE",
"561 965 CURVE SMOOTH",
"336 965 OFFCURVE",
"186 781 OFFCURVE",
"186 502 CURVE SMOOTH",
"186 222 OFFCURVE",
"323 59 OFFCURVE",
"530 59 CURVE SMOOTH",
"750 59 OFFCURVE",
"891 221 OFFCURVE",
"891 428 CURVE SMOOTH"
);
}
);
};
layerId = "4CDE908C-C807-45B0-BC73-FFDEB9F34183";
name = Light;
paths = (
{
closed = 1;
nodes = (
"746 -480 OFFCURVE",
"985 -340 OFFCURVE",
"985 0 CURVE SMOOTH",
"986 974 LINE",
"932 974 LINE",
"892 804 LINE",
"892 804 OFFCURVE",
"891 55 OFFCURVE",
"891 15 CURVE",
"891 -252 OFFCURVE",
"751 -378 OFFCURVE",
"362 -398 CURVE",
"375 -482 LINE"
);
},
{
closed = 1;
nodes = (
"786 -23 OFFCURVE",
"928 99 OFFCURVE",
"928 310 CURVE",
"891 413 LINE",
"891 201 OFFCURVE",
"765 64 OFFCURVE",
"577 64 CURVE SMOOTH",
"328 64 OFFCURVE",
"186 213 OFFCURVE",
"186 473 CURVE SMOOTH",
"186 751 OFFCURVE",
"338 911 OFFCURVE",
"604 911 CURVE SMOOTH",
"708 911 OFFCURVE",
"817 855 OFFCURVE",
"905 757 CURVE",
"912 850 LINE",
"822 936 OFFCURVE",
"739 1000 OFFCURVE",
"591 1000 CURVE SMOOTH",
"273 1000 OFFCURVE",
"90 804 OFFCURVE",
"90 462 CURVE SMOOTH",
"90 154 OFFCURVE",
"253 -23 OFFCURVE",
"537 -23 CURVE"
);
}
);
width = 1147;
},
{
anchors = (
{
name = bottom;
position = "{634, 0}";
},
{
name = top;
position = "{634, 974}";
}
);
background = {
paths = (
{
closed = 1;
nodes = (
"1137 117 LINE SMOOTH",
"1137 -263 OFFCURVE",
"911 -481 OFFCURVE",
"494 -481 CURVE SMOOTH",
"356 -481 OFFCURVE",
"247 -461 OFFCURVE",
"166 -422 CURVE",
"166 -156 LINE",
"271 -217 OFFCURVE",
"378 -248 OFFCURVE",
"485 -248 CURVE SMOOTH",
"694 -248 OFFCURVE",
"821 -125 OFFCURVE",
"821 66 CURVE SMOOTH",
"821 147 LINE",
"817 147 LINE",
"745 32 OFFCURVE",
"639 -25 OFFCURVE",
"498 -25 CURVE SMOOTH",
"237 -25 OFFCURVE",
"72 174 OFFCURVE",
"72 483 CURVE SMOOTH",
"72 830 OFFCURVE",
"258 1049 OFFCURVE",
"537 1049 CURVE SMOOTH",
"662 1049 OFFCURVE",
"755 1001 OFFCURVE",
"817 905 CURVE",
"821 905 LINE",
"821 1024 LINE",
"1137 1024 LINE"
);
},
{
closed = 1;
nodes = (
"825 573 LINE SMOOTH",
"825 702 OFFCURVE",
"741 807 OFFCURVE",
"618 807 CURVE SMOOTH",
"478 807 OFFCURVE",
"393 693 OFFCURVE",
"393 494 CURVE SMOOTH",
"393 323 OFFCURVE",
"474 217 OFFCURVE",
"606 217 CURVE SMOOTH",
"737 217 OFFCURVE",
"825 327 OFFCURVE",
"825 492 CURVE SMOOTH"
);
}
);
};
layerId = "7FD739B0-27A2-4428-8CD0-260441CCC696";
name = Bold;
paths = (
{
closed = 1;
nodes = (
"837 -480 OFFCURVE",
"1136 -340 OFFCURVE",
"1136 0 CURVE SMOOTH",
"1137 974 LINE",
"867 974 LINE",
"827 804 LINE",
"827 804 OFFCURVE",
"826 93 OFFCURVE",
"826 55 CURVE",
"826 -119 OFFCURVE",
"701 -200 OFFCURVE",
"356 -213 CURVE",
"375 -482 LINE"
);
},
{
closed = 1;
nodes = (
"769 -23 OFFCURVE",
"886 110 OFFCURVE",
"886 360 CURVE",
"826 453 LINE",
"826 309 OFFCURVE",
"747 224 OFFCURVE",
"597 224 CURVE SMOOTH",
"453 224 OFFCURVE",
"395 364 OFFCURVE",
"395 483 CURVE SMOOTH",
"395 656 OFFCURVE",
"483 761 OFFCURVE",
"624 761 CURVE SMOOTH",
"701 761 OFFCURVE",
"822 742 OFFCURVE",
"912 657 CURVE",
"929 850 LINE",
"823 950 OFFCURVE",
"711 1000 OFFCURVE",
"591 1000 CURVE SMOOTH",
"276 1000 OFFCURVE",
"69 789 OFFCURVE",
"69 472 CURVE SMOOTH",
"69 173 OFFCURVE",
"255 -23 OFFCURVE",
"537 -23 CURVE"
);
}
);
width = 1268;
}
);
unicode = 0067;
userData = {
com.typemytype.robofont.image = {
brightness = 0;
color = (
0,
0,
1,
0
);
contrast = 1;
path = "/var/folders/wx/r1w7d8f1373_lvr_cqc1lb000000gn/T/tmpogWB6x";
saturation = 1;
sharpness = 0;
transform = (
0,
"-0.02622487819446277",
0,
0,
0,
"-745.0118736706065"
);
};
com.typemytype.robofont.layerData = {
SegoeUI = {
anchors = (
);
components = (
);
contours = (
{
points = (
{
segmentType = line;
smooth = 0;
x = 565;
y = 114;
},
{
smooth = 0;
x = 474;
y = 114;
},
{
smooth = 0;
x = 401;
y = 148;
},
{
segmentType = curve;
smooth = 1;
x = 346;
y = 216;
},
{
smooth = 0;
x = 291;
y = 284;
},
{
smooth = 0;
x = 263;
y = 375;
},
{
segmentType = curve;
smooth = 1;
x = 263;
y = 489;
},
{
smooth = 0;
x = 263;
y = 622;
},
{
smooth = 0;
x = 292;
y = 725;
},
{
segmentType = curve;
smooth = 1;
x = 349;
y = 799;
},
{
smooth = 0;
x = 406;
y = 873;
},
{
smooth = 0;
x = 485;
y = 910;
},
{
segmentType = curve;
smooth = 1;
x = 586;
y = 910;
},
{
smooth = 0;
x = 668;
y = 910;
},
{
smooth = 0;
x = 737;
y = 881;
},
{
segmentType = curve;
smooth = 1;
x = 792;
y = 823;
},
{
smooth = 0;
x = 847;
y = 765;
},
{
smooth = 0;
x = 875;
y = 695;
},
{
segmentType = curve;
smooth = 1;
x = 875;
y = 614;
},
{
segmentType = line;
smooth = 1;
x = 875;
y = 463;
},
{
smooth = 0;
x = 875;
y = 361;
},
{
smooth = 0;
x = 846;
y = 277;
},
{
segmentType = curve;
smooth = 1;
x = 788;
y = 212;
},
{
smooth = 0;
x = 730;
y = 147;
},
{
smooth = 0;
x = 655;
y = 114;
},
{
segmentType = curve;
smooth = 0;
x = 563;
y = 114;
}
);
},
{
points = (
{
segmentType = line;
smooth = 0;
x = 1038;
y = 1024;
},
{
segmentType = line;
smooth = 0;
x = 874;
y = 1024;
},
{
segmentType = line;
smooth = 0;
x = 874;
y = 882;
},
{
segmentType = line;
smooth = 0;
x = 870;
y = 882;
},
{
smooth = 0;
x = 837;
y = 937;
},
{
smooth = 0;
x = 795;
y = 979;
},
{
segmentType = curve;
smooth = 1;
x = 744;
y = 1007;
},
{
smooth = 0;
x = 693;
y = 1035;
},
{
smooth = 0;
x = 633;
y = 1049;
},
{
segmentType = curve;
smooth = 1;
x = 564;
y = 1049;
},
{
smooth = 0;
x = 419;
y = 1049;
},
{
smooth = 0;
x = 304;
y = 998;
},
{
segmentType = curve;
smooth = 1;
x = 220;
y = 895;
},
{
smooth = 0;
x = 136;
y = 792;
},
{
smooth = 0;
x = 94;
y = 654;
},
{
segmentType = curve;
smooth = 1;
x = 94;
y = 480;
},
{
smooth = 0;
x = 94;
y = 327;
},
{
smooth = 0;
x = 133;
y = 205;
},
{
segmentType = curve;
smooth = 1;
x = 211;
y = 114;
},
{
smooth = 0;
x = 289;
y = 23;
},
{
smooth = 0;
x = 392;
y = "-23";
},
{
segmentType = curve;
smooth = 1;
x = 519;
y = "-23";
},
{
smooth = 0;
x = 598;
y = "-23";
},
{
smooth = 0;
x = 667;
y = "-7";
},
{
segmentType = curve;
smooth = 1;
x = 726;
y = 26;
},
{
smooth = 0;
x = 785;
y = 59;
},
{
smooth = 0;
x = 834;
y = 108;
},
{
segmentType = curve;
smooth = 0;
x = 873;
y = 173;
},
{
segmentType = line;
smooth = 0;
x = 877;
y = 173;
},
{
segmentType = line;
smooth = 1;
x = 877;
y = 61;
},
{
smooth = 0;
x = 877;
y = "-73";
},
{
smooth = 0;
x = 845;
y = "-174";
},
{
segmentType = curve;
smooth = 1;
x = 782;
y = "-241";
},
{
smooth = 0;
x = 719;
y = "-308";
},
{
smooth = 0;
x = 624;
y = "-342";
},
{
segmentType = curve;
smooth = 1;
x = 498;
y = "-342";
},
{
smooth = 0;
x = 446;
y = "-342";
},
{
smooth = 0;
x = 392;
y = "-334";
},
{
segmentType = curve;
smooth = 1;
x = 337;
y = "-318";
},
{
smooth = 0;
x = 282;
y = "-302";
},
{
smooth = 0;
x = 225;
y = "-278";
},
{
segmentType = curve;
smooth = 0;
x = 167;
y = "-246";
},
{
segmentType = line;
smooth = 0;
x = 167;
y = "-410";
},
{
smooth = 0;
x = 214;
y = "-434";
},
{
smooth = 0;
x = 265;
y = "-452";
},
{
segmentType = curve;
smooth = 1;
x = 320;
y = "-464";
},
{
smooth = 0;
x = 375;
y = "-476";
},
{
smooth = 0;
x = 434;
y = "-482";
},
{
segmentType = curve;
smooth = 1;
x = 497;
y = "-482";
},
{
smooth = 0;
x = 677;
y = "-482";
},
{
smooth = 0;
x = 812;
y = "-435";
},
{
segmentType = curve;
smooth = 1;
x = 902;
y = "-341";
},
{
smooth = 0;
x = 992;
y = "-247";
},
{
smooth = 0;
x = 1037;
y = "-106";
},
{
segmentType = curve;
smooth = 1;
x = 1037;
y = 82;
}
);
}
);
lib = {
};
name = g;
unicodes = (
);
width = 1206;
};
guidelines = {
anchors = (
);
components = (
);
contours = (
);
lib = {
};
name = g;
unicodes = (
);
width = 1206;
};
};
};
},
{
color = 5;
glyphname = h;
lastChange = "2015-03-21 16:21:58 +0000";
layers = (
{
anchors = (
{
name = bottom;
position = "{580, 0}";
},
{
name = center;
position = "{580, 487}";
},
{
name = top;
position = "{580, 974}";
}
);
background = {
paths = (
{
closed = 1;
nodes = (
"353 803 OFFCURVE",
"462 885 OFFCURVE",
"628 886 CURVE SMOOTH",
"799 887 OFFCURVE",
"897 726 OFFCURVE",
"897 506 CURVE SMOOTH",
"897 243 OFFCURVE",
"771 135 OFFCURVE",
"616 135 CURVE SMOOTH",
"505 135 OFFCURVE",
"302 183 OFFCURVE",
"302 418 CURVE",
"302 548 LINE",
"272 397 LINE",
"270 233 OFFCURVE",
"270 -23 OFFCURVE",
"604 -23 CURVE SMOOTH",
"916 -23 OFFCURVE",
"1078 184 OFFCURVE",
"1078 504 CURVE SMOOTH",
"1078 831 OFFCURVE",
"932 1050 OFFCURVE",
"640 1050 CURVE",
"442 1050 OFFCURVE",
"338 971 OFFCURVE",
"271 900 CURVE",
"268 723 LINE"
);
}
);
};
layerId = "90678D68-BBCC-4545-9AE9-72D37A9CD052";
name = Regular;
paths = (
{
closed = 1;
nodes = (
"1016 0 LINE",
"1016 610 LINE",
"1016 833 OFFCURVE",
"890 1000 OFFCURVE",
"627 1000 CURVE",
"469 1000 OFFCURVE",
"351 938 OFFCURVE",
"270 814 CURVE",
"270 661 LINE",
"346 767 OFFCURVE",
"474 843 OFFCURVE",
"626 843 CURVE",
"799 843 OFFCURVE",
"852 710 OFFCURVE",
"852 564 CURVE",
"852 0 LINE"
);
},
{
closed = 1;
nodes = (
"329 0 LINE",
"329 1517 LINE",
"165 1517 LINE",
"165 0 LINE"
);
}
);
width = 1159;
},
{
anchors = (
{
name = bottom;
position = "{548, 0}";
},
{
name = center;
position = "{548, 487}";
},
{
name = top;
position = "{548, 974}";
}
);
background = {
paths = (
{
closed = 1;
nodes = (
"860 0 LINE",
"860 614 LINE SMOOTH",
"860 857 OFFCURVE",
"775 965 OFFCURVE",
"588 965 CURVE SMOOTH",
"412 965 OFFCURVE",
"256 823 OFFCURVE",
"256 567 CURVE SMOOTH",
"256 0 LINE",
"164 0 LINE",
"164 1516 LINE",
"256 1516 LINE",
"256 840 LINE",
"260 840 LINE",
"341 979 OFFCURVE",
"458 1049 OFFCURVE",
"612 1049 CURVE SMOOTH",
"833 1049 OFFCURVE",
"952 902 OFFCURVE",
"952 635 CURVE SMOOTH",
"952 0 LINE"
);
}
);
};
layerId = "4CDE908C-C807-45B0-BC73-FFDEB9F34183";
name = Light;
paths = (
{
closed = 1;
nodes = (
"952 0 LINE",
"952 610 LINE",
"952 833 OFFCURVE",
"843 1000 OFFCURVE",
"616 1000 CURVE",
"449 1000 OFFCURVE",
"325 938 OFFCURVE",
"239 814 CURVE",
"239 701 LINE",
"319 824 OFFCURVE",
"454 913 OFFCURVE",
"615 913 CURVE",
"801 913 OFFCURVE",
"858 746 OFFCURVE",
"858 564 CURVE",
"858 0 LINE"
);
},
{
closed = 1;
nodes = (
"258 0 LINE",
"258 1517 LINE",
"164 1517 LINE",
"164 0 LINE"
);
}
);
width = 1096;
},
{
anchors = (
{
name = bottom;
position = "{617, 0}";
},
{
name = center;
position = "{617, 487}";
},
{
name = top;
position = "{617, 974}";
}
);
background = {
paths = (
{
closed = 1;
nodes = (
"1116 0 LINE",
"801 0 LINE",
"801 582 LINE SMOOTH",
"801 732 OFFCURVE",
"746 807 OFFCURVE",
"637 807 CURVE SMOOTH",
"525 807 OFFCURVE",
"449 713 OFFCURVE",
"449 584 CURVE SMOOTH",
"449 0 LINE",
"133 0 LINE",
"133 1516 LINE",
"449 1516 LINE",
"449 872 LINE",
"453 872 LINE",
"530 990 OFFCURVE",
"635 1049 OFFCURVE",
"768 1049 CURVE SMOOTH",
"1000 1049 OFFCURVE",
"1116 909 OFFCURVE",
"1116 629 CURVE SMOOTH"
);
}
);
};
layerId = "7FD739B0-27A2-4428-8CD0-260441CCC696";
name = Bold;
paths = (
{
closed = 1;
nodes = (
"1116 0 LINE",
"1116 610 LINE",
"1116 833 OFFCURVE",
"993 1000 OFFCURVE",
"737 1000 CURVE",
"579 1000 OFFCURVE",
"461 938 OFFCURVE",
"380 814 CURVE",
"370 581 LINE SMOOTH",
"425 690 OFFCURVE",
"514 753 OFFCURVE",
"616 753 CURVE",
"758 753 OFFCURVE",
"802 644 OFFCURVE",
"802 524 CURVE",
"802 0 LINE"
);
},
{
closed = 1;
nodes = (
"449 0 LINE",
"449 1517 LINE",
"133 1517 LINE",
"133 0 LINE"
);
}
);
width = 1233;
}
);
unicode = 0068;
userData = {
com.typemytype.robofont.image = {
brightness = 0;
color = (
0,
0,
1,
0
);
contrast = 1;
path = "/var/folders/wx/r1w7d8f1373_lvr_cqc1lb000000gn/T/tmppNBH5j";
saturation = 1;
sharpness = 0;
transform = (
0,
0,
0,
0,
"-47.86319505736984",
"-97.06006957063497"
);
};
com.typemytype.robofont.layerData = {
SegoeUI = {
anchors = (
);
components = (
);
contours = (
{
points = (
{
segmentType = line;
smooth = 1;
x = 1016;
y = 631;
},
{
smooth = 0;
x = 1016;
y = 770;
},
{
smooth = 0;
x = 987;
y = 874;
},
{
segmentType = curve;
smooth = 1;
x = 929;
y = 943;
},
{
smooth = 0;
x = 871;
y = 1012;
},
{
smooth = 0;
x = 784;
y = 1047;
},
{
segmentType = curve;
smooth = 1;
x = 669;
y = 1047;
},
{
smooth = 0;
x = 596;
y = 1047;
},
{
smooth = 0;
x = 532;
y = 1031;
},
{
segmentType = curve;
smooth = 1;
x = 476;
y = 999;
},
{
smooth = 0;
x = 420;
y = 967;
},
{
smooth = 0;
x = 372;
y = 918;
},
{
segmentType = curve;
smooth = 0;
x = 333;
y = 853;
},
{
segmentType = line;
smooth = 0;
x = 329;
y = 853;
},
{
segmentType = line;
smooth = 0;
x = 329;
y = 1515;
},
{
segmentType = line;
smooth = 0;
x = 165;
y = 1515;
},
{
segmentType = line;
smooth = 0;
x = 165;
y = "-1";
},
{
segmentType = line;
smooth = 0;
x = 329;
y = "-1";
},
{
segmentType = line;
smooth = 1;
x = 329;
y = 579;
},
{
smooth = 0;
x = 329;
y = 676;
},
{
smooth = 0;
x = 356;
y = 755;
},
{
segmentType = curve;
smooth = 1;
x = 411;
y = 817;
},
{
smooth = 0;
x = 466;
y = 879;
},
{
smooth = 0;
x = 533;
y = 910;
},
{
segmentType = curve;
smooth = 1;
x = 613;
y = 910;
},
{
smooth = 0;
x = 692;
y = 910;
},
{
smooth = 0;
x = 752;
y = 883;
},
{
segmentType = curve;
smooth = 1;
x = 792;
y = 830;
},
{
smooth = 0;
x = 832;
y = 777;
},
{
smooth = 0;
x = 852;
y = 697;
},
{
segmentType = curve;
smooth = 1;
x = 852;
y = 590;
},
{
segmentType = line;
smooth = 0;
x = 852;
y = 0;
},
{
segmentType = line;
smooth = 0;
x = 1016;
y = 0;
}
);
}
);
lib = {
};
name = h;
unicodes = (
);
width = 1159;
};
guidelines = {
anchors = (
);
components = (
);
contours = (
);
lib = {
};
name = h;
unicodes = (
);
width = 1159;
};
};
};
},
{
color = 5;
glyphname = i;
lastChange = "2015-03-21 16:21:58 +0000";
layers = (
{
components = (
{
name = idotless;
}
);
layerId = "90678D68-BBCC-4545-9AE9-72D37A9CD052";
name = Regular;
paths = (
{
closed = 1;
nodes = (
"314 1279 OFFCURVE",
"362 1327 OFFCURVE",
"362 1391 CURVE SMOOTH",
"362 1454 OFFCURVE",
"314 1502 OFFCURVE",
"251 1502 CURVE SMOOTH",
"187 1502 OFFCURVE",
"139 1454 OFFCURVE",
"139 1391 CURVE SMOOTH",
"139 1327 OFFCURVE",
"187 1279 OFFCURVE",
"251 1279 CURVE SMOOTH"
);
}
);
width = 496;
},
{
background = {
paths = (
{
closed = 1;
nodes = (
"169 1282 OFFCURVE",
"133 1315 OFFCURVE",
"133 1360 CURVE SMOOTH",
"133 1404 OFFCURVE",
"170 1434 OFFCURVE",
"209 1434 CURVE SMOOTH",
"250 1434 OFFCURVE",
"287 1405 OFFCURVE",
"287 1360 CURVE SMOOTH",
"287 1317 OFFCURVE",
"252 1282 OFFCURVE",
"209 1282 CURVE SMOOTH"
);
},
{
closed = 1;
nodes = (
"164 0 LINE",
"164 1024 LINE",
"256 1024 LINE",
"256 0 LINE"
);
}
);
};
components = (
{
name = idotless;
}
);
layerId = "4CDE908C-C807-45B0-BC73-FFDEB9F34183";
name = Light;
paths = (
{
closed = 1;
nodes = (
"251 1290 OFFCURVE",
"281 1320 OFFCURVE",
"281 1361 CURVE SMOOTH",
"281 1401 OFFCURVE",
"251 1431 OFFCURVE",
"211 1431 CURVE SMOOTH",
"170 1431 OFFCURVE",
"140 1401 OFFCURVE",
"140 1361 CURVE SMOOTH",
"140 1320 OFFCURVE",
"170 1290 OFFCURVE",
"211 1290 CURVE SMOOTH"
);
}
);
width = 420;
},
{
background = {
paths = (
{
closed = 1;
nodes = (
"186 1186 OFFCURVE",
"111 1258 OFFCURVE",
"111 1350 CURVE SMOOTH",
"111 1445 OFFCURVE",
"186 1511 OFFCURVE",
"293 1511 CURVE SMOOTH",
"401 1511 OFFCURVE",
"475 1445 OFFCURVE",
"475 1350 CURVE SMOOTH",
"475 1254 OFFCURVE",
"401 1186 OFFCURVE",
"293 1186 CURVE SMOOTH"
);
},
{
closed = 1;
nodes = (
"449 0 LINE",
"133 0 LINE",
"133 1024 LINE",
"449 1024 LINE"
);
}
);
};
components = (
{
name = idotless;
}
);
layerId = "7FD739B0-27A2-4428-8CD0-260441CCC696";
name = Bold;
paths = (
{
closed = 1;
nodes = (
"388 1189 OFFCURVE",
"461 1263 OFFCURVE",
"461 1361 CURVE SMOOTH",
"461 1457 OFFCURVE",
"388 1531 OFFCURVE",
"291 1531 CURVE SMOOTH",
"193 1531 OFFCURVE",
"120 1457 OFFCURVE",
"120 1361 CURVE SMOOTH",
"120 1263 OFFCURVE",
"193 1189 OFFCURVE",
"291 1189 CURVE SMOOTH"
);
}
);
width = 582;
}
);
unicode = 0069;
userData = {
com.typemytype.robofont.image = {
brightness = 0;
color = (
0,
0,
1,
0
);
contrast = 1;
path = "/var/folders/wx/r1w7d8f1373_lvr_cqc1lb000000gn/T/tmpe1wiC2";
saturation = 1;
sharpness = 0;
transform = (
0,
0,
0,
0,
"-110.2052766442062",
"-176.9099364145393"
);
};
com.typemytype.robofont.layerData = {
SegoeUI = {
anchors = (
);
components = (
);
contours = (
{
points = (
{
segmentType = curve;
smooth = 1;
x = 358;
y = 1390;
},
{
smooth = 0;
x = 358;
y = 1421;
},
{
smooth = 0;
x = 347;
y = 1447;
},
{
segmentType = curve;
smooth = 1;
x = 326;
y = 1467;
},
{
smooth = 0;
x = 305;
y = 1487;
},
{
smooth = 0;
x = 279;
y = 1497;
},
{
segmentType = curve;
smooth = 1;
x = 249;
y = 1497;
},
{
smooth = 0;
x = 220;
y = 1497;
},
{
smooth = 0;
x = 195;
y = 1487;
},
{
segmentType = curve;
smooth = 1;
x = 174;
y = 1467;
},
{
smooth = 0;
x = 153;
y = 1447;
},
{
smooth = 0;
x = 143;
y = 1421;
},
{
segmentType = curve;
smooth = 1;
x = 143;
y = 1390;
},
{
smooth = 0;
x = 143;
y = 1359;
},
{
smooth = 0;
x = 153;
y = 1334;
},
{
segmentType = curve;
smooth = 1;
x = 174;
y = 1314;
},
{
smooth = 0;
x = 195;
y = 1294;
},
{
smooth = 0;
x = 220;
y = 1284;
},
{
segmentType = curve;
smooth = 1;
x = 249;
y = 1284;
},
{
smooth = 0;
x = 279;
y = 1284;
},
{
smooth = 0;
x = 305;
y = 1294;
},
{
segmentType = curve;
smooth = 1;
x = 326;
y = 1315;
},
{
smooth = 0;
x = 347;
y = 1336;
},
{
smooth = 0;
x = 358;
y = 1361;
}
);
},
{
points = (
{
segmentType = line;
smooth = 0;
x = 330;
y = 1024;
},
{
segmentType = line;
smooth = 0;
x = 166;
y = 1024;
},
{
segmentType = line;
smooth = 0;
x = 166;
y = 0;
},
{
segmentType = line;
smooth = 0;
x = 330;
y = 0;
}
);
}
);
lib = {
};
name = i;
unicodes = (
);
width = 496;
};
guidelines = {
anchors = (
);
components = (
);
contours = (
);
lib = {
};
name = i;
unicodes = (
);
width = 496;
};
};
};
},
{
glyphname = idotless;
lastChange = "2015-03-21 16:21:58 +0000";
layers = (
{
anchors = (
{
name = bottom;
position = "{210, 0}";
},
{
name = ogonek;
position = "{214, 10}";
},
{
name = top;
position = "{210, 974}";
}
);
layerId = "4CDE908C-C807-45B0-BC73-FFDEB9F34183";
name = Light;
paths = (
{
closed = 1;
nodes = (
"257 0 LINE",
"257 974 LINE",
"163 974 LINE",
"163 0 LINE"
);
}
);
width = 420;
},
{
anchors = (
{
name = bottom;
position = "{248, 0}";
},
{
name = ogonek;
position = "{260, 10}";
},
{
name = top;
position = "{248, 974}";
}
);
layerId = "90678D68-BBCC-4545-9AE9-72D37A9CD052";
name = Regular;
paths = (
{
closed = 1;
nodes = (
"330 0 LINE",
"330 974 LINE",
"166 974 LINE",
"166 0 LINE"
);
}
);
width = 496;
},
{
anchors = (
{
name = bottom;
position = "{291, 0}";
},
{
name = ogonek;
position = "{360, 10}";
},
{
name = top;
position = "{291, 974}";
}
);
layerId = "7FD739B0-27A2-4428-8CD0-260441CCC696";
name = Bold;
paths = (
{
closed = 1;
nodes = (
"449 0 LINE",
"449 974 LINE",
"133 974 LINE",
"133 0 LINE"
);
}
);
width = 582;
}
);
unicode = 0131;
},
{
glyphname = ij;
lastChange = "2015-04-09 22:22:46 +0000";
layers = (
{
components = (
{
name = i;
},
{
name = j;
transform = "{1, 0, 0, 1, 420, 0}";
}
);
layerId = "4CDE908C-C807-45B0-BC73-FFDEB9F34183";
name = Light;
width = 840;
},
{
background = {
paths = (
{
closed = 1;
nodes = (
"191 1284 OFFCURVE",
"144 1329 OFFCURVE",
"144 1390 CURVE SMOOTH",
"144 1451 OFFCURVE",
"191 1497 OFFCURVE",
"250 1497 CURVE SMOOTH",
"310 1497 OFFCURVE",
"358 1451 OFFCURVE",
"358 1390 CURVE SMOOTH",
"358 1331 OFFCURVE",
"310 1284 OFFCURVE",
"250 1284 CURVE SMOOTH"
);
},
{
closed = 1;
nodes = (
"330 0 LINE",
"166 0 LINE",
"166 1024 LINE",
"330 1024 LINE"
);
},
{
closed = 1;
nodes = (
"848 43 LINE SMOOTH",
"848 -293 OFFCURVE",
"708 -482 OFFCURVE",
"456 -482 CURVE SMOOTH",
"409 -482 OFFCURVE",
"364 -471 OFFCURVE",
"320 -450 CURVE",
"320 -297 LINE",
"369 -327 OFFCURVE",
"416 -342 OFFCURVE",
"460 -342 CURVE SMOOTH",
"609 -342 OFFCURVE",
"684 -223 OFFCURVE",
"684 16 CURVE SMOOTH",
"684 1024 LINE",
"848 1024 LINE"
);
},
{
closed = 1;
nodes = (
"709 1284 OFFCURVE",
"662 1329 OFFCURVE",
"662 1390 CURVE SMOOTH",
"662 1451 OFFCURVE",
"709 1497 OFFCURVE",
"768 1497 CURVE SMOOTH",
"828 1497 OFFCURVE",
"876 1451 OFFCURVE",
"876 1390 CURVE SMOOTH",
"876 1331 OFFCURVE",
"828 1284 OFFCURVE",
"768 1284 CURVE SMOOTH"
);
}
);
};
components = (
{
name = i;
},
{
disableAlignment = 1;
name = j;
transform = "{1, 0, 0, 1, 526, 0}";
}
);
layerId = "90678D68-BBCC-4545-9AE9-72D37A9CD052";
name = Regular;
width = 1014;
},
{
background = {
paths = (
{
closed = 1;
nodes = (
"186 1186 OFFCURVE",
"111 1258 OFFCURVE",
"111 1350 CURVE SMOOTH",
"111 1445 OFFCURVE",
"186 1511 OFFCURVE",
"293 1511 CURVE SMOOTH",
"401 1511 OFFCURVE",
"475 1445 OFFCURVE",
"475 1350 CURVE SMOOTH",
"475 1254 OFFCURVE",
"401 1186 OFFCURVE",
"293 1186 CURVE SMOOTH"
);
},
{
closed = 1;
nodes = (
"449 0 LINE",
"133 0 LINE",
"133 1024 LINE",
"449 1024 LINE"
);
},
{
closed = 1;
nodes = (
"842 1186 OFFCURVE",
"767 1258 OFFCURVE",
"767 1350 CURVE SMOOTH",
"767 1445 OFFCURVE",
"842 1511 OFFCURVE",
"949 1511 CURVE SMOOTH",
"1057 1511 OFFCURVE",
"1131 1445 OFFCURVE",
"1131 1350 CURVE SMOOTH",
"1131 1254 OFFCURVE",
"1057 1186 OFFCURVE",
"949 1186 CURVE SMOOTH"
);
},
{
closed = 1;
nodes = (
"1105 18 LINE SMOOTH",
"1105 -285 OFFCURVE",
"953 -481 OFFCURVE",
"674 -481 CURVE SMOOTH",
"628 -481 OFFCURVE",
"578 -471 OFFCURVE",
"523 -451 CURVE",
"523 -203 LINE",
"567 -228 OFFCURVE",
"606 -240 OFFCURVE",
"640 -240 CURVE SMOOTH",
"739 -240 OFFCURVE",
"789 -162 OFFCURVE",
"789 -6 CURVE SMOOTH",
"789 1024 LINE",
"1105 1024 LINE"
);
}
);
};
components = (
{
name = i;
},
{
disableAlignment = 1;
name = j;
transform = "{1, 0, 0, 1, 653, 0}";
}
);
layerId = "7FD739B0-27A2-4428-8CD0-260441CCC696";
name = Bold;
width = 1238;
}
);
unicode = 0133;
},
